999
dxfrw 0.6.3
  0
SECTION
  2
HEADER
  9
$ACADVER
  1
AC1021
  9
$DWGCODEPAGE
  3
ANSI_936
  9
$INSBASE
 10
0
 20
0
 30
0
  9
$EXTMIN
 10
-9.971933999999948
 20
-288.6462041343358
 30
0
  9
$EXTMAX
 10
375.8510858743562
 20
-7.586368012708917
 30
0
  9
$LIMMIN
 10
0
 20
0
  9
$LIMMAX
 10
420
 20
297
  9
$ORTHOMODE
 70
    0
  9
$REGENMODE
 70
    1
  9
$FILLMODE
 70
    1
  9
$QTEXTMODE
 70
    0
  9
$MIRRTEXT
 70
    0
  9
$LTSCALE
 40
1
  9
$ATTMODE
 70
    1
  9
$TEXTSIZE
 40
2.5
  9
$TRACEWID
 40
1
  9
$TEXTSTYLE
  7
Standard
  9
$CLAYER
  8
0
  9
$CELTYPE
  6
ByLayer
  9
$CECOLOR
 62
  256
  9
$CELTSCALE
 40
1
  9
$DISPSILH
 70
    0
  9
$DIMSCALE
 40
1
  9
$DIMASZ
 40
2.5
  9
$DIMEXO
 40
0.625
  9
$DIMDLI
 40
3.75
  9
$DIMRND
 40
0
  9
$DIMDLE
 40
0
  9
$DIMEXE
 40
1.25
  9
$DIMTP
 40
0
  9
$DIMTM
 40
0
  9
$DIMTXT
 40
2.5
  9
$DIMCEN
 40
2.5
  9
$DIMTSZ
 40
0
  9
$DIMTOL
 70
    0
  9
$DIMLIM
 70
    0
  9
$DIMTIH
 70
    0
  9
$DIMTOH
 70
    0
  9
$DIMSE1
 70
    0
  9
$DIMSE2
 70
    0
  9
$DIMTAD
 70
    1
  9
$DIMZIN
 70
    8
  9
$DIMBLK
  1

  9
$DIMASO
 70
    1
  9
$DIMSHO
 70
    1
  9
$DIMPOST
  1

  9
$DIMAPOST
  1

  9
$DIMALT
 70
    0
  9
$DIMALTD
 70
    3
  9
$DIMALTF
 40
0.03937007874016
  9
$DIMLFAC
 40
1
  9
$DIMTOFL
 70
    1
  9
$DIMTVP
 40
0
  9
$DIMTIX
 70
    0
  9
$DIMSOXD
 70
    0
  9
$DIMSAH
 70
    0
  9
$DIMBLK1
  1

  9
$DIMBLK2
  1

  9
$DIMSTYLE
  2
ISO-25
  9
$DIMCLRD
 70
    0
  9
$DIMCLRE
 70
    0
  9
$DIMCLRT
 70
    0
  9
$DIMTFAC
 40
1
  9
$DIMGAP
 40
0.625
  9
$DIMJUST
 70
    0
  9
$DIMSD1
 70
    0
  9
$DIMSD2
 70
    0
  9
$DIMTOLJ
 70
    0
  9
$DIMTZIN
 70
    8
  9
$DIMALTZ
 70
    0
  9
$DIMALTTZ
 70
    0
  9
$DIMUPT
 70
    0
  9
$DIMDEC
 70
    2
  9
$DIMTDEC
 70
    2
  9
$DIMALTU
 70
    2
  9
$DIMALTTD
 70
    3
  9
$DIMTXSTY
  7
Standard
  9
$DIMAUNIT
 70
    0
  9
$DIMADEC
 70
    0
  9
$DIMALTRND
 40
0
  9
$DIMAZIN
 70
    0
  9
$DIMDSEP
 70
   44
  9
$DIMATFIT
 70
    3
  9
$DIMFRAC
 70
    0
  9
$DIMLDRBLK
  1

  9
$DIMLUNIT
 70
    2
  9
$DIMLWD
 70
   -2
  9
$DIMLWE
 70
   -2
  9
$DIMTMOVE
 70
    0
  9
$DIMFXL
 40
1
  9
$DIMFXLON
 70
    0
  9
$DIMJOGANG
 40
0.7854
  9
$DIMTFILL
 70
    0
  9
$DIMTFILLCLR
 70
    0
  9
$DIMARCSYM
 70
    0
  9
$DIMLTYPE
  6

  9
$DIMLTEX1
  6

  9
$DIMLTEX2
  6

  9
$LUNITS
 70
    2
  9
$LUPREC
 70
    4
  9
$SKETCHINC
 40
1
  9
$FILLETRAD
 40
0
  9
$AUNITS
 70
    0
  9
$AUPREC
 70
    0
  9
$MENU
  1
.
  9
$ELEVATION
 40
0
  9
$PELEVATION
 40
0
  9
$THICKNESS
 40
0
  9
$LIMCHECK
 70
    0
  9
$CHAMFERA
 40
0
  9
$CHAMFERB
 40
0
  9
$CHAMFERC
 40
0
  9
$CHAMFERD
 40
0
  9
$SKPOLY
 70
    0
  9
$USRTIMER
 70
    1
  9
$ANGBASE
 50
0
  9
$ANGDIR
 70
    0
  9
$PDMODE
 70
    0
  9
$PDSIZE
 40
0
  9
$PLINEWID
 40
0
  9
$SPLFRAME
 70
    0
  9
$SPLINETYPE
 70
    6
  9
$SPLINESEGS
 70
    8
  9
$HANDSEED
  5
20000
  9
$SURFTAB1
 70
    6
  9
$SURFTAB2
 70
    6
  9
$SURFTYPE
 70
    6
  9
$SURFU
 70
    6
  9
$SURFV
 70
    6
  9
$UCSBASE
  2

  9
$UCSNAME
  2

  9
$UCSORG
 10
0
 20
0
 30
0
  9
$UCSXDIR
 10
1
 20
0
 30
0
  9
$UCSYDIR
 10
0
 20
1
 30
0
  9
$UCSORTHOREF
  2

  9
$UCSORTHOVIEW
 70
    0
  9
$UCSORGTOP
 10
0
 20
0
 30
0
  9
$UCSORGBOTTOM
 10
0
 20
0
 30
0
  9
$UCSORGLEFT
 10
0
 20
0
 30
0
  9
$UCSORGRIGHT
 10
0
 20
0
 30
0
  9
$UCSORGFRONT
 10
0
 20
0
 30
0
  9
$UCSORGBACK
 10
0
 20
0
 30
0
  9
$PUCSBASE
  2

  9
$PUCSNAME
  2

  9
$PUCSORG
 10
0
 20
0
 30
0
  9
$PUCSXDIR
 10
1
 20
0
 30
0
  9
$PUCSYDIR
 10
0
 20
1
 30
0
  9
$PUCSORTHOREF
  2

  9
$PUCSORTHOVIEW
 70
    0
  9
$PUCSORGTOP
 10
0
 20
0
 30
0
  9
$PUCSORGBOTTOM
 10
0
 20
0
 30
0
  9
$PUCSORGLEFT
 10
0
 20
0
 30
0
  9
$PUCSORGRIGHT
 10
0
 20
0
 30
0
  9
$PUCSORGFRONT
 10
0
 20
0
 30
0
  9
$PUCSORGBACK
 10
0
 20
0
 30
0
  9
$USERI1
 70
    0
  9
$USERI2
 70
    0
  9
$USERI3
 70
    0
  9
$USERI4
 70
    0
  9
$USERI5
 70
    0
  9
$USERR1
 40
0
  9
$USERR2
 40
0
  9
$USERR3
 40
0
  9
$USERR4
 40
0
  9
$USERR5
 40
0
  9
$WORLDVIEW
 70
    1
  9
$SHADEDGE
 70
    3
  9
$SHADEDIF
 70
   70
  9
$TILEMODE
 70
    1
  9
$MAXACTVP
 70
   64
  9
$PINSBASE
 10
0
 20
0
 30
0
  9
$PLIMCHECK
 70
    0
  9
$PEXTMIN
 10
0
 20
0
 30
0
  9
$PEXTMAX
 10
0
 20
0
 30
0
  9
$GRIDMODE
 70
    1
  9
$SNAPSTYLE
 70
    0
  9
$PLIMMIN
 10
0
 20
0
  9
$PLIMMAX
 10
12
 20
9
  9
$UNITMODE
 70
    0
  9
$VISRETAIN
 70
    1
  9
$PLINEGEN
 70
    0
  9
$PSLTSCALE
 70
    1
  9
$TREEDEPTH
 70
 3020
  9
$CMLSTYLE
  2
Standard
  9
$CMLJUST
 70
    0
  9
$CMLSCALE
 40
20
  9
$PROXYGRAPHICS
 70
    1
  9
$MEASUREMENT
 70
    1
  9
$CELWEIGHT
370
   -1
  9
$ENDCAPS
280
    0
  9
$JOINSTYLE
280
    0
  9
$LWDISPLAY
290
    0
  9
$INSUNITS
 70
    4
  9
$HYPERLINKBASE
  1

  9
$STYLESHEET
  1

  9
$XEDIT
290
    1
  9
$CEPSNTYPE
380
    0
  9
$PSTYLEMODE
290
    1
  9
$EXTNAMES
290
    1
  9
$PSVPSCALE
 40
0
  9
$OLESTARTUP
290
    0
  9
$SORTENTS
280
  127
  9
$INDEXCTL
280
    0
  9
$HIDETEXT
280
    1
  9
$XCLIPFRAME
290
    0
  9
$HALOGAP
280
    0
  9
$OBSCOLOR
 70
  257
  9
$OBSLTYPE
280
    0
  9
$INTERSECTIONDISPLAY
280
    0
  9
$INTERSECTIONCOLOR
 70
  257
  9
$DIMASSOC
280
    1
  9
$PROJECTNAME
  1

  9
$CAMERADISPLAY
290
    0
  9
$LENSLENGTH
 40
50
  9
$CAMERAHEIGHT
 40
0
  9
$STEPSPERSEC
 40
2
  9
$STEPSIZE
 40
50
  9
$3DDWFPREC
 40
2
  9
$PSOLWIDTH
 40
5
  9
$PSOLHEIGHT
 40
80
  9
$LOFTANG1
 40
1.570796326794897
  9
$LOFTANG2
 40
1.570796326794897
  9
$LOFTMAG1
 40
0
  9
$LOFTMAG2
 40
0
  9
$LOFTPARAM
 70
    7
  9
$LOFTNORMALS
280
    1
  9
$LATITUDE
 40
1
  9
$LONGITUDE
 40
1
  9
$NORTHDIRECTION
 40
0
  9
$TIMEZONE
 70
-8000
  9
$LIGHTGLYPHDISPLAY
280
    1
  9
$TILEMODELIGHTSYNCH
280
    1
  9
$SOLIDHIST
280
    1
  9
$SHOWHIST
280
    1
  9
$DWFFRAME
280
    2
  9
$DGNFRAME
280
    0
  9
$REALWORLDSCALE
290
    1
  9
$INTERFERECOLOR
 62
    1
  9
$CSHADOW
280
    0
  9
$SHADOWPLANELOCATION
 40
0
  0
ENDSEC
  0
SECTION
  2
CLASSES
  0
ENDSEC
  0
SECTION
  2
TABLES
  0
TABLE
  2
VPORT
  5
8
330
0
100
AcDbSymbolTable
 70
    1
  0
VPORT
  5
31
330
2
100
AcDbSymbolTableRecord
100
AcDbViewportTableRecord
  2
*ACTIVE
 70
    0
 10
0
 20
0
 11
1
 21
1
 12
423.4127944510561
 22
39.62149860842555
 13
0
 23
0
 14
10
 24
10
 15
10
 25
10
 16
0
 26
0
 36
1
 17
0
 27
0
 37
0
 40
569.4750986431333
 41
1.870283018867924
 42
50
 43
0
 44
0
 50
0
 51
0
 71
    0
 72
  100
 73
    1
 74
    3
 75
    0
 76
    1
 77
    0
 78
    0
281
    0
 65
    1
110
0
120
0
130
0
111
1
121
0
131
0
112
0
122
1
132
0
 79
    0
146
0
348
10020
 60
    7
 61
    5
292
1
282
    1
141
0
142
0
 63
  250
421
3358443
  0
ENDTAB
  0
TABLE
  2
LTYPE
  5
5
330
0
100
AcDbSymbolTable
 70
    4
  0
LTYPE
  5
14
330
5
100
AcDbSymbolTableRecord
100
AcDbLinetypeTableRecord
  2
ByBlock
 70
    0
  3

 72
   65
 73
    0
 40
0
  0
LTYPE
  5
15
330
5
100
AcDbSymbolTableRecord
100
AcDbLinetypeTableRecord
  2
ByLayer
 70
    0
  3

 72
   65
 73
    0
 40
0
  0
LTYPE
  5
16
330
5
100
AcDbSymbolTableRecord
100
AcDbLinetypeTableRecord
  2
Continuous
 70
    0
  3
Solid line
 72
   65
 73
    0
 40
0
  0
LTYPE
  5
32
330
5
100
AcDbSymbolTableRecord
100
AcDbLinetypeTableRecord
  2
DOT
 70
    0
  3
Dot . . . . . . . . . . . . . . . . . . . . . .
 72
   65
 73
    2
 40
6.35
 49
0
 74
    0
 49
-6.35
 74
    0
  0
LTYPE
  5
33
330
5
100
AcDbSymbolTableRecord
100
AcDbLinetypeTableRecord
  2
DOTTINY
 70
    0
  3
Dot (.15x) .....................................
 72
   65
 73
    2
 40
0.9525
 49
0
 74
    0
 49
-0.9525
 74
    0
  0
LTYPE
  5
34
330
5
100
AcDbSymbolTableRecord
100
AcDbLinetypeTableRecord
  2
DOT2
 70
    0
  3
Dot (.5x) .....................................
 72
   65
 73
    2
 40
3.175
 49
0
 74
    0
 49
-3.175
 74
    0
  0
LTYPE
  5
35
330
5
100
AcDbSymbolTableRecord
100
AcDbLinetypeTableRecord
  2
DOTX2
 70
    0
  3
Dot (2x) .  .  .  .  .  .  .  .  .  .  .  .  .
 72
   65
 73
    2
 40
12.7
 49
0
 74
    0
 49
-12.7
 74
    0
  0
LTYPE
  5
36
330
5
100
AcDbSymbolTableRecord
100
AcDbLinetypeTableRecord
  2
DASHED
 70
    0
  3
Dashed _ _ _ _ _ _ _ _ _ _ _ _ _ _ _ _ _
 72
   65
 73
    2
 40
19.05
 49
12.7
 74
    0
 49
-6.35
 74
    0
  0
LTYPE
  5
37
330
5
100
AcDbSymbolTableRecord
100
AcDbLinetypeTableRecord
  2
DASHEDTINY
 70
    0
  3
Dashed (.15x) _ _ _ _ _ _ _ _ _ _ _ _ _ _ _ _ _
 72
   65
 73
    2
 40
2.8575
 49
1.905
 74
    0
 49
-0.9525
 74
    0
  0
LTYPE
  5
38
330
5
100
AcDbSymbolTableRecord
100
AcDbLinetypeTableRecord
  2
DASHED2
 70
    0
  3
Dashed (.5x) _ _ _ _ _ _ _ _ _ _ _ _ _ _ _ _ _
 72
   65
 73
    2
 40
9.524999999999999
 49
6.35
 74
    0
 49
-3.175
 74
    0
  0
LTYPE
  5
39
330
5
100
AcDbSymbolTableRecord
100
AcDbLinetypeTableRecord
  2
DASHEDX2
 70
    0
  3
Dashed (2x) ____  ____  ____  ____  ____  ___
 72
   65
 73
    2
 40
38.09999999999999
 49
25.4
 74
    0
 49
-12.7
 74
    0
  0
LTYPE
  5
3A
330
5
100
AcDbSymbolTableRecord
100
AcDbLinetypeTableRecord
  2
DASHDOT
 70
    0
  3
Dash dot __ . __ . __ . __ . __ . __ . __ . __
 72
   65
 73
    4
 40
25.4
 49
12.7
 74
    0
 49
-6.35
 74
    0
 49
0
 74
    0
 49
-6.35
 74
    0
  0
LTYPE
  5
3B
330
5
100
AcDbSymbolTableRecord
100
AcDbLinetypeTableRecord
  2
DASHDOTTINY
 70
    0
  3
Dash dot (.15x) _._._._._._._._._._._._._._._.
 72
   65
 73
    4
 40
3.81
 49
1.905
 74
    0
 49
-0.9525
 74
    0
 49
0
 74
    0
 49
-0.9525
 74
    0
  0
LTYPE
  5
3C
330
5
100
AcDbSymbolTableRecord
100
AcDbLinetypeTableRecord
  2
DASHDOT2
 70
    0
  3
Dash dot (.5x) _._._._._._._._._._._._._._._.
 72
   65
 73
    4
 40
12.7
 49
6.35
 74
    0
 49
-3.175
 74
    0
 49
0
 74
    0
 49
-3.175
 74
    0
  0
LTYPE
  5
3D
330
5
100
AcDbSymbolTableRecord
100
AcDbLinetypeTableRecord
  2
DASHDOTX2
 70
    0
  3
Dash dot (2x) ____  .  ____  .  ____  .  ___
 72
   65
 73
    4
 40
50.8
 49
25.4
 74
    0
 49
-12.7
 74
    0
 49
0
 74
    0
 49
-12.7
 74
    0
  0
LTYPE
  5
3E
330
5
100
AcDbSymbolTableRecord
100
AcDbLinetypeTableRecord
  2
DIVIDE
 70
    0
  3
Divide ____ . . ____ . . ____ . . ____ . . ____
 72
   65
 73
    6
 40
31.75
 49
12.7
 74
    0
 49
-6.35
 74
    0
 49
0
 74
    0
 49
-6.35
 74
    0
 49
0
 74
    0
 49
-6.35
 74
    0
  0
LTYPE
  5
3F
330
5
100
AcDbSymbolTableRecord
100
AcDbLinetypeTableRecord
  2
DIVIDETINY
 70
    0
  3
Divide (.15x) __..__..__..__..__..__..__..__.._
 72
   65
 73
    6
 40
4.7625
 49
1.905
 74
    0
 49
-0.9525
 74
    0
 49
0
 74
    0
 49
-0.9525
 74
    0
 49
0
 74
    0
 49
-0.9525
 74
    0
  0
LTYPE
  5
40
330
5
100
AcDbSymbolTableRecord
100
AcDbLinetypeTableRecord
  2
DIVIDE2
 70
    0
  3
Divide (.5x) __..__..__..__..__..__..__..__.._
 72
   65
 73
    6
 40
15.875
 49
6.35
 74
    0
 49
-3.175
 74
    0
 49
0
 74
    0
 49
-3.175
 74
    0
 49
0
 74
    0
 49
-3.175
 74
    0
  0
LTYPE
  5
41
330
5
100
AcDbSymbolTableRecord
100
AcDbLinetypeTableRecord
  2
DIVIDEX2
 70
    0
  3
Divide (2x) ________  .  .  ________  .  .  _
 72
   65
 73
    6
 40
63.5
 49
25.4
 74
    0
 49
-12.7
 74
    0
 49
0
 74
    0
 49
-12.7
 74
    0
 49
0
 74
    0
 49
-12.7
 74
    0
  0
LTYPE
  5
42
330
5
100
AcDbSymbolTableRecord
100
AcDbLinetypeTableRecord
  2
BORDER
 70
    0
  3
Border __ __ . __ __ . __ __ . __ __ . __ __ .
 72
   65
 73
    6
 40
44.45
 49
12.7
 74
    0
 49
-6.35
 74
    0
 49
12.7
 74
    0
 49
-6.35
 74
    0
 49
0
 74
    0
 49
-6.35
 74
    0
  0
LTYPE
  5
43
330
5
100
AcDbSymbolTableRecord
100
AcDbLinetypeTableRecord
  2
BORDERTINY
 70
    0
  3
Border (.15x) __.__.__.__.__.__.__.__.__.__.__.
 72
   65
 73
    6
 40
6.6675
 49
1.905
 74
    0
 49
-0.9525
 74
    0
 49
1.905
 74
    0
 49
-0.9525
 74
    0
 49
0
 74
    0
 49
-0.9525
 74
    0
  0
LTYPE
  5
44
330
5
100
AcDbSymbolTableRecord
100
AcDbLinetypeTableRecord
  2
BORDER2
 70
    0
  3
Border (.5x) __.__.__.__.__.__.__.__.__.__.__.
 72
   65
 73
    6
 40
22.225
 49
6.35
 74
    0
 49
-3.175
 74
    0
 49
6.35
 74
    0
 49
-3.175
 74
    0
 49
0
 74
    0
 49
-3.175
 74
    0
  0
LTYPE
  5
45
330
5
100
AcDbSymbolTableRecord
100
AcDbLinetypeTableRecord
  2
BORDERX2
 70
    0
  3
Border (2x) ____  ____  .  ____  ____  .  ___
 72
   65
 73
    6
 40
88.89999999999999
 49
25.4
 74
    0
 49
-12.7
 74
    0
 49
25.4
 74
    0
 49
-12.7
 74
    0
 49
0
 74
    0
 49
-12.7
 74
    0
  0
LTYPE
  5
46
330
5
100
AcDbSymbolTableRecord
100
AcDbLinetypeTableRecord
  2
CENTER
 70
    0
  3
Center ____ _ ____ _ ____ _ ____ _ ____ _ ____
 72
   65
 73
    4
 40
50.8
 49
31.75
 74
    0
 49
-6.35
 74
    0
 49
6.35
 74
    0
 49
-6.35
 74
    0
  0
LTYPE
  5
47
330
5
100
AcDbSymbolTableRecord
100
AcDbLinetypeTableRecord
  2
CENTERTINY
 70
    0
  3
Center (.15x) ___ _ ___ _ ___ _ ___ _ ___ _ ___
 72
   65
 73
    4
 40
7.62
 49
4.7625
 74
    0
 49
-0.9525
 74
    0
 49
0.9525
 74
    0
 49
-0.9525
 74
    0
  0
LTYPE
  5
48
330
5
100
AcDbSymbolTableRecord
100
AcDbLinetypeTableRecord
  2
CENTER2
 70
    0
  3
Center (.5x) ___ _ ___ _ ___ _ ___ _ ___ _ ___
 72
   65
 73
    4
 40
28.575
 49
19.05
 74
    0
 49
-3.175
 74
    0
 49
3.175
 74
    0
 49
-3.175
 74
    0
  0
LTYPE
  5
49
330
5
100
AcDbSymbolTableRecord
100
AcDbLinetypeTableRecord
  2
CENTERX2
 70
    0
  3
Center (2x) ________  __  ________  __  _____
 72
   65
 73
    4
 40
101.6
 49
63.5
 74
    0
 49
-12.7
 74
    0
 49
12.7
 74
    0
 49
-12.7
 74
    0
  0
ENDTAB
  0
TABLE
  2
LAYER
  5
2
330
0
100
AcDbSymbolTable
 70
    1
  0
LAYER
  5
10
330
2
100
AcDbSymbolTableRecord
100
AcDbLayerTableRecord
  2
0
 70
    0
 62
    7
  6
CONTINUOUS
370
   -3
390
F
  0
ENDTAB
  0
TABLE
  2
STYLE
  5
3
330
0
100
AcDbSymbolTable
 70
    3
  0
STYLE
  5
4A
330
2
100
AcDbSymbolTableRecord
100
AcDbTextStyleTableRecord
  2
Standard
 70
    0
 40
0
 41
1
 50
0
 71
    0
 42
1
  3
txt
  4

  0
ENDTAB
  0
TABLE
  2
VIEW
  5
6
330
0
100
AcDbSymbolTable
 70
    0
  0
ENDTAB
  0
TABLE
  2
UCS
  5
7
330
0
100
AcDbSymbolTable
 70
    0
  0
ENDTAB
  0
TABLE
  2
APPID
  5
9
330
0
100
AcDbSymbolTable
 70
    1
  0
APPID
  5
12
330
9
100
AcDbSymbolTableRecord
100
AcDbRegAppTableRecord
  2
ACAD
 70
    0
  0
APPID
  5
4B
330
9
100
AcDbSymbolTableRecord
100
AcDbRegAppTableRecord
  2
LibreCad
 70
    0
  0
ENDTAB
  0
TABLE
  2
DIMSTYLE
  5
A
330
0
100
AcDbSymbolTable
 70
    1
100
AcDbDimStyleTable
 71
    1
  0
DIMSTYLE
105
4C
330
A
100
AcDbSymbolTableRecord
100
AcDbDimStyleTableRecord
  2
Standard
 70
    0
 40
1
 41
2.5
 42
0.625
 43
0.38
 44
1.25
 45
0
 46
0
 47
0
 48
0
 49
1
140
2.5
141
0.09
142
0
143
25.4
144
1
145
0
146
1
147
0.625
148
0
 71
    0
 72
    0
 73
    0
 74
    1
 75
    0
 76
    0
 77
    0
 78
    8
 79
    0
170
    0
171
    2
172
    0
173
    0
174
    0
175
    0
176
    0
177
    0
178
    0
179
    0
271
    2
272
    4
273
    2
274
    2
275
    0
276
    0
277
    2
278
   44
279
    0
280
    0
281
    0
282
    0
283
    1
284
    0
285
    0
286
    0
288
    0
289
    3
340
Standard
341

371
   -2
372
   -2
  0
ENDTAB
  0
TABLE
  2
BLOCK_RECORD
  5
1
330
0
100
AcDbSymbolTable
 70
    2
  0
BLOCK_RECORD
  5
1F
330
1
100
AcDbSymbolTableRecord
100
AcDbBlockTableRecord
  2
*Model_Space
 70
    0
280
    1
281
    0
  0
BLOCK_RECORD
  5
1E
330
1
100
AcDbSymbolTableRecord
100
AcDbBlockTableRecord
  2
*Paper_Space
 70
    0
280
    1
281
    0
  0
ENDTAB
  0
ENDSEC
  0
SECTION
  2
BLOCKS
  0
BLOCK
  5
20
330
1F
100
AcDbEntity
  8
0
100
AcDbBlockBegin
  2
*Model_Space
 70
    0
 10
0
 20
0
 30
0
  3
*Model_Space
  1

  0
ENDBLK
  5
21
330
1F
100
AcDbEntity
  8
0
100
AcDbBlockEnd
  0
BLOCK
  5
1C
330
1B
100
AcDbEntity
  8
0
100
AcDbBlockBegin
  2
*Paper_Space
 70
    0
 10
0
 20
0
 30
0
  3
*Paper_Space
  1

  0
ENDBLK
  5
1D
330
1F
100
AcDbEntity
  8
0
100
AcDbBlockEnd
  0
ENDSEC
  0
SECTION
  2
ENTITIES
  0
LINE
  5
4D
100
AcDbEntity
  8
0
  6
ByLayer
 62
  256
370
   -1
100
AcDbLine
 10
115.249598
 20
-123.1293151930769
 11
115.416598
 21
-123.2253151930769
  0
LINE
  5
4E
100
AcDbEntity
  8
0
  6
ByLayer
 62
  256
370
   -1
100
AcDbLine
 10
1.951298
 20
-14.74331519307687
 11
1.752868
 21
-14.78731519307688
  0
LINE
  5
4F
100
AcDbEntity
  8
0
  6
ByLayer
 62
  256
370
   -1
100
AcDbLine
 10
1.752868
 20
-14.78731519307688
 11
1.193378
 21
-15.07131519307687
  0
LINE
  5
50
100
AcDbEntity
  8
0
  6
ByLayer
 62
  256
370
   -1
100
AcDbLine
 10
1.193378
 20
-15.07131519307687
 11
0.5718839999999999
 21
-15.64031519307689
  0
LINE
  5
51
100
AcDbEntity
  8
0
  6
ByLayer
 62
  256
370
   -1
100
AcDbLine
 10
0.5718839999999999
 20
-15.64031519307689
 11
0.152962
 21
-16.36931519307687
  0
LINE
  5
52
100
AcDbEntity
  8
0
  6
ByLayer
 62
  256
370
   -1
100
AcDbLine
 10
0.152962
 20
-16.36931519307687
 11
0
 21
-16.97831519307688
  0
LINE
  5
53
100
AcDbEntity
  8
0
  6
ByLayer
 62
  256
370
   -1
100
AcDbLine
 10
0
 20
-16.97831519307688
 11
0
 21
-17.18231519307686
  0
LINE
  5
54
100
AcDbEntity
  8
0
  6
ByLayer
 62
  256
370
   -1
100
AcDbLine
 10
0
 20
-109.2813151930768
 11
0
 21
-109.4743151930769
  0
LINE
  5
55
100
AcDbEntity
  8
0
  6
ByLayer
 62
  256
370
   -1
100
AcDbLine
 10
0
 20
-109.4743151930769
 11
0.157096
 21
-110.0573151930769
  0
LINE
  5
56
100
AcDbEntity
  8
0
  6
ByLayer
 62
  256
370
   -1
100
AcDbLine
 10
0.157096
 20
-110.0573151930769
 11
0.587043
 21
-110.6923151930769
  0
LINE
  5
57
100
AcDbEntity
  8
0
  6
ByLayer
 62
  256
370
   -1
100
AcDbLine
 10
0.587043
 20
-110.6923151930769
 11
1.222318
 21
-111.1223151930769
  0
LINE
  5
58
100
AcDbEntity
  8
0
  6
ByLayer
 62
  256
370
   -1
100
AcDbLine
 10
1.222318
 20
-111.1223151930769
 11
1.805228
 21
-111.2803151930769
  0
LINE
  5
59
100
AcDbEntity
  8
0
  6
ByLayer
 62
  256
370
   -1
100
AcDbLine
 10
1.805228
 20
-111.2803151930769
 11
1.999538
 21
-111.2803151930769
  0
LINE
  5
5A
100
AcDbEntity
  8
0
  6
ByLayer
 62
  256
370
   -1
100
AcDbLine
 10
1.999538
 20
-111.2803151930769
 11
92.71159800000001
 21
-111.2803151930769
  0
LINE
  5
5B
100
AcDbEntity
  8
0
  6
ByLayer
 62
  256
370
   -1
100
AcDbLine
 10
92.71159800000001
 20
-111.2803151930769
 11
92.939098
 21
-111.2803151930769
  0
LINE
  5
5C
100
AcDbEntity
  8
0
  6
ByLayer
 62
  256
370
   -1
100
AcDbLine
 10
92.939098
 20
-111.2803151930769
 11
93.62389800000001
 21
-111.3593151930769
  0
LINE
  5
5D
100
AcDbEntity
  8
0
  6
ByLayer
 62
  256
370
   -1
100
AcDbLine
 10
93.62389800000001
 20
-111.3593151930769
 11
94.63249800000001
 21
-111.5743151930769
  0
LINE
  5
5E
100
AcDbEntity
  8
0
  6
ByLayer
 62
  256
370
   -1
100
AcDbLine
 10
94.63249800000001
 20
-111.5743151930769
 11
95.612498
 21
-111.8913151930769
  0
LINE
  5
5F
100
AcDbEntity
  8
0
  6
ByLayer
 62
  256
370
   -1
100
AcDbLine
 10
95.612498
 20
-111.8913151930769
 11
96.24499800000001
 21
-112.1653151930769
  0
LINE
  5
60
100
AcDbEntity
  8
0
  6
ByLayer
 62
  256
370
   -1
100
AcDbLine
 10
96.24499800000001
 20
-112.1653151930769
 11
96.44329800000001
 21
-112.2793151930769
  0
LINE
  5
61
100
AcDbEntity
  8
0
  6
ByLayer
 62
  256
370
   -1
100
AcDbLine
 10
96.44329800000001
 20
-112.2793151930769
 11
132.6851646881829
 21
-133.1884920947944
  0
ARC
  5
62
100
AcDbEntity
  8
0
  6
ByLayer
 62
  256
370
   -1
100
AcDbCircle
 10
133.1848944516437
 20
-132.3223107260781
 40
1
100
AcDbArc
 50
240.0178770956076
 51
329.9314171781378
  0
LINE
  5
63
100
AcDbEntity
  8
0
  6
ByLayer
 62
  256
370
   -1
100
AcDbLine
 10
1.951298
 20
-14.74331519307687
 11
3.263711599999965
 21
-14.44436801270898
  0
ARC
  5
64
100
AcDbEntity
  8
0
  6
ByLayer
 62
  256
370
   -1
100
AcDbCircle
 10
132.7028008592377
 20
-21.93636801271009
 40
1.127729880367895
100
AcDbArc
 50
270
 51
0
  0
ARC
  5
65
100
AcDbEntity
  8
0
  6
ByLayer
 62
  256
370
   -1
100
AcDbCircle
 10
111.8947855850006
 20
-18.72933590342324
 40
1.127729880367895
100
AcDbArc
 50
162.735
 51
252.735
  0
LINE
  5
66
100
AcDbEntity
  8
0
  6
ByLayer
 62
  256
370
   -1
100
AcDbLine
 10
123.6597115999999
 20
-23.06409789307682
 11
132.7028008592377
 21
-23.06409789307798
  0
ARC
  5
67
100
AcDbEntity
  8
0
  6
ByLayer
 62
  256
370
   -1
100
AcDbCircle
 10
111.431689688765
 20
-11.80919100104037
 40
1.127729880367895
100
AcDbArc
 50
346.80243
 51
76.80243
  0
LINE
  5
68
100
AcDbEntity
  8
0
  6
ByLayer
 62
  256
370
   -1
100
AcDbLine
 10
110.8178686448321
 20
-18.3946351608895
 11
112.5296346291724
 21
-12.06666253521155
  0
LINE
  5
69
100
AcDbEntity
  8
0
  6
ByLayer
 62
  256
370
   -1
100
AcDbLine
 10
111.5449963095126
 20
-19.80365017706222
 11
123.6597115999999
 21
-23.06409789307682
  0
LWPOLYLINE
  5
6A
100
AcDbEntity
  8
0
  6
ByLayer
 62
  256
370
   -1
100
AcDbPolyline
 90
    2
 70
    0
 43
0
 10
100.0808916
 20
-7.586368012708917
 10
57.36571159999998
 20
-7.586368012708917
  0
LWPOLYLINE
  5
6B
100
AcDbEntity
  8
0
  6
ByLayer
 62
  256
370
   -1
100
AcDbPolyline
 90
    3
 70
    0
 43
0
 10
3.263711600000008
 20
-14.44436801270898
 10
57.36571159999998
 20
-7.586368012708917
 10
57.36571159999998
 20
-7.586368012708917
  0
LINE
  5
6C
100
AcDbEntity
  8
0
  6
ByLayer
 62
  256
370
   -1
100
AcDbLine
 10
220.6570540590095
 20
-70.63531519307689
 11
234.6690540590095
 21
-70.63531519307689
  0
LINE
  5
6D
100
AcDbEntity
  8
0
  6
ByLayer
 62
  256
370
   -1
100
AcDbLine
 10
234.6690540590095
 20
-70.63531519307689
 11
234.6690540590095
 21
-84.64831519307687
  0
LINE
  5
6E
100
AcDbEntity
  8
0
  6
ByLayer
 62
  256
370
   -1
100
AcDbLine
 10
234.6690540590095
 20
-84.64831519307687
 11
220.6570540590095
 21
-84.64831519307687
  0
LINE
  5
6F
100
AcDbEntity
  8
0
  6
ByLayer
 62
  256
370
   -1
100
AcDbLine
 10
220.6570540590095
 20
-84.64831519307687
 11
220.6570540590095
 21
-70.63531519307689
  0
LINE
  5
70
100
AcDbEntity
  8
0
  6
ByLayer
 62
  256
370
   -1
100
AcDbLine
 10
220.6570540590095
 20
-51.58531519307688
 11
234.6690540590095
 21
-51.58531519307688
  0
LINE
  5
71
100
AcDbEntity
  8
0
  6
ByLayer
 62
  256
370
   -1
100
AcDbLine
 10
234.6690540590095
 20
-51.58531519307688
 11
234.6690540590095
 21
-65.59831519307689
  0
LINE
  5
72
100
AcDbEntity
  8
0
  6
ByLayer
 62
  256
370
   -1
100
AcDbLine
 10
234.6690540590095
 20
-65.59831519307689
 11
220.6570540590095
 21
-65.59831519307689
  0
LINE
  5
73
100
AcDbEntity
  8
0
  6
ByLayer
 62
  256
370
   -1
100
AcDbLine
 10
220.6570540590095
 20
-65.59831519307689
 11
220.6570540590095
 21
-51.58531519307688
  0
LINE
  5
74
100
AcDbEntity
  8
0
  6
ByLayer
 62
  256
370
   -1
100
AcDbLine
 10
182.5556340590095
 20
-75.39831519307687
 11
196.5688540590095
 21
-75.39831519307687
  0
LINE
  5
75
100
AcDbEntity
  8
0
  6
ByLayer
 62
  256
370
   -1
100
AcDbLine
 10
196.5688540590095
 20
-75.39831519307687
 11
196.5688540590095
 21
-89.41131519307685
  0
LINE
  5
76
100
AcDbEntity
  8
0
  6
ByLayer
 62
  256
370
   -1
100
AcDbLine
 10
196.5688540590095
 20
-89.41131519307685
 11
182.5556340590095
 21
-89.41131519307685
  0
LINE
  5
77
100
AcDbEntity
  8
0
  6
ByLayer
 62
  256
370
   -1
100
AcDbLine
 10
182.5556340590095
 20
-89.41131519307685
 11
182.5556340590095
 21
-75.39831519307687
  0
LINE
  5
78
100
AcDbEntity
  8
0
  6
ByLayer
 62
  256
370
   -1
100
AcDbLine
 10
182.5556340590095
 20
-18.24831519307686
 11
196.5688540590095
 21
-18.24831519307686
  0
LINE
  5
79
100
AcDbEntity
  8
0
  6
ByLayer
 62
  256
370
   -1
100
AcDbLine
 10
196.5688540590095
 20
-18.24831519307686
 11
196.5688540590095
 21
-32.26131519307687
  0
LINE
  5
7A
100
AcDbEntity
  8
0
  6
ByLayer
 62
  256
370
   -1
100
AcDbLine
 10
196.5688540590095
 20
-32.26131519307687
 11
182.5556340590095
 21
-32.26131519307687
  0
LINE
  5
7B
100
AcDbEntity
  8
0
  6
ByLayer
 62
  256
370
   -1
100
AcDbLine
 10
182.5556340590095
 20
-32.26131519307687
 11
182.5556340590095
 21
-18.24831519307686
  0
LINE
  5
7C
100
AcDbEntity
  8
0
  6
ByLayer
 62
  256
370
   -1
100
AcDbLine
 10
277.8070540590095
 20
-15.87731519307688
 11
291.8191540590095
 21
-15.87731519307688
  0
LINE
  5
7D
100
AcDbEntity
  8
0
  6
ByLayer
 62
  256
370
   -1
100
AcDbLine
 10
291.8191540590095
 20
-15.87731519307688
 11
291.8191540590095
 21
-29.86831519307687
  0
LINE
  5
7E
100
AcDbEntity
  8
0
  6
ByLayer
 62
  256
370
   -1
100
AcDbLine
 10
291.8191540590095
 20
-29.86831519307687
 11
277.8070540590095
 21
-29.86831519307687
  0
LINE
  5
7F
100
AcDbEntity
  8
0
  6
ByLayer
 62
  256
370
   -1
100
AcDbLine
 10
277.8070540590095
 20
-29.86831519307687
 11
277.8070540590095
 21
-15.87731519307688
  0
LINE
  5
80
100
AcDbEntity
  8
0
  6
ByLayer
 62
  256
370
   -1
100
AcDbLine
 10
182.5556340590095
 20
-37.29831519307687
 11
196.5688540590095
 21
-37.29831519307687
  0
LINE
  5
81
100
AcDbEntity
  8
0
  6
ByLayer
 62
  256
370
   -1
100
AcDbLine
 10
196.5688540590095
 20
-37.29831519307687
 11
196.5688540590095
 21
-51.31131519307688
  0
LINE
  5
82
100
AcDbEntity
  8
0
  6
ByLayer
 62
  256
370
   -1
100
AcDbLine
 10
196.5688540590095
 20
-51.31131519307688
 11
182.5556340590095
 21
-51.31131519307688
  0
LINE
  5
83
100
AcDbEntity
  8
0
  6
ByLayer
 62
  256
370
   -1
100
AcDbLine
 10
182.5556340590095
 20
-51.31131519307688
 11
182.5556340590095
 21
-37.29831519307687
  0
LINE
  5
84
100
AcDbEntity
  8
0
  6
ByLayer
 62
  256
370
   -1
100
AcDbLine
 10
182.5556340590095
 20
-56.34831519307689
 11
196.5688540590095
 21
-56.34831519307689
  0
LINE
  5
85
100
AcDbEntity
  8
0
  6
ByLayer
 62
  256
370
   -1
100
AcDbLine
 10
196.5688540590095
 20
-56.34831519307689
 11
196.5688540590095
 21
-70.36131519307689
  0
LINE
  5
86
100
AcDbEntity
  8
0
  6
ByLayer
 62
  256
370
   -1
100
AcDbLine
 10
196.5688540590095
 20
-70.36131519307689
 11
182.5556340590095
 21
-70.36131519307689
  0
LINE
  5
87
100
AcDbEntity
  8
0
  6
ByLayer
 62
  256
370
   -1
100
AcDbLine
 10
182.5556340590095
 20
-70.36131519307689
 11
182.5556340590095
 21
-56.34831519307689
  0
LINE
  5
88
100
AcDbEntity
  8
0
  6
ByLayer
 62
  256
370
   -1
100
AcDbLine
 10
201.6070540590095
 20
-18.24831519307686
 11
215.6190540590095
 21
-18.24831519307686
  0
LINE
  5
89
100
AcDbEntity
  8
0
  6
ByLayer
 62
  256
370
   -1
100
AcDbLine
 10
215.6190540590095
 20
-18.24831519307686
 11
215.6190540590095
 21
-32.26131519307687
  0
LINE
  5
8A
100
AcDbEntity
  8
0
  6
ByLayer
 62
  256
370
   -1
100
AcDbLine
 10
215.6190540590095
 20
-32.26131519307687
 11
201.6070540590095
 21
-32.26131519307687
  0
LINE
  5
8B
100
AcDbEntity
  8
0
  6
ByLayer
 62
  256
370
   -1
100
AcDbLine
 10
201.6070540590095
 20
-32.26131519307687
 11
201.6070540590095
 21
-18.24831519307686
  0
LINE
  5
8C
100
AcDbEntity
  8
0
  6
ByLayer
 62
  256
370
   -1
100
AcDbLine
 10
201.6070540590095
 20
-37.29831519307687
 11
215.6190540590095
 21
-37.29831519307687
  0
LINE
  5
8D
100
AcDbEntity
  8
0
  6
ByLayer
 62
  256
370
   -1
100
AcDbLine
 10
215.6190540590095
 20
-37.29831519307687
 11
215.6190540590095
 21
-51.31131519307688
  0
LINE
  5
8E
100
AcDbEntity
  8
0
  6
ByLayer
 62
  256
370
   -1
100
AcDbLine
 10
215.6190540590095
 20
-51.31131519307688
 11
201.6070540590095
 21
-51.31131519307688
  0
LINE
  5
8F
100
AcDbEntity
  8
0
  6
ByLayer
 62
  256
370
   -1
100
AcDbLine
 10
201.6070540590095
 20
-51.31131519307688
 11
201.6070540590095
 21
-37.29831519307687
  0
LINE
  5
90
100
AcDbEntity
  8
0
  6
ByLayer
 62
  256
370
   -1
100
AcDbLine
 10
201.6070540590095
 20
-56.34831519307689
 11
215.6190540590095
 21
-56.34831519307689
  0
LINE
  5
91
100
AcDbEntity
  8
0
  6
ByLayer
 62
  256
370
   -1
100
AcDbLine
 10
215.6190540590095
 20
-56.34831519307689
 11
215.6190540590095
 21
-70.36131519307689
  0
LINE
  5
92
100
AcDbEntity
  8
0
  6
ByLayer
 62
  256
370
   -1
100
AcDbLine
 10
215.6190540590095
 20
-70.36131519307689
 11
201.6070540590095
 21
-70.36131519307689
  0
LINE
  5
93
100
AcDbEntity
  8
0
  6
ByLayer
 62
  256
370
   -1
100
AcDbLine
 10
201.6070540590095
 20
-70.36131519307689
 11
201.6070540590095
 21
-56.34831519307689
  0
LINE
  5
94
100
AcDbEntity
  8
0
  6
ByLayer
 62
  256
370
   -1
100
AcDbLine
 10
201.6070540590095
 20
-75.39831519307687
 11
215.6190540590095
 21
-75.39831519307687
  0
LINE
  5
95
100
AcDbEntity
  8
0
  6
ByLayer
 62
  256
370
   -1
100
AcDbLine
 10
215.6190540590095
 20
-75.39831519307687
 11
215.6190540590095
 21
-89.41131519307685
  0
LINE
  5
96
100
AcDbEntity
  8
0
  6
ByLayer
 62
  256
370
   -1
100
AcDbLine
 10
215.6190540590095
 20
-89.41131519307685
 11
201.6070540590095
 21
-89.41131519307685
  0
LINE
  5
97
100
AcDbEntity
  8
0
  6
ByLayer
 62
  256
370
   -1
100
AcDbLine
 10
201.6070540590095
 20
-89.41131519307685
 11
201.6070540590095
 21
-75.39831519307687
  0
LINE
  5
98
100
AcDbEntity
  8
0
  6
ByLayer
 62
  256
370
   -1
100
AcDbLine
 10
220.6556540590095
 20
-13.48531519307688
 11
234.6690540590095
 21
-13.48531519307688
  0
LINE
  5
99
100
AcDbEntity
  8
0
  6
ByLayer
 62
  256
370
   -1
100
AcDbLine
 10
234.6690540590095
 20
-13.48531519307688
 11
234.6690540590095
 21
-27.49831519307686
  0
LINE
  5
9A
100
AcDbEntity
  8
0
  6
ByLayer
 62
  256
370
   -1
100
AcDbLine
 10
234.6690540590095
 20
-27.49831519307686
 11
220.6556540590095
 21
-27.49831519307686
  0
LINE
  5
9B
100
AcDbEntity
  8
0
  6
ByLayer
 62
  256
370
   -1
100
AcDbLine
 10
220.6556540590095
 20
-27.49831519307686
 11
220.6556540590095
 21
-13.48531519307688
  0
LINE
  5
9C
100
AcDbEntity
  8
0
  6
ByLayer
 62
  256
370
   -1
100
AcDbLine
 10
220.6556540590095
 20
-32.53531519307687
 11
234.6690540590095
 21
-32.53531519307687
  0
LINE
  5
9D
100
AcDbEntity
  8
0
  6
ByLayer
 62
  256
370
   -1
100
AcDbLine
 10
234.6690540590095
 20
-32.53531519307687
 11
234.6690540590095
 21
-46.54831519307687
  0
LINE
  5
9E
100
AcDbEntity
  8
0
  6
ByLayer
 62
  256
370
   -1
100
AcDbLine
 10
234.6690540590095
 20
-46.54831519307687
 11
220.6556540590095
 21
-46.54831519307687
  0
LINE
  5
9F
100
AcDbEntity
  8
0
  6
ByLayer
 62
  256
370
   -1
100
AcDbLine
 10
220.6556540590095
 20
-46.54831519307687
 11
220.6556540590095
 21
-32.53531519307687
  0
LINE
  5
A0
100
AcDbEntity
  8
0
  6
ByLayer
 62
  256
370
   -1
100
AcDbLine
 10
239.7070540590095
 20
-11.11531519307688
 11
253.7190540590095
 21
-11.11531519307688
  0
LINE
  5
A1
100
AcDbEntity
  8
0
  6
ByLayer
 62
  256
370
   -1
100
AcDbLine
 10
253.7190540590095
 20
-11.11531519307688
 11
253.7190540590095
 21
-25.10631519307687
  0
LINE
  5
A2
100
AcDbEntity
  8
0
  6
ByLayer
 62
  256
370
   -1
100
AcDbLine
 10
253.7190540590095
 20
-25.10631519307687
 11
239.7070540590095
 21
-25.10631519307687
  0
LINE
  5
A3
100
AcDbEntity
  8
0
  6
ByLayer
 62
  256
370
   -1
100
AcDbLine
 10
239.7070540590095
 20
-25.10631519307687
 11
239.7070540590095
 21
-11.11531519307688
  0
LINE
  5
A4
100
AcDbEntity
  8
0
  6
ByLayer
 62
  256
370
   -1
100
AcDbLine
 10
239.7070540590095
 20
-30.16531519307686
 11
253.7190540590095
 21
-30.16531519307686
  0
LINE
  5
A5
100
AcDbEntity
  8
0
  6
ByLayer
 62
  256
370
   -1
100
AcDbLine
 10
253.7190540590095
 20
-30.16531519307686
 11
253.7190540590095
 21
-44.15631519307688
  0
LINE
  5
A6
100
AcDbEntity
  8
0
  6
ByLayer
 62
  256
370
   -1
100
AcDbLine
 10
253.7190540590095
 20
-44.15631519307688
 11
239.7070540590095
 21
-44.15631519307688
  0
LINE
  5
A7
100
AcDbEntity
  8
0
  6
ByLayer
 62
  256
370
   -1
100
AcDbLine
 10
239.7070540590095
 20
-44.15631519307688
 11
239.7070540590095
 21
-30.16531519307686
  0
LINE
  5
A8
100
AcDbEntity
  8
0
  6
ByLayer
 62
  256
370
   -1
100
AcDbLine
 10
239.7070540590095
 20
-49.21531519307688
 11
253.7190540590095
 21
-49.21531519307688
  0
LINE
  5
A9
100
AcDbEntity
  8
0
  6
ByLayer
 62
  256
370
   -1
100
AcDbLine
 10
253.7190540590095
 20
-49.21531519307688
 11
253.7190540590095
 21
-63.20631519307686
  0
LINE
  5
AA
100
AcDbEntity
  8
0
  6
ByLayer
 62
  256
370
   -1
100
AcDbLine
 10
253.7190540590095
 20
-63.20631519307686
 11
239.7070540590095
 21
-63.20631519307686
  0
LINE
  5
AB
100
AcDbEntity
  8
0
  6
ByLayer
 62
  256
370
   -1
100
AcDbLine
 10
239.7070540590095
 20
-63.20631519307686
 11
239.7070540590095
 21
-49.21531519307688
  0
LINE
  5
AC
100
AcDbEntity
  8
0
  6
ByLayer
 62
  256
370
   -1
100
AcDbLine
 10
239.7070540590095
 20
-68.26531519307689
 11
253.7190540590095
 21
-68.26531519307689
  0
LINE
  5
AD
100
AcDbEntity
  8
0
  6
ByLayer
 62
  256
370
   -1
100
AcDbLine
 10
253.7190540590095
 20
-68.26531519307689
 11
253.7190540590095
 21
-82.25631519307687
  0
LINE
  5
AE
100
AcDbEntity
  8
0
  6
ByLayer
 62
  256
370
   -1
100
AcDbLine
 10
253.7190540590095
 20
-82.25631519307687
 11
239.7070540590095
 21
-82.25631519307687
  0
LINE
  5
AF
100
AcDbEntity
  8
0
  6
ByLayer
 62
  256
370
   -1
100
AcDbLine
 10
239.7070540590095
 20
-82.25631519307687
 11
239.7070540590095
 21
-68.26531519307689
  0
LINE
  5
B0
100
AcDbEntity
  8
0
  6
ByLayer
 62
  256
370
   -1
100
AcDbLine
 10
258.7570540590095
 20
-13.48531519307688
 11
272.7690540590095
 21
-13.48531519307688
  0
LINE
  5
B1
100
AcDbEntity
  8
0
  6
ByLayer
 62
  256
370
   -1
100
AcDbLine
 10
272.7690540590095
 20
-13.48531519307688
 11
272.7690540590095
 21
-27.49831519307686
  0
LINE
  5
B2
100
AcDbEntity
  8
0
  6
ByLayer
 62
  256
370
   -1
100
AcDbLine
 10
272.7690540590095
 20
-27.49831519307686
 11
258.7570540590095
 21
-27.49831519307686
  0
LINE
  5
B3
100
AcDbEntity
  8
0
  6
ByLayer
 62
  256
370
   -1
100
AcDbLine
 10
258.7570540590095
 20
-27.49831519307686
 11
258.7570540590095
 21
-13.48531519307688
  0
LINE
  5
B4
100
AcDbEntity
  8
0
  6
ByLayer
 62
  256
370
   -1
100
AcDbLine
 10
258.7570540590095
 20
-32.53531519307687
 11
272.7690540590095
 21
-32.53531519307687
  0
LINE
  5
B5
100
AcDbEntity
  8
0
  6
ByLayer
 62
  256
370
   -1
100
AcDbLine
 10
272.7690540590095
 20
-32.53531519307687
 11
272.7690540590095
 21
-46.54831519307687
  0
LINE
  5
B6
100
AcDbEntity
  8
0
  6
ByLayer
 62
  256
370
   -1
100
AcDbLine
 10
272.7690540590095
 20
-46.54831519307687
 11
258.7570540590095
 21
-46.54831519307687
  0
LINE
  5
B7
100
AcDbEntity
  8
0
  6
ByLayer
 62
  256
370
   -1
100
AcDbLine
 10
258.7570540590095
 20
-46.54831519307687
 11
258.7570540590095
 21
-32.53531519307687
  0
LINE
  5
B8
100
AcDbEntity
  8
0
  6
ByLayer
 62
  256
370
   -1
100
AcDbLine
 10
258.7570540590095
 20
-51.58531519307688
 11
272.7690540590095
 21
-51.58531519307688
  0
LINE
  5
B9
100
AcDbEntity
  8
0
  6
ByLayer
 62
  256
370
   -1
100
AcDbLine
 10
272.7690540590095
 20
-51.58531519307688
 11
272.7690540590095
 21
-65.59831519307689
  0
LINE
  5
BA
100
AcDbEntity
  8
0
  6
ByLayer
 62
  256
370
   -1
100
AcDbLine
 10
272.7690540590095
 20
-65.59831519307689
 11
258.7570540590095
 21
-65.59831519307689
  0
LINE
  5
BB
100
AcDbEntity
  8
0
  6
ByLayer
 62
  256
370
   -1
100
AcDbLine
 10
258.7570540590095
 20
-65.59831519307689
 11
258.7570540590095
 21
-51.58531519307688
  0
LINE
  5
BC
100
AcDbEntity
  8
0
  6
ByLayer
 62
  256
370
   -1
100
AcDbLine
 10
258.7570540590095
 20
-70.63531519307689
 11
272.7690540590095
 21
-70.63531519307689
  0
LINE
  5
BD
100
AcDbEntity
  8
0
  6
ByLayer
 62
  256
370
   -1
100
AcDbLine
 10
272.7690540590095
 20
-70.63531519307689
 11
272.7690540590095
 21
-84.64831519307687
  0
LINE
  5
BE
100
AcDbEntity
  8
0
  6
ByLayer
 62
  256
370
   -1
100
AcDbLine
 10
272.7690540590095
 20
-84.64831519307687
 11
258.7570540590095
 21
-84.64831519307687
  0
LINE
  5
BF
100
AcDbEntity
  8
0
  6
ByLayer
 62
  256
370
   -1
100
AcDbLine
 10
258.7570540590095
 20
-84.64831519307687
 11
258.7570540590095
 21
-70.63531519307689
  0
LINE
  5
C0
100
AcDbEntity
  8
0
  6
ByLayer
 62
  256
370
   -1
100
AcDbLine
 10
277.8070540590095
 20
-34.92731519307686
 11
291.8191540590095
 21
-34.92731519307686
  0
LINE
  5
C1
100
AcDbEntity
  8
0
  6
ByLayer
 62
  256
370
   -1
100
AcDbLine
 10
291.8191540590095
 20
-34.92731519307686
 11
291.8191540590095
 21
-48.91831519307688
  0
LINE
  5
C2
100
AcDbEntity
  8
0
  6
ByLayer
 62
  256
370
   -1
100
AcDbLine
 10
291.8191540590095
 20
-48.91831519307688
 11
277.8070540590095
 21
-48.91831519307688
  0
LINE
  5
C3
100
AcDbEntity
  8
0
  6
ByLayer
 62
  256
370
   -1
100
AcDbLine
 10
277.8070540590095
 20
-48.91831519307688
 11
277.8070540590095
 21
-34.92731519307686
  0
LINE
  5
C4
100
AcDbEntity
  8
0
  6
ByLayer
 62
  256
370
   -1
100
AcDbLine
 10
277.8070540590095
 20
-53.97731519307688
 11
291.8191540590095
 21
-53.97731519307688
  0
LINE
  5
C5
100
AcDbEntity
  8
0
  6
ByLayer
 62
  256
370
   -1
100
AcDbLine
 10
291.8191540590095
 20
-53.97731519307688
 11
291.8191540590095
 21
-67.96831519307686
  0
LINE
  5
C6
100
AcDbEntity
  8
0
  6
ByLayer
 62
  256
370
   -1
100
AcDbLine
 10
291.8191540590095
 20
-67.96831519307686
 11
277.8070540590095
 21
-67.96831519307686
  0
LINE
  5
C7
100
AcDbEntity
  8
0
  6
ByLayer
 62
  256
370
   -1
100
AcDbLine
 10
277.8070540590095
 20
-67.96831519307686
 11
277.8070540590095
 21
-53.97731519307688
  0
LINE
  5
C8
100
AcDbEntity
  8
0
  6
ByLayer
 62
  256
370
   -1
100
AcDbLine
 10
277.8070540590095
 20
-73.02731519307689
 11
291.8191540590095
 21
-73.02731519307689
  0
LINE
  5
C9
100
AcDbEntity
  8
0
  6
ByLayer
 62
  256
370
   -1
100
AcDbLine
 10
291.8191540590095
 20
-73.02731519307689
 11
291.8191540590095
 21
-87.01831519307687
  0
LINE
  5
CA
100
AcDbEntity
  8
0
  6
ByLayer
 62
  256
370
   -1
100
AcDbLine
 10
291.8191540590095
 20
-87.01831519307687
 11
277.8070540590095
 21
-87.01831519307687
  0
LINE
  5
CB
100
AcDbEntity
  8
0
  6
ByLayer
 62
  256
370
   -1
100
AcDbLine
 10
277.8070540590095
 20
-87.01831519307687
 11
277.8070540590095
 21
-73.02731519307689
  0
LINE
  5
CC
100
AcDbEntity
  8
0
  6
ByLayer
 62
  256
370
   -1
100
AcDbLine
 10
296.8571540590095
 20
-25.40231519307689
 11
310.8691540590095
 21
-25.40231519307689
  0
LINE
  5
CD
100
AcDbEntity
  8
0
  6
ByLayer
 62
  256
370
   -1
100
AcDbLine
 10
310.8691540590095
 20
-39.39331519307687
 11
296.8571540590095
 21
-39.39331519307687
  0
LINE
  5
CE
100
AcDbEntity
  8
0
  6
ByLayer
 62
  256
370
   -1
100
AcDbLine
 10
296.8571540590095
 20
-39.39331519307687
 11
296.8571540590095
 21
-25.40231519307689
  0
LINE
  5
CF
100
AcDbEntity
  8
0
  6
ByLayer
 62
  256
370
   -1
100
AcDbLine
 10
296.8571540590095
 20
-44.45231519307687
 11
310.8691540590095
 21
-44.45231519307687
  0
LINE
  5
D0
100
AcDbEntity
  8
0
  6
ByLayer
 62
  256
370
   -1
100
AcDbLine
 10
310.8691540590095
 20
-44.45231519307687
 11
310.8691540590095
 21
-58.44331519307688
  0
LINE
  5
D1
100
AcDbEntity
  8
0
  6
ByLayer
 62
  256
370
   -1
100
AcDbLine
 10
310.8691540590095
 20
-58.44331519307688
 11
296.8571540590095
 21
-58.44331519307688
  0
LINE
  5
D2
100
AcDbEntity
  8
0
  6
ByLayer
 62
  256
370
   -1
100
AcDbLine
 10
296.8571540590095
 20
-58.44331519307688
 11
296.8571540590095
 21
-44.45231519307687
  0
LINE
  5
D3
100
AcDbEntity
  8
0
  6
ByLayer
 62
  256
370
   -1
100
AcDbLine
 10
296.8571540590095
 20
-63.50231519307688
 11
310.8691540590095
 21
-63.50231519307688
  0
LINE
  5
D4
100
AcDbEntity
  8
0
  6
ByLayer
 62
  256
370
   -1
100
AcDbLine
 10
310.8691540590095
 20
-63.50231519307688
 11
310.8691540590095
 21
-77.4933151930769
  0
LINE
  5
D5
100
AcDbEntity
  8
0
  6
ByLayer
 62
  256
370
   -1
100
AcDbLine
 10
310.8691540590095
 20
-77.4933151930769
 11
296.8571540590095
 21
-77.4933151930769
  0
LINE
  5
D6
100
AcDbEntity
  8
0
  6
ByLayer
 62
  256
370
   -1
100
AcDbLine
 10
296.8571540590095
 20
-77.4933151930769
 11
296.8571540590095
 21
-63.50231519307688
  0
LINE
  5
D7
100
AcDbEntity
  8
0
  6
ByLayer
 62
  256
370
   -1
100
AcDbLine
 10
182.5556340590095
 20
-94.44931519307686
 11
196.5688540590095
 21
-94.44931519307686
  0
LINE
  5
D8
100
AcDbEntity
  8
0
  6
ByLayer
 62
  256
370
   -1
100
AcDbLine
 10
196.5688540590095
 20
-94.44931519307686
 11
196.5688540590095
 21
-108.4613151930769
  0
LINE
  5
D9
100
AcDbEntity
  8
0
  6
ByLayer
 62
  256
370
   -1
100
AcDbLine
 10
196.5688540590095
 20
-108.4613151930769
 11
182.5556340590095
 21
-108.4613151930769
  0
LINE
  5
DA
100
AcDbEntity
  8
0
  6
ByLayer
 62
  256
370
   -1
100
AcDbLine
 10
182.5556340590095
 20
-108.4613151930769
 11
182.5556340590095
 21
-94.44931519307686
  0
LINE
  5
DB
100
AcDbEntity
  8
0
  6
ByLayer
 62
  256
370
   -1
100
AcDbLine
 10
201.6070540590095
 20
-94.44931519307686
 11
215.6190540590095
 21
-94.44931519307686
  0
LINE
  5
DC
100
AcDbEntity
  8
0
  6
ByLayer
 62
  256
370
   -1
100
AcDbLine
 10
215.6190540590095
 20
-94.44931519307686
 11
215.6190540590095
 21
-108.4613151930769
  0
LINE
  5
DD
100
AcDbEntity
  8
0
  6
ByLayer
 62
  256
370
   -1
100
AcDbLine
 10
215.6190540590095
 20
-108.4613151930769
 11
201.6070540590095
 21
-108.4613151930769
  0
LINE
  5
DE
100
AcDbEntity
  8
0
  6
ByLayer
 62
  256
370
   -1
100
AcDbLine
 10
201.6070540590095
 20
-108.4613151930769
 11
201.6070540590095
 21
-94.44931519307686
  0
LINE
  5
DF
100
AcDbEntity
  8
0
  6
ByLayer
 62
  256
370
   -1
100
AcDbLine
 10
220.6556540590095
 20
-89.68631519307677
 11
234.6690540590095
 21
-89.68631519307677
  0
LINE
  5
E0
100
AcDbEntity
  8
0
  6
ByLayer
 62
  256
370
   -1
100
AcDbLine
 10
234.6690540590095
 20
-89.68631519307677
 11
234.6690540590095
 21
-103.6983151930769
  0
LINE
  5
E1
100
AcDbEntity
  8
0
  6
ByLayer
 62
  256
370
   -1
100
AcDbLine
 10
234.6690540590095
 20
-103.6983151930769
 11
220.6556540590095
 21
-103.6983151930769
  0
LINE
  5
E2
100
AcDbEntity
  8
0
  6
ByLayer
 62
  256
370
   -1
100
AcDbLine
 10
220.6556540590095
 20
-103.6983151930769
 11
220.6556540590095
 21
-89.68631519307677
  0
LINE
  5
E3
100
AcDbEntity
  8
0
  6
ByLayer
 62
  256
370
   -1
100
AcDbLine
 10
267.3076540590095
 20
-104.0153151930769
 11
274.2930540590095
 21
-91.8873151930769
  0
LINE
  5
E4
100
AcDbEntity
  8
0
  6
ByLayer
 62
  256
370
   -1
100
AcDbLine
 10
274.2930540590095
 20
-91.8873151930769
 11
286.4211540590095
 21
-98.89331519307687
  0
LINE
  5
E5
100
AcDbEntity
  8
0
  6
ByLayer
 62
  256
370
   -1
100
AcDbLine
 10
286.4211540590095
 20
-98.89331519307687
 11
279.4150540590095
 21
-111.0213151930769
  0
LINE
  5
E6
100
AcDbEntity
  8
0
  6
ByLayer
 62
  256
370
   -1
100
AcDbLine
 10
279.4150540590095
 20
-111.0213151930769
 11
267.3076540590095
 21
-104.0153151930769
  0
LINE
  5
E7
100
AcDbEntity
  8
0
  6
ByLayer
 62
  256
370
   -1
100
AcDbLine
 10
253.7190540590095
 20
-87.3153151930769
 11
239.7056540590095
 21
-87.3153151930769
  0
LINE
  5
E8
100
AcDbEntity
  8
0
  6
ByLayer
 62
  256
370
   -1
100
AcDbLine
 10
239.7056540590095
 20
-87.3153151930769
 11
239.7056540590095
 21
-101.3063151930769
  0
LINE
  5
E9
100
AcDbEntity
  8
0
  6
ByLayer
 62
  256
370
   -1
100
AcDbLine
 10
181.7508540590095
 20
-14.74331519307687
 11
181.5524240590095
 21
-14.78731519307688
  0
LINE
  5
EA
100
AcDbEntity
  8
0
  6
ByLayer
 62
  256
370
   -1
100
AcDbLine
 10
181.5524240590095
 20
-14.78731519307688
 11
180.9929340590095
 21
-15.07131519307687
  0
LINE
  5
EB
100
AcDbEntity
  8
0
  6
ByLayer
 62
  256
370
   -1
100
AcDbLine
 10
180.9929340590095
 20
-15.07131519307687
 11
180.3714400590095
 21
-15.64031519307689
  0
LINE
  5
EC
100
AcDbEntity
  8
0
  6
ByLayer
 62
  256
370
   -1
100
AcDbLine
 10
180.3714400590095
 20
-15.64031519307689
 11
179.9525180590095
 21
-16.36931519307687
  0
LINE
  5
ED
100
AcDbEntity
  8
0
  6
ByLayer
 62
  256
370
   -1
100
AcDbLine
 10
179.9525180590095
 20
-16.36931519307687
 11
179.7995560590095
 21
-16.97831519307688
  0
LINE
  5
EE
100
AcDbEntity
  8
0
  6
ByLayer
 62
  256
370
   -1
100
AcDbLine
 10
179.7995560590095
 20
-16.97831519307688
 11
179.7995560590095
 21
-17.18231519307686
  0
LINE
  5
EF
100
AcDbEntity
  8
0
  6
ByLayer
 62
  256
370
   -1
100
AcDbLine
 10
179.7995560590095
 20
-109.2813151930768
 11
179.7995560590095
 21
-109.4743151930769
  0
LINE
  5
F0
100
AcDbEntity
  8
0
  6
ByLayer
 62
  256
370
   -1
100
AcDbLine
 10
179.7995560590095
 20
-109.4743151930769
 11
179.9566520590095
 21
-110.0573151930769
  0
LINE
  5
F1
100
AcDbEntity
  8
0
  6
ByLayer
 62
  256
370
   -1
100
AcDbLine
 10
179.9566520590095
 20
-110.0573151930769
 11
180.3865990590095
 21
-110.6923151930769
  0
LINE
  5
F2
100
AcDbEntity
  8
0
  6
ByLayer
 62
  256
370
   -1
100
AcDbLine
 10
180.3865990590095
 20
-110.6923151930769
 11
181.0218740590095
 21
-111.1223151930769
  0
LINE
  5
F3
100
AcDbEntity
  8
0
  6
ByLayer
 62
  256
370
   -1
100
AcDbLine
 10
181.0218740590095
 20
-111.1223151930769
 11
181.6047840590095
 21
-111.2803151930769
  0
LINE
  5
F4
100
AcDbEntity
  8
0
  6
ByLayer
 62
  256
370
   -1
100
AcDbLine
 10
181.6047840590095
 20
-111.2803151930769
 11
181.7990940590095
 21
-111.2803151930769
  0
LINE
  5
F5
100
AcDbEntity
  8
0
  6
ByLayer
 62
  256
370
   -1
100
AcDbLine
 10
181.7990940590095
 20
-111.2803151930769
 11
272.5111540590095
 21
-111.2803151930769
  0
LINE
  5
F6
100
AcDbEntity
  8
0
  6
ByLayer
 62
  256
370
   -1
100
AcDbLine
 10
272.5111540590095
 20
-111.2803151930769
 11
272.7386540590095
 21
-111.2803151930769
  0
LINE
  5
F7
100
AcDbEntity
  8
0
  6
ByLayer
 62
  256
370
   -1
100
AcDbLine
 10
272.7386540590095
 20
-111.2803151930769
 11
273.4234540590095
 21
-111.3593151930769
  0
LINE
  5
F8
100
AcDbEntity
  8
0
  6
ByLayer
 62
  256
370
   -1
100
AcDbLine
 10
273.4234540590095
 20
-111.3593151930769
 11
274.4320540590095
 21
-111.5743151930769
  0
LINE
  5
F9
100
AcDbEntity
  8
0
  6
ByLayer
 62
  256
370
   -1
100
AcDbLine
 10
274.4320540590095
 20
-111.5743151930769
 11
275.4120540590095
 21
-111.8913151930769
  0
LINE
  5
FA
100
AcDbEntity
  8
0
  6
ByLayer
 62
  256
370
   -1
100
AcDbLine
 10
275.4120540590095
 20
-111.8913151930769
 11
276.0445540590096
 21
-112.1653151930769
  0
LINE
  5
FB
100
AcDbEntity
  8
0
  6
ByLayer
 62
  256
370
   -1
100
AcDbLine
 10
276.0445540590096
 20
-112.1653151930769
 11
276.2428540590095
 21
-112.2793151930769
  0
ARC
  5
FC
100
AcDbEntity
  8
0
  6
ByLayer
 62
  256
370
   -1
100
AcDbCircle
 10
312.9844505106532
 20
-132.3223107260781
 40
1
100
AcDbArc
 50
240.0178770956076
 51
329.9314171781378
  0
LINE
  5
FD
100
AcDbEntity
  8
0
  6
ByLayer
 62
  256
370
   -1
100
AcDbLine
 10
310.8691540590095
 20
-25.40231519307689
 11
310.8691540590095
 21
-39.39331519307687
  0
LINE
  5
FE
100
AcDbEntity
  8
0
  6
ByLayer
 62
  256
370
   -1
100
AcDbLine
 10
181.7508540590095
 20
-14.74331519307687
 11
183.0632676590095
 21
-14.44436801270898
  0
LWPOLYLINE
  5
FF
100
AcDbEntity
  8
0
  6
ByLayer
 62
  256
370
   -1
100
AcDbPolyline
 90
    2
 70
    0
 43
0
 10
279.8804476590095
 20
-7.586368012708917
 10
237.1652676590095
 20
-7.586368012708917
  0
LWPOLYLINE
  5
100
100
AcDbEntity
  8
0
  6
ByLayer
 62
  256
370
   -1
100
AcDbPolyline
 90
    3
 70
    0
 43
0
 10
183.0632676590095
 20
-14.44436801270898
 10
237.1652676590095
 20
-7.586368012708917
 10
237.1652676590095
 20
-7.586368012708917
  0
LINE
  5
101
100
AcDbEntity
  8
0
  6
ByLayer
 62
  256
370
   -1
100
AcDbLine
 10
111.6891612229357
 20
-10.71124606063287
 11
100.0808916
 21
-7.586368012708917
  0
CIRCLE
  5
102
100
AcDbEntity
  8
0
  6
ByLayer
 62
  256
370
   -1
100
AcDbCircle
 10
136.7087075999999
 20
-57.91511709307683
 40
1.1999976
  0
CIRCLE
  5
103
100
AcDbEntity
  8
0
  6
ByLayer
 62
  256
370
   -1
100
AcDbCircle
 10
152.9646821999998
 20
-57.91504089307686
 40
1.1999976
  0
CIRCLE
  5
104
100
AcDbEntity
  8
0
  6
ByLayer
 62
  256
370
   -1
100
AcDbCircle
 10
144.0756982000001
 20
-81.29172769307688
 40
1.1999976
  0
CIRCLE
  5
105
100
AcDbEntity
  8
0
  6
ByLayer
 62
  256
370
   -1
100
AcDbCircle
 10
147.4086861999997
 20
-94.18502169307685
 40
1.1999976
  0
CIRCLE
  5
106
100
AcDbEntity
  8
0
  6
ByLayer
 62
  256
370
   -1
100
AcDbCircle
 10
108.5466861999999
 20
-92.02576769307693
 40
1.1999976
  0
CIRCLE
  5
107
100
AcDbEntity
  8
0
  6
ByLayer
 62
  256
370
   -1
100
AcDbCircle
 10
57.8736861999999
 20
-84.65976769307694
 40
1.1999976
  0
CIRCLE
  5
108
100
AcDbEntity
  8
0
  6
ByLayer
 62
  256
370
   -1
100
AcDbCircle
 10
19.26568619999983
 20
-92.27976769307695
 40
1.1999976
  0
CIRCLE
  5
109
100
AcDbEntity
  8
0
  6
ByLayer
 62
  256
370
   -1
100
AcDbCircle
 10
19.26568619999983
 20
-34.87576769307684
 40
1.1999976
  0
CIRCLE
  5
10A
100
AcDbEntity
  8
0
  6
ByLayer
 62
  256
370
   -1
100
AcDbCircle
 10
57.36543219999993
 20
-49.09976769307688
 40
1.1999976
  0
CIRCLE
  5
10B
100
AcDbEntity
  8
0
  6
ByLayer
 62
  256
370
   -1
100
AcDbCircle
 10
57.36543219999993
 20
-12.77802169307681
 40
1.1999976
  0
CIRCLE
  5
10C
100
AcDbEntity
  8
0
  6
ByLayer
 62
  256
370
   -1
100
AcDbCircle
 10
114.5154575999998
 20
-32.33584389307684
 40
1.1999976
  0
CIRCLE
  5
10D
100
AcDbEntity
  8
0
  6
ByLayer
 62
  256
370
   -1
100
AcDbCircle
 10
288.3462422590094
 20
-92.02576769307693
 40
1.1999976
  0
CIRCLE
  5
10E
100
AcDbEntity
  8
0
  6
ByLayer
 62
  256
370
   -1
100
AcDbCircle
 10
237.6732422590094
 20
-84.65976769307694
 40
1.1999976
  0
CIRCLE
  5
10F
100
AcDbEntity
  8
0
  6
ByLayer
 62
  256
370
   -1
100
AcDbCircle
 10
199.0652422590094
 20
-92.27976769307695
 40
1.1999976
  0
CIRCLE
  5
110
100
AcDbEntity
  8
0
  6
ByLayer
 62
  256
370
   -1
100
AcDbCircle
 10
199.0652422590094
 20
-34.87576769307684
 40
1.1999976
  0
CIRCLE
  5
111
100
AcDbEntity
  8
0
  6
ByLayer
 62
  256
370
   -1
100
AcDbCircle
 10
237.1649882590094
 20
-49.09976769307688
 40
1.1999976
  0
CIRCLE
  5
112
100
AcDbEntity
  8
0
  6
ByLayer
 62
  256
370
   -1
100
AcDbCircle
 10
237.1649882590094
 20
-12.77802169307681
 40
1.1999976
  0
CIRCLE
  5
113
100
AcDbEntity
  8
0
  6
ByLayer
 62
  256
370
   -1
100
AcDbCircle
 10
294.3150136590093
 20
-32.33584389307684
 40
1.1999976
  0
CIRCLE
  5
114
100
AcDbEntity
  8
0
  6
ByLayer
 62
  256
370
   -1
100
AcDbCircle
 10
174.8271710590095
 20
-25.25340469307686
 40
2.599962000000005
  0
LINE
  5
115
100
AcDbEntity
  8
0
  6
ByLayer
 62
  256
370
   -1
100
AcDbLine
 10
177.3269460590095
 20
-20.25385569307686
 11
174.8271710590095
 21
-20.25385569307686
  0
LINE
  5
116
100
AcDbEntity
  8
0
  6
ByLayer
 62
  256
370
   -1
100
AcDbLine
 10
177.3269460590095
 20
-30.25365869307687
 11
174.8271710590095
 21
-30.25365869307687
  0
ARC
  5
117
100
AcDbEntity
  8
0
  6
ByLayer
 62
  256
370
   -1
100
AcDbCircle
 10
174.8271710590095
 20
-25.25340469307686
 40
4.999549000000002
100
AcDbArc
 50
90
 51
270
  0
SPLINE
  5
118
100
AcDbEntity
  8
0
  6
ByLayer
 62
  256
370
   -1
100
AcDbSpline
210
0
220
0
230
0
 70
    8
 71
    2
 72
    6
 73
    3
 74
    0
 42
1e-007
 43
1e-007
 40
0
 40
0
 40
0
 40
1
 40
1
 40
1
 10
177.3269460590095
 20
-30.25365869307687
 30
0
 10
179.4055049582425
 20
-30.40517557492194
 30
0
 10
179.7995560590095
 20
-32.40524169307686
 30
0
  0
SPLINE
  5
119
100
AcDbEntity
  8
0
  6
ByLayer
 62
  256
370
   -1
100
AcDbSpline
210
0
220
0
230
0
 70
    8
 71
    2
 72
    6
 73
    3
 74
    0
 42
1e-007
 43
1e-007
 40
0
 40
0
 40
0
 40
1
 40
1
 40
1
 10
177.3269460590095
 20
-20.25315069307688
 30
0
 10
179.4055049582425
 20
-20.1016338112318
 30
0
 10
179.7995560590095
 20
-18.10156769307686
 30
0
  0
CIRCLE
  5
11A
100
AcDbEntity
  8
0
  6
ByLayer
 62
  256
370
   -1
100
AcDbCircle
 10
174.8271710590095
 20
-101.4567256930769
 40
2.599962000000005
  0
LINE
  5
11B
100
AcDbEntity
  8
0
  6
ByLayer
 62
  256
370
   -1
100
AcDbLine
 10
177.3269460590095
 20
-106.4562746930769
 11
174.8271710590095
 21
-106.4562746930769
  0
LINE
  5
11C
100
AcDbEntity
  8
0
  6
ByLayer
 62
  256
370
   -1
100
AcDbLine
 10
177.3269460590095
 20
-96.45647169307688
 11
174.8271710590095
 21
-96.45647169307688
  0
ARC
  5
11D
100
AcDbEntity
  8
0
  6
ByLayer
 62
  256
370
   -1
100
AcDbCircle
 10
174.8271710590095
 20
-101.4567256930769
 40
4.999549000000002
100
AcDbArc
 50
90
 51
270
  0
SPLINE
  5
11E
100
AcDbEntity
  8
0
  6
ByLayer
 62
  256
370
   -1
100
AcDbSpline
210
0
220
0
230
0
 70
    8
 71
    2
 72
    6
 73
    3
 74
    0
 42
1e-007
 43
1e-007
 40
0
 40
0
 40
0
 40
1
 40
1
 40
1
 10
177.3269460590095
 20
-96.45647169307688
 30
0
 10
179.4055049582425
 20
-96.30495481123182
 30
0
 10
179.7995560590095
 20
-94.30488869307689
 30
0
  0
SPLINE
  5
11F
100
AcDbEntity
  8
0
  6
ByLayer
 62
  256
370
   -1
100
AcDbSpline
210
0
220
0
230
0
 70
    8
 71
    2
 72
    6
 73
    3
 74
    0
 42
1e-007
 43
1e-007
 40
0
 40
0
 40
0
 40
1
 40
1
 40
1
 10
177.3269460590095
 20
-106.4569796930769
 30
0
 10
179.4055049582425
 20
-106.6084965749219
 30
0
 10
179.7995560590095
 20
-108.6085626930769
 30
0
  0
LINE
  5
120
100
AcDbEntity
  8
0
  6
ByLayer
 62
  256
370
   -1
100
AcDbLine
 10
323.8106648934277
 20
-120.6037946619377
 11
325.9739393208743
 21
-121.8564393849858
  0
LINE
  5
121
100
AcDbEntity
  8
0
  6
ByLayer
 62
  256
370
   -1
100
AcDbLine
 10
318.7997337258342
 20
-129.2575007392464
 11
320.9630081532809
 21
-130.5101454622945
  0
ARC
  5
122
100
AcDbEntity
  8
0
  6
ByLayer
 62
  256
370
   -1
100
AcDbCircle
 10
323.4686503758811
 20
-126.1829873744915
 40
4.999549000000002
100
AcDbArc
 50
239.927
 51
59.92700000000005
  0
SPLINE
  5
123
100
AcDbEntity
  8
0
  6
ByLayer
 62
  256
370
   -1
100
AcDbSpline
210
0
220
0
230
0
 70
    8
 71
    2
 72
    6
 73
    3
 74
    0
 42
1e-007
 43
1e-007
 40
0
 40
0
 40
0
 40
1
 40
1
 40
1
 10
318.7997337258342
 20
-129.2575007392464
 30
0
 10
316.925048950145
 20
-128.3470495022963
 30
0
 10
315.5818028827788
 20
-129.8804218476554
 30
0
  0
SPLINE
  5
124
100
AcDbEntity
  8
0
  6
ByLayer
 62
  256
370
   -1
100
AcDbSpline
210
0
220
0
230
0
 70
    8
 71
    2
 72
    6
 73
    3
 74
    0
 42
1e-007
 43
1e-007
 40
0
 40
0
 40
0
 40
1
 40
1
 40
1
 10
323.8110181710346
 20
-120.6031845636403
 30
0
 10
322.0881845199435
 20
-119.4304916482816
 30
0
 10
322.74941667054
 20
-117.5021989344997
 30
0
  0
CIRCLE
  5
125
100
AcDbEntity
  8
0
  6
ByLayer
 62
  256
370
   -1
100
AcDbCircle
 10
323.4686503758811
 20
-126.1829873744915
 40
2.599962000000005
  0
LINE
  5
126
100
AcDbEntity
  8
0
  6
ByLayer
 62
  256
370
   -1
100
AcDbLine
 10
315.5818028827788
 20
-129.8804218476554
 11
313.8498767961343
 21
-132.8233469966198
  0
LINE
  5
127
100
AcDbEntity
  8
0
  6
ByLayer
 62
  256
370
   -1
100
AcDbLine
 10
179.7995560590095
 20
-17.18231519307686
 11
179.7995560590095
 21
-18.10156769307686
  0
LINE
  5
128
100
AcDbEntity
  8
0
  6
ByLayer
 62
  256
370
   -1
100
AcDbLine
 10
179.7995560590095
 20
-32.40524169307686
 11
179.7995560590095
 21
-94.30488869307689
  0
LINE
  5
129
100
AcDbEntity
  8
0
  6
ByLayer
 62
  256
370
   -1
100
AcDbLine
 10
179.7995560590095
 20
-108.6085626930769
 11
179.7995560590095
 21
-109.2813151930768
  0
LINE
  5
12A
100
AcDbEntity
  8
0
  6
ByLayer
 62
  256
370
   -1
100
AcDbLine
 10
2.842170943040401e-014
 20
-16.97831519307678
 11
2.842170943040401e-014
 21
-17.18231519307676
  0
CIRCLE
  5
12B
100
AcDbEntity
  8
0
  6
ByLayer
 62
  256
370
   -1
100
AcDbCircle
 10
-4.972384999999946
 20
-25.25340469307676
 40
2.599962000000005
  0
LINE
  5
12C
100
AcDbEntity
  8
0
  6
ByLayer
 62
  256
370
   -1
100
AcDbLine
 10
-2.472609999999946
 20
-20.25385569307676
 11
-4.972384999999946
 21
-20.25385569307676
  0
LINE
  5
12D
100
AcDbEntity
  8
0
  6
ByLayer
 62
  256
370
   -1
100
AcDbLine
 10
-2.472609999999946
 20
-30.25365869307677
 11
-4.972384999999946
 21
-30.25365869307677
  0
ARC
  5
12E
100
AcDbEntity
  8
0
  6
ByLayer
 62
  256
370
   -1
100
AcDbCircle
 10
-4.972384999999946
 20
-25.25340469307676
 40
4.999549000000002
100
AcDbArc
 50
90
 51
270
  0
SPLINE
  5
12F
100
AcDbEntity
  8
0
  6
ByLayer
 62
  256
370
   -1
100
AcDbSpline
210
0
220
0
230
0
 70
    8
 71
    2
 72
    6
 73
    3
 74
    0
 42
1e-007
 43
1e-007
 40
0
 40
0
 40
0
 40
1
 40
1
 40
1
 10
-2.472609999999946
 20
-30.25365869307677
 30
0
 10
-0.3940511007669838
 20
-30.40517557492185
 30
0
 10
5.684341886080801e-014
 20
-32.40524169307676
 30
0
  0
SPLINE
  5
130
100
AcDbEntity
  8
0
  6
ByLayer
 62
  256
370
   -1
100
AcDbSpline
210
0
220
0
230
0
 70
    8
 71
    2
 72
    6
 73
    3
 74
    0
 42
1e-007
 43
1e-007
 40
0
 40
0
 40
0
 40
1
 40
1
 40
1
 10
-2.472609999999946
 20
-20.25315069307678
 30
0
 10
-0.3940511007669653
 20
-20.1016338112317
 30
0
 10
5.684341886080801e-014
 20
-18.10156769307676
 30
0
  0
CIRCLE
  5
131
100
AcDbEntity
  8
0
  6
ByLayer
 62
  256
370
   -1
100
AcDbCircle
 10
-4.972384999999946
 20
-101.4567256930768
 40
2.599962000000005
  0
LINE
  5
132
100
AcDbEntity
  8
0
  6
ByLayer
 62
  256
370
   -1
100
AcDbLine
 10
-2.472609999999946
 20
-106.4562746930768
 11
-4.972384999999946
 21
-106.4562746930768
  0
LINE
  5
133
100
AcDbEntity
  8
0
  6
ByLayer
 62
  256
370
   -1
100
AcDbLine
 10
-2.472609999999946
 20
-96.45647169307678
 11
-4.972384999999946
 21
-96.45647169307678
  0
ARC
  5
134
100
AcDbEntity
  8
0
  6
ByLayer
 62
  256
370
   -1
100
AcDbCircle
 10
-4.972384999999946
 20
-101.4567256930768
 40
4.999549000000002
100
AcDbArc
 50
90
 51
270
  0
SPLINE
  5
135
100
AcDbEntity
  8
0
  6
ByLayer
 62
  256
370
   -1
100
AcDbSpline
210
0
220
0
230
0
 70
    8
 71
    2
 72
    6
 73
    3
 74
    0
 42
1e-007
 43
1e-007
 40
0
 40
0
 40
0
 40
1
 40
1
 40
1
 10
-2.472609999999946
 20
-96.45647169307678
 30
0
 10
-0.3940511007669838
 20
-96.30495481123174
 30
0
 10
5.684341886080801e-014
 20
-94.30488869307679
 30
0
  0
SPLINE
  5
136
100
AcDbEntity
  8
0
  6
ByLayer
 62
  256
370
   -1
100
AcDbSpline
210
0
220
0
230
0
 70
    8
 71
    2
 72
    6
 73
    3
 74
    0
 42
1e-007
 43
1e-007
 40
0
 40
0
 40
0
 40
1
 40
1
 40
1
 10
-2.472609999999946
 20
-106.4569796930768
 30
0
 10
-0.3940511007669559
 20
-106.6084965749218
 30
0
 10
5.684341886080801e-014
 20
-108.6085626930768
 30
0
  0
LINE
  5
137
100
AcDbEntity
  8
0
  6
ByLayer
 62
  256
370
   -1
100
AcDbLine
 10
2.842170943040401e-014
 20
-17.18231519307676
 11
5.684341886080801e-014
 21
-18.10156769307676
  0
LINE
  5
138
100
AcDbEntity
  8
0
  6
ByLayer
 62
  256
370
   -1
100
AcDbLine
 10
5.684341886080801e-014
 20
-32.40524169307676
 11
5.684341886080801e-014
 21
-94.30488869307679
  0
LINE
  5
139
100
AcDbEntity
  8
0
  6
ByLayer
 62
  256
370
   -1
100
AcDbLine
 10
5.684341886080801e-014
 20
-108.6085626930768
 11
0
 21
-109.2813151930768
  0
LINE
  5
13A
100
AcDbEntity
  8
0
  6
ByLayer
 62
  256
370
   -1
100
AcDbLine
 10
144.0111088344182
 20
-120.6037946619376
 11
146.1743832618648
 21
-121.8564393849857
  0
LINE
  5
13B
100
AcDbEntity
  8
0
  6
ByLayer
 62
  256
370
   -1
100
AcDbLine
 10
139.0001776668248
 20
-129.2575007392463
 11
141.1634520942714
 21
-130.5101454622944
  0
ARC
  5
13C
100
AcDbEntity
  8
0
  6
ByLayer
 62
  256
370
   -1
100
AcDbCircle
 10
143.6690943168716
 20
-126.1829873744914
 40
4.999549000000002
100
AcDbArc
 50
239.927
 51
59.92700000000005
  0
SPLINE
  5
13D
100
AcDbEntity
  8
0
  6
ByLayer
 62
  256
370
   -1
100
AcDbSpline
210
0
220
0
230
0
 70
    8
 71
    2
 72
    6
 73
    3
 74
    0
 42
1e-007
 43
1e-007
 40
0
 40
0
 40
0
 40
1
 40
1
 40
1
 10
139.0001776668248
 20
-129.2575007392463
 30
0
 10
137.1254928911356
 20
-128.3470495022962
 30
0
 10
135.7822468237693
 20
-129.8804218476553
 30
0
  0
SPLINE
  5
13E
100
AcDbEntity
  8
0
  6
ByLayer
 62
  256
370
   -1
100
AcDbSpline
210
0
220
0
230
0
 70
    8
 71
    2
 72
    6
 73
    3
 74
    0
 42
1e-007
 43
1e-007
 40
0
 40
0
 40
0
 40
1
 40
1
 40
1
 10
144.0114621120251
 20
-120.6031845636402
 30
0
 10
142.2886284609339
 20
-119.4304916482815
 30
0
 10
142.9498606115305
 20
-117.5021989344996
 30
0
  0
CIRCLE
  5
13F
100
AcDbEntity
  8
0
  6
ByLayer
 62
  256
370
   -1
100
AcDbCircle
 10
143.6690943168716
 20
-126.1829873744914
 40
2.599962000000005
  0
LINE
  5
140
100
AcDbEntity
  8
0
  6
ByLayer
 62
  256
370
   -1
100
AcDbLine
 10
151.9769435509419
 20
-101.8591803182085
 11
142.9498606115305
 21
-117.5021989344996
  0
LINE
  5
141
100
AcDbEntity
  8
0
  6
ByLayer
 62
  256
370
   -1
100
AcDbLine
 10
135.7822468237693
 20
-129.8804218476553
 11
134.0503207371248
 21
-132.8233469966198
  0
LINE
  5
142
100
AcDbEntity
  8
0
  6
ByLayer
 62
  256
370
   -1
100
AcDbLine
 10
288.5679620590096
 20
-105.291411193077
 11
295.5533620590095
 21
-93.163411193077
  0
LINE
  5
143
100
AcDbEntity
  8
0
  6
ByLayer
 62
  256
370
   -1
100
AcDbLine
 10
295.5533620590095
 20
-93.163411193077
 11
307.6814620590096
 21
-100.169411193077
  0
LINE
  5
144
100
AcDbEntity
  8
0
  6
ByLayer
 62
  256
370
   -1
100
AcDbLine
 10
307.6814620590096
 20
-100.169411193077
 11
300.6753620590096
 21
-112.297411193077
  0
LINE
  5
145
100
AcDbEntity
  8
0
  6
ByLayer
 62
  256
370
   -1
100
AcDbLine
 10
300.6753620590096
 20
-112.297411193077
 11
288.5679620590096
 21
-105.291411193077
  0
LINE
  5
146
100
AcDbEntity
  8
0
  6
ByLayer
 62
  256
370
   -1
100
AcDbLine
 10
316.8139240590095
 20
-94.43950719307689
 11
328.9420240590095
 21
-101.4455071930769
  0
LINE
  5
147
100
AcDbEntity
  8
0
  6
ByLayer
 62
  256
370
   -1
100
AcDbLine
 10
321.9359240590095
 20
-113.5735071930769
 11
309.8285240590095
 21
-106.5675071930769
  0
LINE
  5
148
100
AcDbEntity
  8
0
  6
ByLayer
 62
  256
370
   -1
100
AcDbLine
 10
300.3035240590097
 20
-123.065315193077
 11
307.2889240590097
 21
-110.937315193077
  0
LINE
  5
149
100
AcDbEntity
  8
0
  6
ByLayer
 62
  256
370
   -1
100
AcDbLine
 10
307.2889240590097
 20
-110.937315193077
 11
319.4170240590097
 21
-117.943315193077
  0
LINE
  5
14A
100
AcDbEntity
  8
0
  6
ByLayer
 62
  256
370
   -1
100
AcDbLine
 10
319.4170240590097
 20
-117.943315193077
 11
312.4109240590097
 21
-130.071315193077
  0
LINE
  5
14B
100
AcDbEntity
  8
0
  6
ByLayer
 62
  256
370
   -1
100
AcDbLine
 10
312.4109240590097
 20
-130.071315193077
 11
300.3035240590097
 21
-123.065315193077
  0
LINE
  5
14C
100
AcDbEntity
  8
0
  6
ByLayer
 62
  256
370
   -1
100
AcDbLine
 10
276.2428540590095
 20
-112.2793151930769
 11
312.4847207471924
 21
-133.1884920947945
  0
LINE
  5
14D
100
AcDbEntity
  8
0
  6
ByLayer
 62
  256
370
   -1
100
AcDbLine
 10
322.74941667054
 20
-117.5021989344997
 11
338.1756689134999
 21
-90.77006933783133
  0
SPLINE
  5
14E
100
AcDbEntity
  8
0
  6
ByLayer
 62
  256
370
   -1
100
AcDbSpline
210
0
220
0
230
0
 70
    8
 71
    2
 72
    6
 73
    3
 74
    0
 42
1e-007
 43
1e-007
 40
0
 40
0
 40
0
 40
1
 40
1
 40
1
 10
338.1756689134999
 20
-90.77006933783133
 30
0
 10
338.6865157780727
 20
-89.83933687757511
 30
0
 10
338.7394968408187
 20
-88.80277226094452
 30
0
  0
LINE
  5
14F
100
AcDbEntity
  8
0
  6
ByLayer
 62
  256
370
   -1
100
AcDbLine
 10
309.8285240590095
 20
-106.5675071930769
 11
316.8139240590094
 21
-94.43950719307688
  0
LINE
  5
150
100
AcDbEntity
  8
0
  6
ByLayer
 62
  256
370
   -1
100
AcDbLine
 10
328.9420240590095
 20
-101.4455071930769
 11
321.9359240590095
 21
-113.5735071930769
  0
SPLINE
  5
151
100
AcDbEntity
  8
0
  6
ByLayer
 62
  256
370
   -1
100
AcDbSpline
210
0
220
0
230
0
 70
    8
 71
    2
 72
    6
 73
    3
 74
    0
 42
1e-007
 43
1e-007
 40
0
 40
0
 40
0
 40
1
 40
1
 40
1
 10
140.9955529069088
 20
-62.5048901860458
 30
0
 10
141.2777152590168
 20
-60.73725534637362
 30
0
 10
143.2441637799907
 20
-60.62869642500252
 30
0
  0
SPLINE
  5
152
100
AcDbEntity
  8
0
  6
ByLayer
 62
  256
370
   -1
100
AcDbSpline
210
0
220
0
230
0
 70
    8
 71
    2
 72
    6
 73
    3
 74
    0
 42
1e-007
 43
1e-007
 40
0
 40
0
 40
0
 40
1
 40
1
 40
1
 10
143.2461309958002
 20
-69.7222467222995
 30
0
 10
141.4566745807148
 20
-69.7669038368459
 30
0
 10
140.9916101100239
 20
-67.85315885301159
 30
0
  0
LINE
  5
153
100
AcDbEntity
  8
0
  6
ByLayer
 62
  256
370
   -1
100
AcDbLine
 10
140.9955529069088
 20
-62.5048901860458
 11
140.9916101100239
 21
-67.85315885301159
  0
LINE
  5
154
100
AcDbEntity
  8
0
  6
ByLayer
 62
  256
370
   -1
100
AcDbLine
 10
142.9498606115305
 20
-117.5021989344997
 11
158.3761128544904
 21
-90.77006933783133
  0
SPLINE
  5
155
100
AcDbEntity
  8
0
  6
ByLayer
 62
  256
370
   -1
100
AcDbSpline
210
0
220
0
230
0
 70
    8
 71
    2
 72
    6
 73
    3
 74
    0
 42
1e-007
 43
1e-007
 40
0
 40
0
 40
0
 40
1
 40
1
 40
1
 10
158.3761128544904
 20
-90.77006933783133
 30
0
 10
158.8869597190632
 20
-89.83933687757511
 30
0
 10
158.9399407818092
 20
-88.80277226094452
 30
0
  0
ARC
  5
156
100
AcDbEntity
  8
0
  6
ByLayer
 62
  256
370
   -1
100
AcDbCircle
 10
156.653956876305
 20
-58.34680099784111
 40
2.286
100
AcDbArc
 50
269.785
 51
359.785
  0
ARC
  5
157
100
AcDbEntity
  8
0
  6
ByLayer
 62
  256
370
   -1
100
AcDbCircle
 10
156.6559998373736
 20
-72.0103883447272
 40
2.286
100
AcDbArc
 50
359.2153
 51
89.21530000000004
  0
LINE
  5
158
100
AcDbEntity
  8
0
  6
ByLayer
 62
  256
370
   -1
100
AcDbLine
 10
143.2441637799907
 20
-60.62869642500252
 11
156.6453787776957
 21
-60.63278490334531
  0
LINE
  5
159
100
AcDbEntity
  8
0
  6
ByLayer
 62
  256
370
   -1
100
AcDbLine
 10
143.2461309958002
 20
-69.7222467222995
 11
156.6873069971331
 21
-69.72460262804822
  0
LINE
  5
15A
100
AcDbEntity
  8
0
  6
ByLayer
 62
  256
370
   -1
100
AcDbLine
 10
158.9417854488752
 20
-72.04169550448677
 11
158.9399407818092
 21
-88.80277226094452
  0
CIRCLE
  5
15B
100
AcDbEntity
  8
0
  6
ByLayer
 62
  256
370
   -1
100
AcDbCircle
 10
185.7807978280902
 20
-123.7613405723324
 40
2.599962000000005
  0
CIRCLE
  5
15C
100
AcDbEntity
  8
0
  6
ByLayer
 62
  256
370
   -1
100
AcDbCircle
 10
185.7807978280902
 20
-123.7613405723324
 40
4.999548999999996
  0
CIRCLE
  5
15D
100
AcDbEntity
  8
0
  6
ByLayer
 62
  256
370
   -1
100
AcDbCircle
 10
196.7022658566175
 20
-123.7613405723324
 40
2.599962000000005
  0
CIRCLE
  5
15E
100
AcDbEntity
  8
0
  6
ByLayer
 62
  256
370
   -1
100
AcDbCircle
 10
196.7022658566175
 20
-123.7613405723324
 40
4.999548999999996
  0
CIRCLE
  5
15F
100
AcDbEntity
  8
0
  6
ByLayer
 62
  256
370
   -1
100
AcDbCircle
 10
207.7928353236871
 20
-123.7613405723324
 40
2.599962000000005
  0
CIRCLE
  5
160
100
AcDbEntity
  8
0
  6
ByLayer
 62
  256
370
   -1
100
AcDbCircle
 10
207.7928353236871
 20
-123.7613405723324
 40
4.999548999999996
  0
CIRCLE
  5
161
100
AcDbEntity
  8
0
  6
ByLayer
 62
  256
370
   -1
100
AcDbCircle
 10
218.7974313840351
 20
-123.7613405723324
 40
2.599962000000005
  0
CIRCLE
  5
162
100
AcDbEntity
  8
0
  6
ByLayer
 62
  256
370
   -1
100
AcDbCircle
 10
218.7974313840351
 20
-123.7613405723324
 40
4.999548999999996
  0
CIRCLE
  5
163
100
AcDbEntity
  8
0
  6
ByLayer
 62
  256
370
   -1
100
AcDbCircle
 10
229.9739742578262
 20
-123.7613405723324
 40
2.599962000000005
  0
CIRCLE
  5
164
100
AcDbEntity
  8
0
  6
ByLayer
 62
  256
370
   -1
100
AcDbCircle
 10
229.9739742578262
 20
-123.7613405723324
 40
4.999548999999996
  0
CIRCLE
  5
165
100
AcDbEntity
  8
0
  6
ByLayer
 62
  256
370
   -1
100
AcDbCircle
 10
241.3979731641227
 20
-123.7613405723324
 40
2.599962000000005
  0
CIRCLE
  5
166
100
AcDbEntity
  8
0
  6
ByLayer
 62
  256
370
   -1
100
AcDbCircle
 10
241.3979731641227
 20
-123.7613405723324
 40
4.999548999999996
  0
CIRCLE
  5
167
100
AcDbEntity
  8
0
  6
ByLayer
 62
  256
370
   -1
100
AcDbCircle
 10
253.0137986444611
 20
-123.7613405723324
 40
2.599962000000005
  0
CIRCLE
  5
168
100
AcDbEntity
  8
0
  6
ByLayer
 62
  256
370
   -1
100
AcDbCircle
 10
253.0137986444611
 20
-123.7613405723324
 40
4.999548999999996
  0
CIRCLE
  5
169
100
AcDbEntity
  8
0
  6
ByLayer
 62
  256
370
   -1
100
AcDbCircle
 10
264.6296241247994
 20
-123.7613405723324
 40
2.599962000000005
  0
CIRCLE
  5
16A
100
AcDbEntity
  8
0
  6
ByLayer
 62
  256
370
   -1
100
AcDbCircle
 10
264.6296241247994
 20
-123.7613405723324
 40
4.999548999999996
  0
SPLINE
  5
16B
100
AcDbEntity
  8
0
  6
ByLayer
 62
  256
370
   -1
100
AcDbSpline
210
0
220
0
230
0
 70
    8
 71
    2
 72
    6
 73
    3
 74
    0
 42
1e-007
 43
1e-007
 40
0
 40
0
 40
0
 40
1
 40
1
 40
1
 10
334.1290531231219
 20
-89.86290542535357
 30
0
 10
334.3640250389511
 20
-89.369584923594
 30
0
 10
334.3582006945259
 20
-88.82238657697224
 30
0
  0
CIRCLE
  5
16C
100
AcDbEntity
  8
0
  6
ByLayer
 62
  256
370
   -1
100
AcDbCircle
 10
366.9198504858575
 20
-94.18502169307685
 40
1.1999976
  0
CIRCLE
  5
16D
100
AcDbEntity
  8
0
  6
ByLayer
 62
  256
370
   -1
100
AcDbCircle
 10
363.5861004858575
 20
-80.61583369307691
 40
7.999984
  0
ARC
  5
16E
100
AcDbEntity
  8
0
  6
ByLayer
 62
  256
370
   -1
100
AcDbCircle
 10
356.4641750197216
 20
-16.73216022420164
 40
2.286
100
AcDbArc
 50
90.78470000000002
 51
180.7847
  0
LINE
  5
16F
100
AcDbEntity
  8
0
  6
ByLayer
 62
  256
370
   -1
100
AcDbLine
 10
354.1783894085282
 20
-68.33936826313798
 11
354.1783894082199
 21
-16.7634673839612
  0
ARC
  5
170
100
AcDbEntity
  8
0
  6
ByLayer
 62
  256
370
   -1
100
AcDbCircle
 10
373.5650858743562
 20
-16.73216022438646
 40
2.286
100
AcDbArc
 50
359.2153
 51
89.21530000000004
  0
LINE
  5
171
100
AcDbEntity
  8
0
  6
ByLayer
 62
  256
370
   -1
100
AcDbLine
 10
373.5963930341157
 20
-14.44637461288485
 11
356.432867859962
 21
-14.44637461270003
  0
LINE
  5
172
100
AcDbEntity
  8
0
  6
ByLayer
 62
  256
370
   -1
100
AcDbLine
 10
354.1783894085282
 20
-68.33936826313798
 11
354.1783894085282
 21
-89.49047171163086
  0
SPLINE
  5
173
100
AcDbEntity
  8
0
  6
ByLayer
 62
  256
370
   -1
100
AcDbSpline
210
0
220
0
230
0
 70
    8
 71
    2
 72
    6
 73
    3
 74
    0
 42
1e-007
 43
1e-007
 40
0
 40
0
 40
0
 40
1
 40
1
 40
1
 10
354.1783894085282
 20
-89.49047171163086
 30
0
 10
354.1690672005813
 20
-90.11342464236849
 30
0
 10
355.0570894312168
 20
-90.682149610338
 30
0
  0
SPLINE
  5
174
100
AcDbEntity
  8
0
  6
ByLayer
 62
  256
370
   -1
100
AcDbSpline
210
0
220
0
230
0
 70
    8
 71
    2
 72
    6
 73
    3
 74
    0
 42
1e-007
 43
1e-007
 40
0
 40
0
 40
0
 40
1
 40
1
 40
1
 10
368.59338028517
 20
-98.50161463147046
 30
0
 10
369.8989077551434
 20
-99.19830207448851
 30
0
 10
370.6869243092822
 20
-97.92575074368395
 30
0
  0
SPLINE
  5
175
100
AcDbEntity
  8
0
  6
ByLayer
 62
  256
370
   -1
100
AcDbSpline
210
0
220
0
230
0
 70
    8
 71
    2
 72
    6
 73
    3
 74
    0
 42
1e-007
 43
1e-007
 40
0
 40
0
 40
0
 40
1
 40
1
 40
1
 10
375.5520703799231
 20
-89.50387672750763
 30
0
 10
375.8442528230331
 20
-88.93831028177111
 30
0
 10
375.8508714858579
 20
-88.2948594110116
 30
0
  0
LINE
  5
176
100
AcDbEntity
  8
0
  6
ByLayer
 62
  256
370
   -1
100
AcDbLine
 10
355.0570894312168
 20
-90.682149610338
 11
368.59338028517
 21
-98.50161463147047
  0
LINE
  5
177
100
AcDbEntity
  8
0
  6
ByLayer
 62
  256
370
   -1
100
AcDbLine
 10
375.8508714858579
 20
-88.2948594110116
 11
375.8508714858579
 21
-16.76346738414603
  0
LINE
  5
178
100
AcDbEntity
  8
0
  6
ByLayer
 62
  256
370
   -1
100
AcDbLine
 10
375.5520703799231
 20
-89.50387672750763
 11
370.6869243092822
 21
-97.92575074368395
  0
CIRCLE
  5
179
100
AcDbEntity
  8
0
  6
ByLayer
 62
  256
370
   -1
100
AcDbCircle
 10
356.2198718858577
 20
-57.91511709307683
 40
1.1999976
  0
CIRCLE
  5
17A
100
AcDbEntity
  8
0
  6
ByLayer
 62
  256
370
   -1
100
AcDbCircle
 10
372.4758464858576
 20
-57.91504089307686
 40
1.1999976
  0
CIRCLE
  5
17B
100
AcDbEntity
  8
0
  6
ByLayer
 62
  256
370
   -1
100
AcDbCircle
 10
366.9198504858575
 20
-94.18502169307685
 40
1.1999976
  0
ARC
  5
17C
100
AcDbEntity
  8
0
  6
ByLayer
 62
  256
370
   -1
100
AcDbCircle
 10
317.192204603445
 20
-72.0103883447272
 40
2.286
100
AcDbArc
 50
90.78469999999996
 51
180.7847
  0
ARC
  5
17D
100
AcDbEntity
  8
0
  6
ByLayer
 62
  256
370
   -1
100
AcDbCircle
 10
332.0779904603213
 20
-72.0103883447272
 40
2.286
100
AcDbArc
 50
359.2153
 51
89.21530000000004
  0
LINE
  5
17E
100
AcDbEntity
  8
0
  6
ByLayer
 62
  256
370
   -1
100
AcDbLine
 10
317.1608974436855
 20
-69.72460273322559
 11
332.1092976200808
 21
-69.72460273322559
  0
LINE
  5
17F
100
AcDbEntity
  8
0
  6
ByLayer
 62
  256
370
   -1
100
AcDbLine
 10
334.3637760718229
 20
-72.04169550448677
 11
334.3582006945259
 21
-88.82238657697224
  0
SPLINE
  5
180
100
AcDbEntity
  8
0
  6
ByLayer
 62
  256
370
   -1
100
AcDbSpline
210
0
220
0
230
0
 70
    8
 71
    2
 72
    6
 73
    3
 74
    0
 42
1e-007
 43
1e-007
 40
0
 40
0
 40
0
 40
1
 40
1
 40
1
 10
334.0967855801211
 20
-16.51311683150141
 30
0
 10
334.3749178514336
 20
-16.5057624782729
 30
0
 10
334.3721900302113
 20
-16.7795812355114
 30
0
  0
SPLINE
  5
181
100
AcDbEntity
  8
0
  6
ByLayer
 62
  256
370
   -1
100
AcDbSpline
210
0
220
0
230
0
 70
    8
 71
    2
 72
    6
 73
    3
 74
    0
 42
1e-007
 43
1e-007
 40
0
 40
0
 40
0
 40
1
 40
1
 40
1
 10
315.1743539542175
 20
-16.51311778745477
 30
0
 10
314.9056244460419
 20
-16.51205138529073
 30
0
 10
314.9082636590094
 20
-16.74425365655479
 30
0
  0
LINE
  5
182
100
AcDbEntity
  8
0
  6
ByLayer
 62
  256
370
   -1
100
AcDbLine
 10
315.1743539542175
 20
-16.51311778745477
 11
334.0967855801211
 21
-16.51311683150141
  0
SPLINE
  5
183
100
AcDbEntity
  8
0
  6
ByLayer
 62
  256
370
   -1
100
AcDbSpline
210
0
220
0
230
0
 70
    8
 71
    2
 72
    6
 73
    3
 74
    0
 42
1e-007
 43
1e-007
 40
0
 40
0
 40
0
 40
1
 40
1
 40
1
 10
338.7395428135304
 20
-14.86844661577555
 30
0
 10
338.7655566362954
 20
-13.14138149624157
 30
0
 10
337.2347502522671
 20
-13.16479894503679
 30
0
  0
SPLINE
  5
184
100
AcDbEntity
  8
0
  6
ByLayer
 62
  256
370
   -1
100
AcDbSpline
210
0
220
0
230
0
 70
    8
 71
    2
 72
    6
 73
    3
 74
    0
 42
1e-007
 43
1e-007
 40
0
 40
0
 40
0
 40
1
 40
1
 40
1
 10
302.2425719061863
 20
-13.16479894486088
 30
0
 10
300.6183273560849
 20
-13.19050866792047
 30
0
 10
299.0544313915466
 20
-12.75010380193038
 30
0
  0
LINE
  5
185
100
AcDbEntity
  8
0
  6
ByLayer
 62
  256
370
   -1
100
AcDbLine
 10
307.0152676590095
 20
-13.16479894486088
 11
302.2425719061863
 21
-13.16479894486088
  0
LINE
  5
186
100
AcDbEntity
  8
0
  6
ByLayer
 62
  256
370
   -1
100
AcDbLine
 10
279.8804476590095
 20
-7.586368012708917
 11
299.0544313915466
 21
-12.75010380193038
  0
CIRCLE
  5
187
100
AcDbEntity
  8
0
  6
ByLayer
 62
  256
370
   -1
100
AcDbCircle
 10
343.7118818408187
 20
-24.1193290252163
 40
2.599962000000005
  0
LINE
  5
188
100
AcDbEntity
  8
0
  6
ByLayer
 62
  256
370
   -1
100
AcDbLine
 10
341.2121068408187
 20
-19.1197800252163
 11
343.7118818408187
 21
-19.1197800252163
  0
LINE
  5
189
100
AcDbEntity
  8
0
  6
ByLayer
 62
  256
370
   -1
100
AcDbLine
 10
341.2121068408187
 20
-29.11958302521628
 11
343.7118818408187
 21
-29.11958302521628
  0
ARC
  5
18A
100
AcDbEntity
  8
0
  6
ByLayer
 62
  256
370
   -1
100
AcDbCircle
 10
343.7118818408187
 20
-24.1193290252163
 40
4.999549000000002
100
AcDbArc
 50
270
 51
90
  0
SPLINE
  5
18B
100
AcDbEntity
  8
0
  6
ByLayer
 62
  256
370
   -1
100
AcDbSpline
210
0
220
0
230
0
 70
    8
 71
    2
 72
    6
 73
    3
 74
    0
 42
1e-007
 43
1e-007
 40
0
 40
0
 40
0
 40
1
 40
1
 40
1
 10
341.2121068408187
 20
-29.11958302521628
 30
0
 10
339.1335479415857
 20
-29.27109990706139
 30
0
 10
338.7394968408187
 20
-31.2711660252163
 30
0
  0
SPLINE
  5
18C
100
AcDbEntity
  8
0
  6
ByLayer
 62
  256
370
   -1
100
AcDbSpline
210
0
220
0
230
0
 70
    8
 71
    2
 72
    6
 73
    3
 74
    0
 42
1e-007
 43
1e-007
 40
0
 40
0
 40
0
 40
1
 40
1
 40
1
 10
341.2121068408187
 20
-19.11907502521632
 30
0
 10
339.1335479415857
 20
-18.96755814337122
 30
0
 10
338.7394968408187
 20
-16.96749202521629
 30
0
  0
LINE
  5
18D
100
AcDbEntity
  8
0
  6
ByLayer
 62
  256
370
   -1
100
AcDbLine
 10
338.7394968408187
 20
-31.2711660252163
 11
338.7394968408187
 21
-88.80277226094452
  0
LINE
  5
18E
100
AcDbEntity
  8
0
  6
ByLayer
 62
  256
370
   -1
100
AcDbLine
 10
338.7394968408187
 20
-16.96749202521629
 11
338.7395428135304
 21
-14.86844661577555
  0
SPLINE
  5
18F
100
AcDbEntity
  8
0
  6
ByLayer
 62
  256
370
   -1
100
AcDbSpline
210
0
220
0
230
0
 70
    8
 71
    2
 72
    6
 73
    3
 74
    0
 42
1e-007
 43
1e-007
 40
0
 40
0
 40
0
 40
1
 40
1
 40
1
 10
158.9399867545209
 20
-14.86844661577555
 30
0
 10
158.966000577286
 20
-13.14138149624157
 30
0
 10
157.4351941932576
 20
-13.16479894503679
 30
0
  0
CIRCLE
  5
190
100
AcDbEntity
  8
0
  6
ByLayer
 62
  256
370
   -1
100
AcDbCircle
 10
163.9123257818092
 20
-24.1193290252163
 40
2.599962000000005
  0
LINE
  5
191
100
AcDbEntity
  8
0
  6
ByLayer
 62
  256
370
   -1
100
AcDbLine
 10
161.4125507818092
 20
-19.1197800252163
 11
163.9123257818092
 21
-19.1197800252163
  0
LINE
  5
192
100
AcDbEntity
  8
0
  6
ByLayer
 62
  256
370
   -1
100
AcDbLine
 10
161.4125507818092
 20
-29.11958302521628
 11
163.9123257818092
 21
-29.11958302521628
  0
ARC
  5
193
100
AcDbEntity
  8
0
  6
ByLayer
 62
  256
370
   -1
100
AcDbCircle
 10
163.9123257818092
 20
-24.1193290252163
 40
4.999549000000002
100
AcDbArc
 50
270
 51
90
  0
SPLINE
  5
194
100
AcDbEntity
  8
0
  6
ByLayer
 62
  256
370
   -1
100
AcDbSpline
210
0
220
0
230
0
 70
    8
 71
    2
 72
    6
 73
    3
 74
    0
 42
1e-007
 43
1e-007
 40
0
 40
0
 40
0
 40
1
 40
1
 40
1
 10
161.4125507818092
 20
-29.11958302521628
 30
0
 10
159.3339918825762
 20
-29.27109990706139
 30
0
 10
158.9399407818092
 20
-31.2711660252163
 30
0
  0
SPLINE
  5
195
100
AcDbEntity
  8
0
  6
ByLayer
 62
  256
370
   -1
100
AcDbSpline
210
0
220
0
230
0
 70
    8
 71
    2
 72
    6
 73
    3
 74
    0
 42
1e-007
 43
1e-007
 40
0
 40
0
 40
0
 40
1
 40
1
 40
1
 10
161.4125507818092
 20
-19.11907502521632
 30
0
 10
159.3339918825762
 20
-18.96755814337122
 30
0
 10
158.9399407818092
 20
-16.96749202521629
 30
0
  0
LINE
  5
196
100
AcDbEntity
  8
0
  6
ByLayer
 62
  256
370
   -1
100
AcDbLine
 10
158.9399407818092
 20
-16.96749202521629
 11
158.9399867545209
 21
-14.86844661577555
  0
ARC
  5
197
100
AcDbEntity
  8
0
  6
ByLayer
 62
  256
370
   -1
100
AcDbCircle
 10
134.9582606199732
 20
-14.29252882527336
 40
1.127729880367895
100
AcDbArc
 50
90
 51
180
  0
LINE
  5
198
100
AcDbEntity
  8
0
  6
ByLayer
 62
  256
370
   -1
100
AcDbLine
 10
133.8305307396053
 20
-14.29252882527336
 11
133.8305307396056
 21
-21.93636801271009
  0
LINE
  5
199
100
AcDbEntity
  8
0
  6
ByLayer
 62
  256
370
   -1
100
AcDbLine
 10
134.9582606199732
 20
-13.16479894490547
 11
157.4351941932576
 21
-13.16479894503679
  0
LINE
  5
19A
100
AcDbEntity
  8
0
  6
ByLayer
 62
  256
370
   -1
100
AcDbLine
 10
158.9399407818092
 20
-31.2711660252163
 11
158.9399407818092
 21
-58.3382228993004
  0
SPLINE
  5
19B
100
AcDbEntity
  8
0
  6
ByLayer
 62
  256
370
   -1
100
AcDbSpline
210
0
220
0
230
0
 70
    8
 71
    2
 72
    6
 73
    3
 74
    0
 42
1e-007
 43
1e-007
 40
0
 40
0
 40
0
 40
1
 40
1
 40
1
 10
314.9082636590094
 20
-89.51672413361267
 30
0
 10
314.9243259441235
 20
-89.78729232866245
 30
0
 10
315.1420515128611
 20
-89.94431346423272
 30
0
  0
LINE
  5
19C
100
AcDbEntity
  8
0
  6
ByLayer
 62
  256
370
   -1
100
AcDbLine
 10
253.7190540590095
 20
-87.3153151930769
 11
253.7190540590095
 21
-101.3063151930769
  0
LINE
  5
19D
100
AcDbEntity
  8
0
  6
ByLayer
 62
  256
370
   -1
100
AcDbLine
 10
253.7190540590095
 20
-101.3063151930769
 11
239.7070540590095
 21
-101.3063151930769
  0
LINE
  5
19E
100
AcDbEntity
  8
0
  6
ByLayer
 62
  256
370
   -1
100
AcDbLine
 10
307.0152676590095
 20
-13.16479894486088
 11
337.2347502522671
 21
-13.16479894503679
  0
LINE
  5
19F
100
AcDbEntity
  8
0
  6
ByLayer
 62
  256
370
   -1
100
AcDbLine
 10
314.9064189919434
 20
-72.04169550448675
 11
314.9082636590094
 21
-89.51672413361267
  0
SPLINE
  5
1A0
100
AcDbEntity
  8
0
  6
ByLayer
 62
  256
370
   -1
100
AcDbSpline
210
0
220
0
230
0
 70
    8
 71
    2
 72
    6
 73
    3
 74
    0
 42
1e-007
 43
1e-007
 40
0
 40
0
 40
0
 40
1
 40
1
 40
1
 10
318.0305233950751
 20
-91.61288760253893
 30
0
 10
318.657411104555
 20
-91.98558568831537
 30
0
 10
319.3780941736837
 20
-92.02629138379008
 30
0
  0
SPLINE
  5
1A1
100
AcDbEntity
  8
0
  6
ByLayer
 62
  256
370
   -1
100
AcDbSpline
210
0
220
0
230
0
 70
    8
 71
    2
 72
    6
 73
    3
 74
    0
 42
1e-007
 43
1e-007
 40
0
 40
0
 40
0
 40
1
 40
1
 40
1
 10
333.0927639271403
 20
-91.65678723818304
 30
0
 10
332.904216684452
 20
-92.02254645741621
 30
0
 10
332.496184823679
 20
-92.02629138379008
 30
0
  0
LINE
  5
1A2
100
AcDbEntity
  8
0
  6
ByLayer
 62
  256
370
   -1
100
AcDbLine
 10
319.3780941736837
 20
-92.02629138379007
 11
332.496184823679
 21
-92.02629138379008
  0
LINE
  5
1A3
100
AcDbEntity
  8
0
  6
ByLayer
 62
  256
370
   -1
100
AcDbLine
 10
315.1420515128611
 20
-89.94431346423272
 11
318.0305233950751
 21
-91.61288760253893
  0
LINE
  5
1A4
100
AcDbEntity
  8
0
  6
ByLayer
 62
  256
370
   -1
100
AcDbLine
 10
334.1290531231219
 20
-89.86290542535357
 11
333.0927639271403
 21
-91.65678723818321
  0
SPLINE
  5
1A5
100
AcDbEntity
  8
0
  6
ByLayer
 62
  256
370
   -1
100
AcDbSpline
210
0
220
0
230
0
 70
    8
 71
    2
 72
    6
 73
    3
 74
    0
 42
1e-007
 43
1e-007
 40
0
 40
0
 40
0
 40
1
 40
1
 40
1
 10
330.7647427988531
 20
-59.3441581991721
 30
0
 10
330.7593717311974
 20
-60.53932396995385
 30
0
 10
329.5590429108481
 20
-60.63278490334532
 30
0
  0
SPLINE
  5
1A6
100
AcDbEntity
  8
0
  6
ByLayer
 62
  256
370
   -1
100
AcDbSpline
210
0
220
0
230
0
 70
    8
 71
    2
 72
    6
 73
    3
 74
    0
 42
1e-007
 43
1e-007
 40
0
 40
0
 40
0
 40
1
 40
1
 40
1
 10
333.889327403902
 20
-54.33816212734176
 30
0
 10
334.3467469012894
 20
-53.78153958386237
 30
0
 10
334.3632419534991
 20
-53.04403306500744
 30
0
  0
LINE
  5
1A7
100
AcDbEntity
  8
0
  6
ByLayer
 62
  256
370
   -1
100
AcDbLine
 10
331.3338270974981
 20
-56.51721260998041
 11
333.8893274039021
 21
-54.33816212734172
  0
LINE
  5
1A8
100
AcDbEntity
  8
0
  6
ByLayer
 62
  256
370
   -1
100
AcDbLine
 10
330.7647427988531
 20
-57.95996198851017
 11
330.7647427988531
 21
-59.3441581991721
  0
SPLINE
  5
1A9
100
AcDbEntity
  8
0
  6
ByLayer
 62
  256
370
   -1
100
AcDbSpline
210
0
220
0
230
0
 70
    8
 71
    2
 72
    6
 73
    3
 74
    0
 42
1e-007
 43
1e-007
 40
0
 40
0
 40
0
 40
1
 40
1
 40
1
 10
318.5078339252213
 20
-59.34448178810855
 30
0
 10
318.513268098898
 20
-60.53964727362615
 30
0
 10
319.7136018524112
 20
-60.63304482824431
 30
0
  0
LINE
  5
1AA
100
AcDbEntity
  8
0
  6
ByLayer
 62
  256
370
   -1
100
AcDbLine
 10
317.9386003616248
 20
-56.517566251116
 11
315.3829850025916
 21
-54.33865070465896
  0
LINE
  5
1AB
100
AcDbEntity
  8
0
  6
ByLayer
 62
  256
370
   -1
100
AcDbLine
 10
318.5077608381839
 20
-57.96028557937615
 11
318.5078339252213
 21
-59.34448178810855
  0
LINE
  5
1AC
100
AcDbEntity
  8
0
  6
ByLayer
 62
  256
370
   -1
100
AcDbLine
 10
334.3721900302113
 20
-16.7795812355114
 11
334.3632419534991
 21
-53.04403306500744
  0
SPLINE
  5
1AD
100
AcDbEntity
  8
0
  6
ByLayer
 62
  256
370
   -1
100
AcDbSpline
210
0
220
0
230
0
 70
    8
 71
    2
 72
    6
 73
    3
 74
    0
 42
1e-007
 43
1e-007
 40
0
 40
0
 40
0
 40
1
 40
1
 40
1
 10
315.3829850025916
 20
-54.338650704659
 30
0
 10
314.9248699122246
 20
-53.78090129477155
 30
0
 10
314.9082636590094
 20
-53.0419527512585
 30
0
  0
LINE
  5
1AE
100
AcDbEntity
  8
0
  6
ByLayer
 62
  256
370
   -1
100
AcDbLine
 10
314.9082636590094
 20
-16.74425365655479
 11
314.9082636590094
 21
-53.0419527512585
  0
LINE
  5
1AF
100
AcDbEntity
  8
0
  6
ByLayer
 62
  256
370
   -1
100
AcDbLine
 10
319.7102905824419
 20
-60.63278490334531
 11
329.5590429108481
 21
-60.63278490334532
  0
SPLINE
  5
1B0
100
AcDbEntity
  8
0
  6
ByLayer
 62
  256
370
   -1
100
AcDbSpline
210
0
220
0
230
0
 70
    8
 71
    2
 72
    6
 73
    3
 74
    0
 42
1e-007
 43
1e-007
 40
0
 40
0
 40
0
 40
1
 40
1
 40
1
 10
331.333827097563
 20
-56.51721260991407
 30
0
 10
330.7252428308931
 20
-57.10819418168585
 30
0
 10
330.7647427988531
 20
-57.95996198851017
 30
0
  0
SPLINE
  5
1B1
100
AcDbEntity
  8
0
  6
ByLayer
 62
  256
370
   -1
100
AcDbSpline
210
0
220
0
230
0
 70
    8
 71
    2
 72
    6
 73
    3
 74
    0
 42
1e-007
 43
1e-007
 40
0
 40
0
 40
0
 40
1
 40
1
 40
1
 10
317.9355063957269
 20
-56.51721260991407
 30
0
 10
318.5440906623967
 20
-57.10819418168585
 30
0
 10
318.5045906944368
 20
-57.95996198851017
 30
0
  0
CIRCLE
  5
1B2
100
AcDbEntity
  8
0
  6
ByLayer
 62
  256
370
   -1
100
AcDbCircle
 10
316.5082636590093
 20
-57.91511709307683
 40
1.1999976
  0
CIRCLE
  5
1B3
100
AcDbEntity
  8
0
  6
ByLayer
 62
  256
370
   -1
100
AcDbCircle
 10
332.7642382590092
 20
-57.91504089307686
 40
1.1999976
  0
CIRCLE
  5
1B4
100
AcDbEntity
  8
0
  6
ByLayer
 62
  256
370
   -1
100
AcDbCircle
 10
327.2082422590092
 20
-94.18502169307685
 40
1.1999976
  0
LINE
  5
1B5
100
AcDbEntity
  8
0
  6
ByLayer
 62
  256
370
   -1
100
AcDbLine
 10
115.249598
 20
-278.4532086013346
 11
115.416598
 21
-278.5492086013346
  0
LINE
  5
1B6
100
AcDbEntity
  8
0
  6
ByLayer
 62
  256
370
   -1
100
AcDbLine
 10
1.951298
 20
-170.0672086013346
 11
1.752868
 21
-170.1112086013346
  0
LINE
  5
1B7
100
AcDbEntity
  8
0
  6
ByLayer
 62
  256
370
   -1
100
AcDbLine
 10
1.752868
 20
-170.1112086013346
 11
1.193378
 21
-170.3952086013346
  0
LINE
  5
1B8
100
AcDbEntity
  8
0
  6
ByLayer
 62
  256
370
   -1
100
AcDbLine
 10
1.193378
 20
-170.3952086013346
 11
0.5718839999999998
 21
-170.9642086013346
  0
LINE
  5
1B9
100
AcDbEntity
  8
0
  6
ByLayer
 62
  256
370
   -1
100
AcDbLine
 10
0.5718839999999998
 20
-170.9642086013346
 11
0.1529619999999996
 21
-171.6932086013346
  0
LINE
  5
1BA
100
AcDbEntity
  8
0
  6
ByLayer
 62
  256
370
   -1
100
AcDbLine
 10
0.1529619999999996
 20
-171.6932086013346
 11
0
 21
-172.3022086013346
  0
LINE
  5
1BB
100
AcDbEntity
  8
0
  6
ByLayer
 62
  256
370
   -1
100
AcDbLine
 10
0
 20
-172.3022086013346
 11
0
 21
-172.5062086013346
  0
LINE
  5
1BC
100
AcDbEntity
  8
0
  6
ByLayer
 62
  256
370
   -1
100
AcDbLine
 10
0
 20
-264.6052086013345
 11
0
 21
-264.7982086013346
  0
LINE
  5
1BD
100
AcDbEntity
  8
0
  6
ByLayer
 62
  256
370
   -1
100
AcDbLine
 10
0
 20
-264.7982086013346
 11
0.1570960000000001
 21
-265.3812086013346
  0
LINE
  5
1BE
100
AcDbEntity
  8
0
  6
ByLayer
 62
  256
370
   -1
100
AcDbLine
 10
0.1570960000000001
 20
-265.3812086013346
 11
0.5870429999999995
 21
-266.0162086013346
  0
LINE
  5
1BF
100
AcDbEntity
  8
0
  6
ByLayer
 62
  256
370
   -1
100
AcDbLine
 10
0.5870429999999995
 20
-266.0162086013346
 11
1.222318
 21
-266.4462086013347
  0
LINE
  5
1C0
100
AcDbEntity
  8
0
  6
ByLayer
 62
  256
370
   -1
100
AcDbLine
 10
1.222318
 20
-266.4462086013347
 11
1.805228
 21
-266.6042086013346
  0
LINE
  5
1C1
100
AcDbEntity
  8
0
  6
ByLayer
 62
  256
370
   -1
100
AcDbLine
 10
1.805228
 20
-266.6042086013346
 11
1.999538
 21
-266.6042086013346
  0
LINE
  5
1C2
100
AcDbEntity
  8
0
  6
ByLayer
 62
  256
370
   -1
100
AcDbLine
 10
1.999538
 20
-266.6042086013346
 11
92.71159800000001
 21
-266.6042086013346
  0
LINE
  5
1C3
100
AcDbEntity
  8
0
  6
ByLayer
 62
  256
370
   -1
100
AcDbLine
 10
92.71159800000001
 20
-266.6042086013346
 11
92.939098
 21
-266.6042086013346
  0
LINE
  5
1C4
100
AcDbEntity
  8
0
  6
ByLayer
 62
  256
370
   -1
100
AcDbLine
 10
92.939098
 20
-266.6042086013346
 11
93.62389800000001
 21
-266.6832086013346
  0
LINE
  5
1C5
100
AcDbEntity
  8
0
  6
ByLayer
 62
  256
370
   -1
100
AcDbLine
 10
93.62389800000001
 20
-266.6832086013346
 11
94.63249800000001
 21
-266.8982086013347
  0
LINE
  5
1C6
100
AcDbEntity
  8
0
  6
ByLayer
 62
  256
370
   -1
100
AcDbLine
 10
94.63249800000001
 20
-266.8982086013347
 11
95.612498
 21
-267.2152086013347
  0
LINE
  5
1C7
100
AcDbEntity
  8
0
  6
ByLayer
 62
  256
370
   -1
100
AcDbLine
 10
95.612498
 20
-267.2152086013347
 11
96.24499800000001
 21
-267.4892086013347
  0
LINE
  5
1C8
100
AcDbEntity
  8
0
  6
ByLayer
 62
  256
370
   -1
100
AcDbLine
 10
96.24499800000001
 20
-267.4892086013347
 11
96.44329800000001
 21
-267.6032086013346
  0
LINE
  5
1C9
100
AcDbEntity
  8
0
  6
ByLayer
 62
  256
370
   -1
100
AcDbLine
 10
96.44329800000001
 20
-267.6032086013346
 11
132.6851646881829
 21
-288.5123855030521
  0
ARC
  5
1CA
100
AcDbEntity
  8
0
  6
ByLayer
 62
  256
370
   -1
100
AcDbCircle
 10
133.1848944516437
 20
-287.6462041343358
 40
1
100
AcDbArc
 50
240.0178770956076
 51
329.9314171781378
  0
LINE
  5
1CB
100
AcDbEntity
  8
0
  6
ByLayer
 62
  256
370
   -1
100
AcDbLine
 10
1.951298
 20
-170.0672086013346
 11
3.263711599999965
 21
-169.7682614209667
  0
ARC
  5
1CC
100
AcDbEntity
  8
0
  6
ByLayer
 62
  256
370
   -1
100
AcDbCircle
 10
132.7028008592377
 20
-177.2602614209678
 40
1.127729880367895
100
AcDbArc
 50
270
 51
0
  0
ARC
  5
1CD
100
AcDbEntity
  8
0
  6
ByLayer
 62
  256
370
   -1
100
AcDbCircle
 10
111.8947855850006
 20
-174.053229311681
 40
1.127729880367895
100
AcDbArc
 50
162.735
 51
252.735
  0
LINE
  5
1CE
100
AcDbEntity
  8
0
  6
ByLayer
 62
  256
370
   -1
100
AcDbLine
 10
123.6597115999999
 20
-178.3879913013346
 11
132.7028008592377
 21
-178.3879913013357
  0
ARC
  5
1CF
100
AcDbEntity
  8
0
  6
ByLayer
 62
  256
370
   -1
100
AcDbCircle
 10
111.431689688765
 20
-167.1330844092981
 40
1.127729880367895
100
AcDbArc
 50
346.80243
 51
76.80243
  0
LINE
  5
1D0
100
AcDbEntity
  8
0
  6
ByLayer
 62
  256
370
   -1
100
AcDbLine
 10
110.8178686448321
 20
-173.7185285691472
 11
112.5296346291724
 21
-167.3905559434693
  0
LINE
  5
1D1
100
AcDbEntity
  8
0
  6
ByLayer
 62
  256
370
   -1
100
AcDbLine
 10
111.5449963095126
 20
-175.12754358532
 11
123.6597115999999
 21
-178.3879913013346
  0
LWPOLYLINE
  5
1D2
100
AcDbEntity
  8
0
  6
ByLayer
 62
  256
370
   -1
100
AcDbPolyline
 90
    2
 70
    0
 43
0
 10
100.0808916
 20
-162.9102614209667
 10
57.36571159999998
 20
-162.9102614209667
  0
LWPOLYLINE
  5
1D3
100
AcDbEntity
  8
0
  6
ByLayer
 62
  256
370
   -1
100
AcDbPolyline
 90
    3
 70
    0
 43
0
 10
3.263711600000008
 20
-169.7682614209667
 10
57.36571159999998
 20
-162.9102614209667
 10
57.36571159999998
 20
-162.9102614209667
  0
LINE
  5
1D4
100
AcDbEntity
  8
0
  6
ByLayer
 62
  256
370
   -1
100
AcDbLine
 10
220.6570540590095
 20
-225.9592086013346
 11
234.6690540590095
 21
-225.9592086013346
  0
LINE
  5
1D5
100
AcDbEntity
  8
0
  6
ByLayer
 62
  256
370
   -1
100
AcDbLine
 10
234.6690540590095
 20
-225.9592086013346
 11
234.6690540590095
 21
-239.9722086013346
  0
LINE
  5
1D6
100
AcDbEntity
  8
0
  6
ByLayer
 62
  256
370
   -1
100
AcDbLine
 10
234.6690540590095
 20
-239.9722086013346
 11
220.6570540590095
 21
-239.9722086013346
  0
LINE
  5
1D7
100
AcDbEntity
  8
0
  6
ByLayer
 62
  256
370
   -1
100
AcDbLine
 10
220.6570540590095
 20
-239.9722086013346
 11
220.6570540590095
 21
-225.9592086013346
  0
LINE
  5
1D8
100
AcDbEntity
  8
0
  6
ByLayer
 62
  256
370
   -1
100
AcDbLine
 10
220.6570540590095
 20
-206.9092086013346
 11
234.6690540590095
 21
-206.9092086013346
  0
LINE
  5
1D9
100
AcDbEntity
  8
0
  6
ByLayer
 62
  256
370
   -1
100
AcDbLine
 10
234.6690540590095
 20
-206.9092086013346
 11
234.6690540590095
 21
-220.9222086013346
  0
LINE
  5
1DA
100
AcDbEntity
  8
0
  6
ByLayer
 62
  256
370
   -1
100
AcDbLine
 10
234.6690540590095
 20
-220.9222086013346
 11
220.6570540590095
 21
-220.9222086013346
  0
LINE
  5
1DB
100
AcDbEntity
  8
0
  6
ByLayer
 62
  256
370
   -1
100
AcDbLine
 10
220.6570540590095
 20
-220.9222086013346
 11
220.6570540590095
 21
-206.9092086013346
  0
LINE
  5
1DC
100
AcDbEntity
  8
0
  6
ByLayer
 62
  256
370
   -1
100
AcDbLine
 10
182.5556340590095
 20
-230.7222086013346
 11
196.5688540590095
 21
-230.7222086013346
  0
LINE
  5
1DD
100
AcDbEntity
  8
0
  6
ByLayer
 62
  256
370
   -1
100
AcDbLine
 10
196.5688540590095
 20
-230.7222086013346
 11
196.5688540590095
 21
-244.7352086013346
  0
LINE
  5
1DE
100
AcDbEntity
  8
0
  6
ByLayer
 62
  256
370
   -1
100
AcDbLine
 10
196.5688540590095
 20
-244.7352086013346
 11
182.5556340590095
 21
-244.7352086013346
  0
LINE
  5
1DF
100
AcDbEntity
  8
0
  6
ByLayer
 62
  256
370
   -1
100
AcDbLine
 10
182.5556340590095
 20
-244.7352086013346
 11
182.5556340590095
 21
-230.7222086013346
  0
LINE
  5
1E0
100
AcDbEntity
  8
0
  6
ByLayer
 62
  256
370
   -1
100
AcDbLine
 10
182.5556340590095
 20
-173.5722086013346
 11
196.5688540590095
 21
-173.5722086013346
  0
LINE
  5
1E1
100
AcDbEntity
  8
0
  6
ByLayer
 62
  256
370
   -1
100
AcDbLine
 10
196.5688540590095
 20
-173.5722086013346
 11
196.5688540590095
 21
-187.5852086013346
  0
LINE
  5
1E2
100
AcDbEntity
  8
0
  6
ByLayer
 62
  256
370
   -1
100
AcDbLine
 10
196.5688540590095
 20
-187.5852086013346
 11
182.5556340590095
 21
-187.5852086013346
  0
LINE
  5
1E3
100
AcDbEntity
  8
0
  6
ByLayer
 62
  256
370
   -1
100
AcDbLine
 10
182.5556340590095
 20
-187.5852086013346
 11
182.5556340590095
 21
-173.5722086013346
  0
LINE
  5
1E4
100
AcDbEntity
  8
0
  6
ByLayer
 62
  256
370
   -1
100
AcDbLine
 10
277.8070540590095
 20
-171.2012086013346
 11
291.8191540590095
 21
-171.2012086013346
  0
LINE
  5
1E5
100
AcDbEntity
  8
0
  6
ByLayer
 62
  256
370
   -1
100
AcDbLine
 10
291.8191540590095
 20
-171.2012086013346
 11
291.8191540590095
 21
-185.1922086013346
  0
LINE
  5
1E6
100
AcDbEntity
  8
0
  6
ByLayer
 62
  256
370
   -1
100
AcDbLine
 10
291.8191540590095
 20
-185.1922086013346
 11
277.8070540590095
 21
-185.1922086013346
  0
LINE
  5
1E7
100
AcDbEntity
  8
0
  6
ByLayer
 62
  256
370
   -1
100
AcDbLine
 10
277.8070540590095
 20
-185.1922086013346
 11
277.8070540590095
 21
-171.2012086013346
  0
LINE
  5
1E8
100
AcDbEntity
  8
0
  6
ByLayer
 62
  256
370
   -1
100
AcDbLine
 10
182.5556340590095
 20
-192.6222086013346
 11
196.5688540590095
 21
-192.6222086013346
  0
LINE
  5
1E9
100
AcDbEntity
  8
0
  6
ByLayer
 62
  256
370
   -1
100
AcDbLine
 10
196.5688540590095
 20
-192.6222086013346
 11
196.5688540590095
 21
-206.6352086013346
  0
LINE
  5
1EA
100
AcDbEntity
  8
0
  6
ByLayer
 62
  256
370
   -1
100
AcDbLine
 10
196.5688540590095
 20
-206.6352086013346
 11
182.5556340590095
 21
-206.6352086013346
  0
LINE
  5
1EB
100
AcDbEntity
  8
0
  6
ByLayer
 62
  256
370
   -1
100
AcDbLine
 10
182.5556340590095
 20
-206.6352086013346
 11
182.5556340590095
 21
-192.6222086013346
  0
LINE
  5
1EC
100
AcDbEntity
  8
0
  6
ByLayer
 62
  256
370
   -1
100
AcDbLine
 10
182.5556340590095
 20
-211.6722086013346
 11
196.5688540590095
 21
-211.6722086013346
  0
LINE
  5
1ED
100
AcDbEntity
  8
0
  6
ByLayer
 62
  256
370
   -1
100
AcDbLine
 10
196.5688540590095
 20
-211.6722086013346
 11
196.5688540590095
 21
-225.6852086013346
  0
LINE
  5
1EE
100
AcDbEntity
  8
0
  6
ByLayer
 62
  256
370
   -1
100
AcDbLine
 10
196.5688540590095
 20
-225.6852086013346
 11
182.5556340590095
 21
-225.6852086013346
  0
LINE
  5
1EF
100
AcDbEntity
  8
0
  6
ByLayer
 62
  256
370
   -1
100
AcDbLine
 10
182.5556340590095
 20
-225.6852086013346
 11
182.5556340590095
 21
-211.6722086013346
  0
LINE
  5
1F0
100
AcDbEntity
  8
0
  6
ByLayer
 62
  256
370
   -1
100
AcDbLine
 10
201.6070540590095
 20
-173.5722086013346
 11
215.6190540590095
 21
-173.5722086013346
  0
LINE
  5
1F1
100
AcDbEntity
  8
0
  6
ByLayer
 62
  256
370
   -1
100
AcDbLine
 10
215.6190540590095
 20
-173.5722086013346
 11
215.6190540590095
 21
-187.5852086013346
  0
LINE
  5
1F2
100
AcDbEntity
  8
0
  6
ByLayer
 62
  256
370
   -1
100
AcDbLine
 10
215.6190540590095
 20
-187.5852086013346
 11
201.6070540590095
 21
-187.5852086013346
  0
LINE
  5
1F3
100
AcDbEntity
  8
0
  6
ByLayer
 62
  256
370
   -1
100
AcDbLine
 10
201.6070540590095
 20
-187.5852086013346
 11
201.6070540590095
 21
-173.5722086013346
  0
LINE
  5
1F4
100
AcDbEntity
  8
0
  6
ByLayer
 62
  256
370
   -1
100
AcDbLine
 10
201.6070540590095
 20
-192.6222086013346
 11
215.6190540590095
 21
-192.6222086013346
  0
LINE
  5
1F5
100
AcDbEntity
  8
0
  6
ByLayer
 62
  256
370
   -1
100
AcDbLine
 10
215.6190540590095
 20
-192.6222086013346
 11
215.6190540590095
 21
-206.6352086013346
  0
LINE
  5
1F6
100
AcDbEntity
  8
0
  6
ByLayer
 62
  256
370
   -1
100
AcDbLine
 10
215.6190540590095
 20
-206.6352086013346
 11
201.6070540590095
 21
-206.6352086013346
  0
LINE
  5
1F7
100
AcDbEntity
  8
0
  6
ByLayer
 62
  256
370
   -1
100
AcDbLine
 10
201.6070540590095
 20
-206.6352086013346
 11
201.6070540590095
 21
-192.6222086013346
  0
LINE
  5
1F8
100
AcDbEntity
  8
0
  6
ByLayer
 62
  256
370
   -1
100
AcDbLine
 10
201.6070540590095
 20
-211.6722086013346
 11
215.6190540590095
 21
-211.6722086013346
  0
LINE
  5
1F9
100
AcDbEntity
  8
0
  6
ByLayer
 62
  256
370
   -1
100
AcDbLine
 10
215.6190540590095
 20
-211.6722086013346
 11
215.6190540590095
 21
-225.6852086013346
  0
LINE
  5
1FA
100
AcDbEntity
  8
0
  6
ByLayer
 62
  256
370
   -1
100
AcDbLine
 10
215.6190540590095
 20
-225.6852086013346
 11
201.6070540590095
 21
-225.6852086013346
  0
LINE
  5
1FB
100
AcDbEntity
  8
0
  6
ByLayer
 62
  256
370
   -1
100
AcDbLine
 10
201.6070540590095
 20
-225.6852086013346
 11
201.6070540590095
 21
-211.6722086013346
  0
LINE
  5
1FC
100
AcDbEntity
  8
0
  6
ByLayer
 62
  256
370
   -1
100
AcDbLine
 10
201.6070540590095
 20
-230.7222086013346
 11
215.6190540590095
 21
-230.7222086013346
  0
LINE
  5
1FD
100
AcDbEntity
  8
0
  6
ByLayer
 62
  256
370
   -1
100
AcDbLine
 10
215.6190540590095
 20
-230.7222086013346
 11
215.6190540590095
 21
-244.7352086013346
  0
LINE
  5
1FE
100
AcDbEntity
  8
0
  6
ByLayer
 62
  256
370
   -1
100
AcDbLine
 10
215.6190540590095
 20
-244.7352086013346
 11
201.6070540590095
 21
-244.7352086013346
  0
LINE
  5
1FF
100
AcDbEntity
  8
0
  6
ByLayer
 62
  256
370
   -1
100
AcDbLine
 10
201.6070540590095
 20
-244.7352086013346
 11
201.6070540590095
 21
-230.7222086013346
  0
LINE
  5
200
100
AcDbEntity
  8
0
  6
ByLayer
 62
  256
370
   -1
100
AcDbLine
 10
220.6556540590095
 20
-168.8092086013346
 11
234.6690540590095
 21
-168.8092086013346
  0
LINE
  5
201
100
AcDbEntity
  8
0
  6
ByLayer
 62
  256
370
   -1
100
AcDbLine
 10
234.6690540590095
 20
-168.8092086013346
 11
234.6690540590095
 21
-182.8222086013346
  0
LINE
  5
202
100
AcDbEntity
  8
0
  6
ByLayer
 62
  256
370
   -1
100
AcDbLine
 10
234.6690540590095
 20
-182.8222086013346
 11
220.6556540590095
 21
-182.8222086013346
  0
LINE
  5
203
100
AcDbEntity
  8
0
  6
ByLayer
 62
  256
370
   -1
100
AcDbLine
 10
220.6556540590095
 20
-182.8222086013346
 11
220.6556540590095
 21
-168.8092086013346
  0
LINE
  5
204
100
AcDbEntity
  8
0
  6
ByLayer
 62
  256
370
   -1
100
AcDbLine
 10
220.6556540590095
 20
-187.8592086013346
 11
234.6690540590095
 21
-187.8592086013346
  0
LINE
  5
205
100
AcDbEntity
  8
0
  6
ByLayer
 62
  256
370
   -1
100
AcDbLine
 10
234.6690540590095
 20
-187.8592086013346
 11
234.6690540590095
 21
-201.8722086013346
  0
LINE
  5
206
100
AcDbEntity
  8
0
  6
ByLayer
 62
  256
370
   -1
100
AcDbLine
 10
234.6690540590095
 20
-201.8722086013346
 11
220.6556540590095
 21
-201.8722086013346
  0
LINE
  5
207
100
AcDbEntity
  8
0
  6
ByLayer
 62
  256
370
   -1
100
AcDbLine
 10
220.6556540590095
 20
-201.8722086013346
 11
220.6556540590095
 21
-187.8592086013346
  0
LINE
  5
208
100
AcDbEntity
  8
0
  6
ByLayer
 62
  256
370
   -1
100
AcDbLine
 10
239.7070540590095
 20
-166.4392086013346
 11
253.7190540590095
 21
-166.4392086013346
  0
LINE
  5
209
100
AcDbEntity
  8
0
  6
ByLayer
 62
  256
370
   -1
100
AcDbLine
 10
253.7190540590095
 20
-166.4392086013346
 11
253.7190540590095
 21
-180.4302086013346
  0
LINE
  5
20A
100
AcDbEntity
  8
0
  6
ByLayer
 62
  256
370
   -1
100
AcDbLine
 10
253.7190540590095
 20
-180.4302086013346
 11
239.7070540590095
 21
-180.4302086013346
  0
LINE
  5
20B
100
AcDbEntity
  8
0
  6
ByLayer
 62
  256
370
   -1
100
AcDbLine
 10
239.7070540590095
 20
-180.4302086013346
 11
239.7070540590095
 21
-166.4392086013346
  0
LINE
  5
20C
100
AcDbEntity
  8
0
  6
ByLayer
 62
  256
370
   -1
100
AcDbLine
 10
239.7070540590095
 20
-185.4892086013346
 11
253.7190540590095
 21
-185.4892086013346
  0
LINE
  5
20D
100
AcDbEntity
  8
0
  6
ByLayer
 62
  256
370
   -1
100
AcDbLine
 10
253.7190540590095
 20
-185.4892086013346
 11
253.7190540590095
 21
-199.4802086013346
  0
LINE
  5
20E
100
AcDbEntity
  8
0
  6
ByLayer
 62
  256
370
   -1
100
AcDbLine
 10
253.7190540590095
 20
-199.4802086013346
 11
239.7070540590095
 21
-199.4802086013346
  0
LINE
  5
20F
100
AcDbEntity
  8
0
  6
ByLayer
 62
  256
370
   -1
100
AcDbLine
 10
239.7070540590095
 20
-199.4802086013346
 11
239.7070540590095
 21
-185.4892086013346
  0
LINE
  5
210
100
AcDbEntity
  8
0
  6
ByLayer
 62
  256
370
   -1
100
AcDbLine
 10
239.7070540590095
 20
-204.5392086013346
 11
253.7190540590095
 21
-204.5392086013346
  0
LINE
  5
211
100
AcDbEntity
  8
0
  6
ByLayer
 62
  256
370
   -1
100
AcDbLine
 10
253.7190540590095
 20
-204.5392086013346
 11
253.7190540590095
 21
-218.5302086013346
  0
LINE
  5
212
100
AcDbEntity
  8
0
  6
ByLayer
 62
  256
370
   -1
100
AcDbLine
 10
253.7190540590095
 20
-218.5302086013346
 11
239.7070540590095
 21
-218.5302086013346
  0
LINE
  5
213
100
AcDbEntity
  8
0
  6
ByLayer
 62
  256
370
   -1
100
AcDbLine
 10
239.7070540590095
 20
-218.5302086013346
 11
239.7070540590095
 21
-204.5392086013346
  0
LINE
  5
214
100
AcDbEntity
  8
0
  6
ByLayer
 62
  256
370
   -1
100
AcDbLine
 10
239.7070540590095
 20
-223.5892086013346
 11
253.7190540590095
 21
-223.5892086013346
  0
LINE
  5
215
100
AcDbEntity
  8
0
  6
ByLayer
 62
  256
370
   -1
100
AcDbLine
 10
253.7190540590095
 20
-223.5892086013346
 11
253.7190540590095
 21
-237.5802086013346
  0
LINE
  5
216
100
AcDbEntity
  8
0
  6
ByLayer
 62
  256
370
   -1
100
AcDbLine
 10
253.7190540590095
 20
-237.5802086013346
 11
239.7070540590095
 21
-237.5802086013346
  0
LINE
  5
217
100
AcDbEntity
  8
0
  6
ByLayer
 62
  256
370
   -1
100
AcDbLine
 10
239.7070540590095
 20
-237.5802086013346
 11
239.7070540590095
 21
-223.5892086013346
  0
LINE
  5
218
100
AcDbEntity
  8
0
  6
ByLayer
 62
  256
370
   -1
100
AcDbLine
 10
258.7570540590095
 20
-168.8092086013346
 11
272.7690540590095
 21
-168.8092086013346
  0
LINE
  5
219
100
AcDbEntity
  8
0
  6
ByLayer
 62
  256
370
   -1
100
AcDbLine
 10
272.7690540590095
 20
-168.8092086013346
 11
272.7690540590095
 21
-182.8222086013346
  0
LINE
  5
21A
100
AcDbEntity
  8
0
  6
ByLayer
 62
  256
370
   -1
100
AcDbLine
 10
272.7690540590095
 20
-182.8222086013346
 11
258.7570540590095
 21
-182.8222086013346
  0
LINE
  5
21B
100
AcDbEntity
  8
0
  6
ByLayer
 62
  256
370
   -1
100
AcDbLine
 10
258.7570540590095
 20
-182.8222086013346
 11
258.7570540590095
 21
-168.8092086013346
  0
LINE
  5
21C
100
AcDbEntity
  8
0
  6
ByLayer
 62
  256
370
   -1
100
AcDbLine
 10
258.7570540590095
 20
-187.8592086013346
 11
272.7690540590095
 21
-187.8592086013346
  0
LINE
  5
21D
100
AcDbEntity
  8
0
  6
ByLayer
 62
  256
370
   -1
100
AcDbLine
 10
272.7690540590095
 20
-187.8592086013346
 11
272.7690540590095
 21
-201.8722086013346
  0
LINE
  5
21E
100
AcDbEntity
  8
0
  6
ByLayer
 62
  256
370
   -1
100
AcDbLine
 10
272.7690540590095
 20
-201.8722086013346
 11
258.7570540590095
 21
-201.8722086013346
  0
LINE
  5
21F
100
AcDbEntity
  8
0
  6
ByLayer
 62
  256
370
   -1
100
AcDbLine
 10
258.7570540590095
 20
-201.8722086013346
 11
258.7570540590095
 21
-187.8592086013346
  0
LINE
  5
220
100
AcDbEntity
  8
0
  6
ByLayer
 62
  256
370
   -1
100
AcDbLine
 10
258.7570540590095
 20
-206.9092086013346
 11
272.7690540590095
 21
-206.9092086013346
  0
LINE
  5
221
100
AcDbEntity
  8
0
  6
ByLayer
 62
  256
370
   -1
100
AcDbLine
 10
272.7690540590095
 20
-206.9092086013346
 11
272.7690540590095
 21
-220.9222086013346
  0
LINE
  5
222
100
AcDbEntity
  8
0
  6
ByLayer
 62
  256
370
   -1
100
AcDbLine
 10
272.7690540590095
 20
-220.9222086013346
 11
258.7570540590095
 21
-220.9222086013346
  0
LINE
  5
223
100
AcDbEntity
  8
0
  6
ByLayer
 62
  256
370
   -1
100
AcDbLine
 10
258.7570540590095
 20
-220.9222086013346
 11
258.7570540590095
 21
-206.9092086013346
  0
LINE
  5
224
100
AcDbEntity
  8
0
  6
ByLayer
 62
  256
370
   -1
100
AcDbLine
 10
258.7570540590095
 20
-225.9592086013346
 11
272.7690540590095
 21
-225.9592086013346
  0
LINE
  5
225
100
AcDbEntity
  8
0
  6
ByLayer
 62
  256
370
   -1
100
AcDbLine
 10
272.7690540590095
 20
-225.9592086013346
 11
272.7690540590095
 21
-239.9722086013346
  0
LINE
  5
226
100
AcDbEntity
  8
0
  6
ByLayer
 62
  256
370
   -1
100
AcDbLine
 10
272.7690540590095
 20
-239.9722086013346
 11
258.7570540590095
 21
-239.9722086013346
  0
LINE
  5
227
100
AcDbEntity
  8
0
  6
ByLayer
 62
  256
370
   -1
100
AcDbLine
 10
258.7570540590095
 20
-239.9722086013346
 11
258.7570540590095
 21
-225.9592086013346
  0
LINE
  5
228
100
AcDbEntity
  8
0
  6
ByLayer
 62
  256
370
   -1
100
AcDbLine
 10
277.8070540590095
 20
-190.2512086013346
 11
291.8191540590095
 21
-190.2512086013346
  0
LINE
  5
229
100
AcDbEntity
  8
0
  6
ByLayer
 62
  256
370
   -1
100
AcDbLine
 10
291.8191540590095
 20
-190.2512086013346
 11
291.8191540590095
 21
-204.2422086013346
  0
LINE
  5
22A
100
AcDbEntity
  8
0
  6
ByLayer
 62
  256
370
   -1
100
AcDbLine
 10
291.8191540590095
 20
-204.2422086013346
 11
277.8070540590095
 21
-204.2422086013346
  0
LINE
  5
22B
100
AcDbEntity
  8
0
  6
ByLayer
 62
  256
370
   -1
100
AcDbLine
 10
277.8070540590095
 20
-204.2422086013346
 11
277.8070540590095
 21
-190.2512086013346
  0
LINE
  5
22C
100
AcDbEntity
  8
0
  6
ByLayer
 62
  256
370
   -1
100
AcDbLine
 10
277.8070540590095
 20
-209.3012086013346
 11
291.8191540590095
 21
-209.3012086013346
  0
LINE
  5
22D
100
AcDbEntity
  8
0
  6
ByLayer
 62
  256
370
   -1
100
AcDbLine
 10
291.8191540590095
 20
-209.3012086013346
 11
291.8191540590095
 21
-223.2922086013346
  0
LINE
  5
22E
100
AcDbEntity
  8
0
  6
ByLayer
 62
  256
370
   -1
100
AcDbLine
 10
291.8191540590095
 20
-223.2922086013346
 11
277.8070540590095
 21
-223.2922086013346
  0
LINE
  5
22F
100
AcDbEntity
  8
0
  6
ByLayer
 62
  256
370
   -1
100
AcDbLine
 10
277.8070540590095
 20
-223.2922086013346
 11
277.8070540590095
 21
-209.3012086013346
  0
LINE
  5
230
100
AcDbEntity
  8
0
  6
ByLayer
 62
  256
370
   -1
100
AcDbLine
 10
277.8070540590095
 20
-228.3512086013346
 11
291.8191540590095
 21
-228.3512086013346
  0
LINE
  5
231
100
AcDbEntity
  8
0
  6
ByLayer
 62
  256
370
   -1
100
AcDbLine
 10
291.8191540590095
 20
-228.3512086013346
 11
291.8191540590095
 21
-242.3422086013346
  0
LINE
  5
232
100
AcDbEntity
  8
0
  6
ByLayer
 62
  256
370
   -1
100
AcDbLine
 10
291.8191540590095
 20
-242.3422086013346
 11
277.8070540590095
 21
-242.3422086013346
  0
LINE
  5
233
100
AcDbEntity
  8
0
  6
ByLayer
 62
  256
370
   -1
100
AcDbLine
 10
277.8070540590095
 20
-242.3422086013346
 11
277.8070540590095
 21
-228.3512086013346
  0
LINE
  5
234
100
AcDbEntity
  8
0
  6
ByLayer
 62
  256
370
   -1
100
AcDbLine
 10
296.8571540590095
 20
-180.7262086013346
 11
310.8691540590095
 21
-180.7262086013346
  0
LINE
  5
235
100
AcDbEntity
  8
0
  6
ByLayer
 62
  256
370
   -1
100
AcDbLine
 10
310.8691540590095
 20
-194.7172086013346
 11
296.8571540590095
 21
-194.7172086013346
  0
LINE
  5
236
100
AcDbEntity
  8
0
  6
ByLayer
 62
  256
370
   -1
100
AcDbLine
 10
296.8571540590095
 20
-194.7172086013346
 11
296.8571540590095
 21
-180.7262086013346
  0
LINE
  5
237
100
AcDbEntity
  8
0
  6
ByLayer
 62
  256
370
   -1
100
AcDbLine
 10
296.8571540590095
 20
-199.7762086013346
 11
310.8691540590095
 21
-199.7762086013346
  0
LINE
  5
238
100
AcDbEntity
  8
0
  6
ByLayer
 62
  256
370
   -1
100
AcDbLine
 10
310.8691540590095
 20
-199.7762086013346
 11
310.8691540590095
 21
-213.7672086013346
  0
LINE
  5
239
100
AcDbEntity
  8
0
  6
ByLayer
 62
  256
370
   -1
100
AcDbLine
 10
310.8691540590095
 20
-213.7672086013346
 11
296.8571540590095
 21
-213.7672086013346
  0
LINE
  5
23A
100
AcDbEntity
  8
0
  6
ByLayer
 62
  256
370
   -1
100
AcDbLine
 10
296.8571540590095
 20
-213.7672086013346
 11
296.8571540590095
 21
-199.7762086013346
  0
LINE
  5
23B
100
AcDbEntity
  8
0
  6
ByLayer
 62
  256
370
   -1
100
AcDbLine
 10
296.8571540590095
 20
-218.8262086013346
 11
310.8691540590095
 21
-218.8262086013346
  0
LINE
  5
23C
100
AcDbEntity
  8
0
  6
ByLayer
 62
  256
370
   -1
100
AcDbLine
 10
310.8691540590095
 20
-218.8262086013346
 11
310.8691540590095
 21
-232.8172086013346
  0
LINE
  5
23D
100
AcDbEntity
  8
0
  6
ByLayer
 62
  256
370
   -1
100
AcDbLine
 10
310.8691540590095
 20
-232.8172086013346
 11
296.8571540590095
 21
-232.8172086013346
  0
LINE
  5
23E
100
AcDbEntity
  8
0
  6
ByLayer
 62
  256
370
   -1
100
AcDbLine
 10
296.8571540590095
 20
-232.8172086013346
 11
296.8571540590095
 21
-218.8262086013346
  0
LINE
  5
23F
100
AcDbEntity
  8
0
  6
ByLayer
 62
  256
370
   -1
100
AcDbLine
 10
182.5556340590095
 20
-249.7732086013346
 11
196.5688540590095
 21
-249.7732086013346
  0
LINE
  5
240
100
AcDbEntity
  8
0
  6
ByLayer
 62
  256
370
   -1
100
AcDbLine
 10
196.5688540590095
 20
-249.7732086013346
 11
196.5688540590095
 21
-263.7852086013346
  0
LINE
  5
241
100
AcDbEntity
  8
0
  6
ByLayer
 62
  256
370
   -1
100
AcDbLine
 10
196.5688540590095
 20
-263.7852086013346
 11
182.5556340590095
 21
-263.7852086013346
  0
LINE
  5
242
100
AcDbEntity
  8
0
  6
ByLayer
 62
  256
370
   -1
100
AcDbLine
 10
182.5556340590095
 20
-263.7852086013346
 11
182.5556340590095
 21
-249.7732086013346
  0
LINE
  5
243
100
AcDbEntity
  8
0
  6
ByLayer
 62
  256
370
   -1
100
AcDbLine
 10
201.6070540590095
 20
-249.7732086013346
 11
215.6190540590095
 21
-249.7732086013346
  0
LINE
  5
244
100
AcDbEntity
  8
0
  6
ByLayer
 62
  256
370
   -1
100
AcDbLine
 10
215.6190540590095
 20
-249.7732086013346
 11
215.6190540590095
 21
-263.7852086013346
  0
LINE
  5
245
100
AcDbEntity
  8
0
  6
ByLayer
 62
  256
370
   -1
100
AcDbLine
 10
215.6190540590095
 20
-263.7852086013346
 11
201.6070540590095
 21
-263.7852086013346
  0
LINE
  5
246
100
AcDbEntity
  8
0
  6
ByLayer
 62
  256
370
   -1
100
AcDbLine
 10
201.6070540590095
 20
-263.7852086013346
 11
201.6070540590095
 21
-249.7732086013346
  0
LINE
  5
247
100
AcDbEntity
  8
0
  6
ByLayer
 62
  256
370
   -1
100
AcDbLine
 10
220.6556540590095
 20
-245.0102086013345
 11
234.6690540590095
 21
-245.0102086013345
  0
LINE
  5
248
100
AcDbEntity
  8
0
  6
ByLayer
 62
  256
370
   -1
100
AcDbLine
 10
234.6690540590095
 20
-245.0102086013345
 11
234.6690540590095
 21
-259.0222086013346
  0
LINE
  5
249
100
AcDbEntity
  8
0
  6
ByLayer
 62
  256
370
   -1
100
AcDbLine
 10
234.6690540590095
 20
-259.0222086013346
 11
220.6556540590095
 21
-259.0222086013346
  0
LINE
  5
24A
100
AcDbEntity
  8
0
  6
ByLayer
 62
  256
370
   -1
100
AcDbLine
 10
220.6556540590095
 20
-259.0222086013346
 11
220.6556540590095
 21
-245.0102086013345
  0
LINE
  5
24B
100
AcDbEntity
  8
0
  6
ByLayer
 62
  256
370
   -1
100
AcDbLine
 10
267.3076540590096
 20
-259.3392086013346
 11
274.2930540590095
 21
-247.2112086013346
  0
LINE
  5
24C
100
AcDbEntity
  8
0
  6
ByLayer
 62
  256
370
   -1
100
AcDbLine
 10
274.2930540590095
 20
-247.2112086013346
 11
286.4211540590095
 21
-254.2172086013346
  0
LINE
  5
24D
100
AcDbEntity
  8
0
  6
ByLayer
 62
  256
370
   -1
100
AcDbLine
 10
286.4211540590095
 20
-254.2172086013346
 11
279.4150540590095
 21
-266.3452086013347
  0
LINE
  5
24E
100
AcDbEntity
  8
0
  6
ByLayer
 62
  256
370
   -1
100
AcDbLine
 10
279.4150540590095
 20
-266.3452086013347
 11
267.3076540590096
 21
-259.3392086013346
  0
LINE
  5
24F
100
AcDbEntity
  8
0
  6
ByLayer
 62
  256
370
   -1
100
AcDbLine
 10
253.7190540590095
 20
-242.6392086013346
 11
239.7056540590095
 21
-242.6392086013346
  0
LINE
  5
250
100
AcDbEntity
  8
0
  6
ByLayer
 62
  256
370
   -1
100
AcDbLine
 10
239.7056540590095
 20
-242.6392086013346
 11
239.7056540590095
 21
-256.6302086013346
  0
LINE
  5
251
100
AcDbEntity
  8
0
  6
ByLayer
 62
  256
370
   -1
100
AcDbLine
 10
181.7508540590095
 20
-170.0672086013346
 11
181.5524240590095
 21
-170.1112086013346
  0
LINE
  5
252
100
AcDbEntity
  8
0
  6
ByLayer
 62
  256
370
   -1
100
AcDbLine
 10
181.5524240590095
 20
-170.1112086013346
 11
180.9929340590095
 21
-170.3952086013346
  0
LINE
  5
253
100
AcDbEntity
  8
0
  6
ByLayer
 62
  256
370
   -1
100
AcDbLine
 10
180.9929340590095
 20
-170.3952086013346
 11
180.3714400590095
 21
-170.9642086013346
  0
LINE
  5
254
100
AcDbEntity
  8
0
  6
ByLayer
 62
  256
370
   -1
100
AcDbLine
 10
180.3714400590095
 20
-170.9642086013346
 11
179.9525180590095
 21
-171.6932086013346
  0
LINE
  5
255
100
AcDbEntity
  8
0
  6
ByLayer
 62
  256
370
   -1
100
AcDbLine
 10
179.9525180590095
 20
-171.6932086013346
 11
179.7995560590095
 21
-172.3022086013346
  0
LINE
  5
256
100
AcDbEntity
  8
0
  6
ByLayer
 62
  256
370
   -1
100
AcDbLine
 10
179.7995560590095
 20
-172.3022086013346
 11
179.7995560590095
 21
-172.5062086013346
  0
LINE
  5
257
100
AcDbEntity
  8
0
  6
ByLayer
 62
  256
370
   -1
100
AcDbLine
 10
179.7995560590095
 20
-264.6052086013345
 11
179.7995560590095
 21
-264.7982086013346
  0
LINE
  5
258
100
AcDbEntity
  8
0
  6
ByLayer
 62
  256
370
   -1
100
AcDbLine
 10
179.7995560590095
 20
-264.7982086013346
 11
179.9566520590095
 21
-265.3812086013346
  0
LINE
  5
259
100
AcDbEntity
  8
0
  6
ByLayer
 62
  256
370
   -1
100
AcDbLine
 10
179.9566520590095
 20
-265.3812086013346
 11
180.3865990590095
 21
-266.0162086013346
  0
LINE
  5
25A
100
AcDbEntity
  8
0
  6
ByLayer
 62
  256
370
   -1
100
AcDbLine
 10
180.3865990590095
 20
-266.0162086013346
 11
181.0218740590095
 21
-266.4462086013347
  0
LINE
  5
25B
100
AcDbEntity
  8
0
  6
ByLayer
 62
  256
370
   -1
100
AcDbLine
 10
181.0218740590095
 20
-266.4462086013347
 11
181.6047840590095
 21
-266.6042086013346
  0
LINE
  5
25C
100
AcDbEntity
  8
0
  6
ByLayer
 62
  256
370
   -1
100
AcDbLine
 10
181.6047840590095
 20
-266.6042086013346
 11
181.7990940590095
 21
-266.6042086013346
  0
LINE
  5
25D
100
AcDbEntity
  8
0
  6
ByLayer
 62
  256
370
   -1
100
AcDbLine
 10
181.7990940590095
 20
-266.6042086013346
 11
272.5111540590095
 21
-266.6042086013346
  0
LINE
  5
25E
100
AcDbEntity
  8
0
  6
ByLayer
 62
  256
370
   -1
100
AcDbLine
 10
272.5111540590095
 20
-266.6042086013346
 11
272.7386540590095
 21
-266.6042086013346
  0
LINE
  5
25F
100
AcDbEntity
  8
0
  6
ByLayer
 62
  256
370
   -1
100
AcDbLine
 10
272.7386540590095
 20
-266.6042086013346
 11
273.4234540590095
 21
-266.6832086013346
  0
LINE
  5
260
100
AcDbEntity
  8
0
  6
ByLayer
 62
  256
370
   -1
100
AcDbLine
 10
273.4234540590095
 20
-266.6832086013346
 11
274.4320540590095
 21
-266.8982086013347
  0
LINE
  5
261
100
AcDbEntity
  8
0
  6
ByLayer
 62
  256
370
   -1
100
AcDbLine
 10
274.4320540590095
 20
-266.8982086013347
 11
275.4120540590095
 21
-267.2152086013347
  0
LINE
  5
262
100
AcDbEntity
  8
0
  6
ByLayer
 62
  256
370
   -1
100
AcDbLine
 10
275.4120540590095
 20
-267.2152086013347
 11
276.0445540590097
 21
-267.4892086013347
  0
LINE
  5
263
100
AcDbEntity
  8
0
  6
ByLayer
 62
  256
370
   -1
100
AcDbLine
 10
276.0445540590097
 20
-267.4892086013347
 11
276.2428540590096
 21
-267.6032086013346
  0
ARC
  5
264
100
AcDbEntity
  8
0
  6
ByLayer
 62
  256
370
   -1
100
AcDbCircle
 10
312.9844505106532
 20
-287.6462041343358
 40
1
100
AcDbArc
 50
240.0178770956076
 51
329.9314171781378
  0
LINE
  5
265
100
AcDbEntity
  8
0
  6
ByLayer
 62
  256
370
   -1
100
AcDbLine
 10
310.8691540590095
 20
-180.7262086013346
 11
310.8691540590095
 21
-194.7172086013346
  0
LINE
  5
266
100
AcDbEntity
  8
0
  6
ByLayer
 62
  256
370
   -1
100
AcDbLine
 10
181.7508540590095
 20
-170.0672086013346
 11
183.0632676590095
 21
-169.7682614209667
  0
LWPOLYLINE
  5
267
100
AcDbEntity
  8
0
  6
ByLayer
 62
  256
370
   -1
100
AcDbPolyline
 90
    2
 70
    0
 43
0
 10
279.8804476590095
 20
-162.9102614209667
 10
237.1652676590095
 20
-162.9102614209667
  0
LWPOLYLINE
  5
268
100
AcDbEntity
  8
0
  6
ByLayer
 62
  256
370
   -1
100
AcDbPolyline
 90
    3
 70
    0
 43
0
 10
183.0632676590095
 20
-169.7682614209667
 10
237.1652676590095
 20
-162.9102614209667
 10
237.1652676590095
 20
-162.9102614209667
  0
LINE
  5
269
100
AcDbEntity
  8
0
  6
ByLayer
 62
  256
370
   -1
100
AcDbLine
 10
111.6891612229357
 20
-166.0351394688906
 11
100.0808916
 21
-162.9102614209667
  0
CIRCLE
  5
26A
100
AcDbEntity
  8
0
  6
ByLayer
 62
  256
370
   -1
100
AcDbCircle
 10
136.7087075999999
 20
-213.2390105013346
 40
1.1999976
  0
CIRCLE
  5
26B
100
AcDbEntity
  8
0
  6
ByLayer
 62
  256
370
   -1
100
AcDbCircle
 10
152.9646821999998
 20
-213.2389343013346
 40
1.1999976
  0
CIRCLE
  5
26C
100
AcDbEntity
  8
0
  6
ByLayer
 62
  256
370
   -1
100
AcDbCircle
 10
144.0756982000001
 20
-236.6156211013346
 40
1.1999976
  0
CIRCLE
  5
26D
100
AcDbEntity
  8
0
  6
ByLayer
 62
  256
370
   -1
100
AcDbCircle
 10
147.4086861999997
 20
-249.5089151013346
 40
1.1999976
  0
CIRCLE
  5
26E
100
AcDbEntity
  8
0
  6
ByLayer
 62
  256
370
   -1
100
AcDbCircle
 10
108.5466861999999
 20
-247.3496611013347
 40
1.1999976
  0
CIRCLE
  5
26F
100
AcDbEntity
  8
0
  6
ByLayer
 62
  256
370
   -1
100
AcDbCircle
 10
57.8736861999999
 20
-239.9836611013347
 40
1.1999976
  0
CIRCLE
  5
270
100
AcDbEntity
  8
0
  6
ByLayer
 62
  256
370
   -1
100
AcDbCircle
 10
19.26568619999983
 20
-247.6036611013347
 40
1.1999976
  0
CIRCLE
  5
271
100
AcDbEntity
  8
0
  6
ByLayer
 62
  256
370
   -1
100
AcDbCircle
 10
19.26568619999983
 20
-190.1996611013346
 40
1.1999976
  0
CIRCLE
  5
272
100
AcDbEntity
  8
0
  6
ByLayer
 62
  256
370
   -1
100
AcDbCircle
 10
57.36543219999993
 20
-204.4236611013346
 40
1.1999976
  0
CIRCLE
  5
273
100
AcDbEntity
  8
0
  6
ByLayer
 62
  256
370
   -1
100
AcDbCircle
 10
57.36543219999993
 20
-168.1019151013346
 40
1.1999976
  0
CIRCLE
  5
274
100
AcDbEntity
  8
0
  6
ByLayer
 62
  256
370
   -1
100
AcDbCircle
 10
114.5154575999998
 20
-187.6597373013346
 40
1.1999976
  0
CIRCLE
  5
275
100
AcDbEntity
  8
0
  6
ByLayer
 62
  256
370
   -1
100
AcDbCircle
 10
288.3462422590094
 20
-247.3496611013347
 40
1.1999976
  0
CIRCLE
  5
276
100
AcDbEntity
  8
0
  6
ByLayer
 62
  256
370
   -1
100
AcDbCircle
 10
237.6732422590094
 20
-239.9836611013347
 40
1.1999976
  0
CIRCLE
  5
277
100
AcDbEntity
  8
0
  6
ByLayer
 62
  256
370
   -1
100
AcDbCircle
 10
199.0652422590094
 20
-247.6036611013347
 40
1.1999976
  0
CIRCLE
  5
278
100
AcDbEntity
  8
0
  6
ByLayer
 62
  256
370
   -1
100
AcDbCircle
 10
199.0652422590094
 20
-190.1996611013346
 40
1.1999976
  0
CIRCLE
  5
279
100
AcDbEntity
  8
0
  6
ByLayer
 62
  256
370
   -1
100
AcDbCircle
 10
237.1649882590094
 20
-204.4236611013346
 40
1.1999976
  0
CIRCLE
  5
27A
100
AcDbEntity
  8
0
  6
ByLayer
 62
  256
370
   -1
100
AcDbCircle
 10
237.1649882590094
 20
-168.1019151013346
 40
1.1999976
  0
CIRCLE
  5
27B
100
AcDbEntity
  8
0
  6
ByLayer
 62
  256
370
   -1
100
AcDbCircle
 10
294.3150136590093
 20
-187.6597373013346
 40
1.1999976
  0
CIRCLE
  5
27C
100
AcDbEntity
  8
0
  6
ByLayer
 62
  256
370
   -1
100
AcDbCircle
 10
174.8271710590095
 20
-180.5772981013346
 40
2.599962000000005
  0
LINE
  5
27D
100
AcDbEntity
  8
0
  6
ByLayer
 62
  256
370
   -1
100
AcDbLine
 10
177.3269460590095
 20
-175.5777491013346
 11
174.8271710590095
 21
-175.5777491013346
  0
LINE
  5
27E
100
AcDbEntity
  8
0
  6
ByLayer
 62
  256
370
   -1
100
AcDbLine
 10
177.3269460590095
 20
-185.5775521013346
 11
174.8271710590095
 21
-185.5775521013346
  0
ARC
  5
27F
100
AcDbEntity
  8
0
  6
ByLayer
 62
  256
370
   -1
100
AcDbCircle
 10
174.8271710590095
 20
-180.5772981013346
 40
4.999549000000002
100
AcDbArc
 50
90
 51
270
  0
SPLINE
  5
280
100
AcDbEntity
  8
0
  6
ByLayer
 62
  256
370
   -1
100
AcDbSpline
210
0
220
0
230
0
 70
    8
 71
    2
 72
    6
 73
    3
 74
    0
 42
1e-007
 43
1e-007
 40
0
 40
0
 40
0
 40
1
 40
1
 40
1
 10
177.3269460590095
 20
-185.5775521013346
 30
0
 10
179.4055049582425
 20
-185.7290689831797
 30
0
 10
179.7995560590095
 20
-187.7291351013346
 30
0
  0
SPLINE
  5
281
100
AcDbEntity
  8
0
  6
ByLayer
 62
  256
370
   -1
100
AcDbSpline
210
0
220
0
230
0
 70
    8
 71
    2
 72
    6
 73
    3
 74
    0
 42
1e-007
 43
1e-007
 40
0
 40
0
 40
0
 40
1
 40
1
 40
1
 10
177.3269460590095
 20
-175.5770441013346
 30
0
 10
179.4055049582425
 20
-175.4255272194895
 30
0
 10
179.7995560590095
 20
-173.4254611013346
 30
0
  0
CIRCLE
  5
282
100
AcDbEntity
  8
0
  6
ByLayer
 62
  256
370
   -1
100
AcDbCircle
 10
174.8271710590095
 20
-256.7806191013347
 40
2.599962000000005
  0
LINE
  5
283
100
AcDbEntity
  8
0
  6
ByLayer
 62
  256
370
   -1
100
AcDbLine
 10
177.3269460590095
 20
-261.7801681013347
 11
174.8271710590095
 21
-261.7801681013347
  0
LINE
  5
284
100
AcDbEntity
  8
0
  6
ByLayer
 62
  256
370
   -1
100
AcDbLine
 10
177.3269460590095
 20
-251.7803651013346
 11
174.8271710590095
 21
-251.7803651013346
  0
ARC
  5
285
100
AcDbEntity
  8
0
  6
ByLayer
 62
  256
370
   -1
100
AcDbCircle
 10
174.8271710590095
 20
-256.7806191013347
 40
4.999549000000002
100
AcDbArc
 50
90
 51
270
  0
SPLINE
  5
286
100
AcDbEntity
  8
0
  6
ByLayer
 62
  256
370
   -1
100
AcDbSpline
210
0
220
0
230
0
 70
    8
 71
    2
 72
    6
 73
    3
 74
    0
 42
1e-007
 43
1e-007
 40
0
 40
0
 40
0
 40
1
 40
1
 40
1
 10
177.3269460590095
 20
-251.7803651013346
 30
0
 10
179.4055049582425
 20
-251.6288482194896
 30
0
 10
179.7995560590095
 20
-249.6287821013346
 30
0
  0
SPLINE
  5
287
100
AcDbEntity
  8
0
  6
ByLayer
 62
  256
370
   -1
100
AcDbSpline
210
0
220
0
230
0
 70
    8
 71
    2
 72
    6
 73
    3
 74
    0
 42
1e-007
 43
1e-007
 40
0
 40
0
 40
0
 40
1
 40
1
 40
1
 10
177.3269460590095
 20
-261.7808731013346
 30
0
 10
179.4055049582425
 20
-261.9323899831796
 30
0
 10
179.7995560590095
 20
-263.9324561013347
 30
0
  0
LINE
  5
288
100
AcDbEntity
  8
0
  6
ByLayer
 62
  256
370
   -1
100
AcDbLine
 10
323.8106648934278
 20
-275.9276880701954
 11
325.9739393208744
 21
-277.1803327932436
  0
LINE
  5
289
100
AcDbEntity
  8
0
  6
ByLayer
 62
  256
370
   -1
100
AcDbLine
 10
318.7997337258342
 20
-284.5813941475042
 11
320.963008153281
 21
-285.8340388705523
  0
ARC
  5
28A
100
AcDbEntity
  8
0
  6
ByLayer
 62
  256
370
   -1
100
AcDbCircle
 10
323.4686503758811
 20
-281.5068807827492
 40
4.999549000000002
100
AcDbArc
 50
239.927
 51
59.92700000000005
  0
SPLINE
  5
28B
100
AcDbEntity
  8
0
  6
ByLayer
 62
  256
370
   -1
100
AcDbSpline
210
0
220
0
230
0
 70
    8
 71
    2
 72
    6
 73
    3
 74
    0
 42
1e-007
 43
1e-007
 40
0
 40
0
 40
0
 40
1
 40
1
 40
1
 10
318.7997337258342
 20
-284.5813941475042
 30
0
 10
316.9250489501451
 20
-283.670942910554
 30
0
 10
315.5818028827788
 20
-285.2043152559131
 30
0
  0
SPLINE
  5
28C
100
AcDbEntity
  8
0
  6
ByLayer
 62
  256
370
   -1
100
AcDbSpline
210
0
220
0
230
0
 70
    8
 71
    2
 72
    6
 73
    3
 74
    0
 42
1e-007
 43
1e-007
 40
0
 40
0
 40
0
 40
1
 40
1
 40
1
 10
323.8110181710347
 20
-275.927077971898
 30
0
 10
322.0881845199435
 20
-274.7543850565393
 30
0
 10
322.74941667054
 20
-272.8260923427574
 30
0
  0
CIRCLE
  5
28D
100
AcDbEntity
  8
0
  6
ByLayer
 62
  256
370
   -1
100
AcDbCircle
 10
323.4686503758811
 20
-281.5068807827492
 40
2.599962000000005
  0
LINE
  5
28E
100
AcDbEntity
  8
0
  6
ByLayer
 62
  256
370
   -1
100
AcDbLine
 10
315.5818028827788
 20
-285.2043152559131
 11
313.8498767961344
 21
-288.1472404048775
  0
LINE
  5
28F
100
AcDbEntity
  8
0
  6
ByLayer
 62
  256
370
   -1
100
AcDbLine
 10
179.7995560590095
 20
-172.5062086013346
 11
179.7995560590095
 21
-173.4254611013346
  0
LINE
  5
290
100
AcDbEntity
  8
0
  6
ByLayer
 62
  256
370
   -1
100
AcDbLine
 10
179.7995560590095
 20
-187.7291351013346
 11
179.7995560590095
 21
-249.6287821013346
  0
LINE
  5
291
100
AcDbEntity
  8
0
  6
ByLayer
 62
  256
370
   -1
100
AcDbLine
 10
179.7995560590095
 20
-263.9324561013347
 11
179.7995560590095
 21
-264.6052086013345
  0
LINE
  5
292
100
AcDbEntity
  8
0
  6
ByLayer
 62
  256
370
   -1
100
AcDbLine
 10
2.842170943040401e-014
 20
-172.3022086013345
 11
2.842170943040401e-014
 21
-172.5062086013345
  0
CIRCLE
  5
293
100
AcDbEntity
  8
0
  6
ByLayer
 62
  256
370
   -1
100
AcDbCircle
 10
-4.972384999999946
 20
-180.5772981013345
 40
2.599962000000005
  0
LINE
  5
294
100
AcDbEntity
  8
0
  6
ByLayer
 62
  256
370
   -1
100
AcDbLine
 10
-2.472609999999946
 20
-175.5777491013345
 11
-4.972384999999946
 21
-175.5777491013345
  0
LINE
  5
295
100
AcDbEntity
  8
0
  6
ByLayer
 62
  256
370
   -1
100
AcDbLine
 10
-2.472609999999946
 20
-185.5775521013345
 11
-4.972384999999946
 21
-185.5775521013345
  0
ARC
  5
296
100
AcDbEntity
  8
0
  6
ByLayer
 62
  256
370
   -1
100
AcDbCircle
 10
-4.972384999999946
 20
-180.5772981013345
 40
4.999549000000002
100
AcDbArc
 50
90
 51
270
  0
SPLINE
  5
297
100
AcDbEntity
  8
0
  6
ByLayer
 62
  256
370
   -1
100
AcDbSpline
210
0
220
0
230
0
 70
    8
 71
    2
 72
    6
 73
    3
 74
    0
 42
1e-007
 43
1e-007
 40
0
 40
0
 40
0
 40
1
 40
1
 40
1
 10
-2.472609999999946
 20
-185.5775521013345
 30
0
 10
-0.3940511007669834
 20
-185.7290689831796
 30
0
 10
5.684341886080801e-014
 20
-187.7291351013345
 30
0
  0
SPLINE
  5
298
100
AcDbEntity
  8
0
  6
ByLayer
 62
  256
370
   -1
100
AcDbSpline
210
0
220
0
230
0
 70
    8
 71
    2
 72
    6
 73
    3
 74
    0
 42
1e-007
 43
1e-007
 40
0
 40
0
 40
0
 40
1
 40
1
 40
1
 10
-2.472609999999946
 20
-175.5770441013345
 30
0
 10
-0.3940511007669656
 20
-175.4255272194894
 30
0
 10
5.684341886080801e-014
 20
-173.4254611013345
 30
0
  0
CIRCLE
  5
299
100
AcDbEntity
  8
0
  6
ByLayer
 62
  256
370
   -1
100
AcDbCircle
 10
-4.972384999999946
 20
-256.7806191013345
 40
2.599962000000005
  0
LINE
  5
29A
100
AcDbEntity
  8
0
  6
ByLayer
 62
  256
370
   -1
100
AcDbLine
 10
-2.472609999999946
 20
-261.7801681013345
 11
-4.972384999999946
 21
-261.7801681013345
  0
LINE
  5
29B
100
AcDbEntity
  8
0
  6
ByLayer
 62
  256
370
   -1
100
AcDbLine
 10
-2.472609999999946
 20
-251.7803651013345
 11
-4.972384999999946
 21
-251.7803651013345
  0
ARC
  5
29C
100
AcDbEntity
  8
0
  6
ByLayer
 62
  256
370
   -1
100
AcDbCircle
 10
-4.972384999999946
 20
-256.7806191013345
 40
4.999549000000002
100
AcDbArc
 50
90
 51
270
  0
SPLINE
  5
29D
100
AcDbEntity
  8
0
  6
ByLayer
 62
  256
370
   -1
100
AcDbSpline
210
0
220
0
230
0
 70
    8
 71
    2
 72
    6
 73
    3
 74
    0
 42
1e-007
 43
1e-007
 40
0
 40
0
 40
0
 40
1
 40
1
 40
1
 10
-2.472609999999946
 20
-251.7803651013345
 30
0
 10
-0.3940511007669834
 20
-251.6288482194895
 30
0
 10
5.684341886080801e-014
 20
-249.6287821013345
 30
0
  0
SPLINE
  5
29E
100
AcDbEntity
  8
0
  6
ByLayer
 62
  256
370
   -1
100
AcDbSpline
210
0
220
0
230
0
 70
    8
 71
    2
 72
    6
 73
    3
 74
    0
 42
1e-007
 43
1e-007
 40
0
 40
0
 40
0
 40
1
 40
1
 40
1
 10
-2.472609999999946
 20
-261.7808731013345
 30
0
 10
-0.3940511007669558
 20
-261.9323899831795
 30
0
 10
5.684341886080801e-014
 20
-263.9324561013345
 30
0
  0
LINE
  5
29F
100
AcDbEntity
  8
0
  6
ByLayer
 62
  256
370
   -1
100
AcDbLine
 10
2.842170943040401e-014
 20
-172.5062086013345
 11
5.684341886080801e-014
 21
-173.4254611013345
  0
LINE
  5
2A0
100
AcDbEntity
  8
0
  6
ByLayer
 62
  256
370
   -1
100
AcDbLine
 10
5.684341886080801e-014
 20
-187.7291351013345
 11
5.684341886080801e-014
 21
-249.6287821013345
  0
LINE
  5
2A1
100
AcDbEntity
  8
0
  6
ByLayer
 62
  256
370
   -1
100
AcDbLine
 10
5.684341886080801e-014
 20
-263.9324561013345
 11
0
 21
-264.6052086013345
  0
LINE
  5
2A2
100
AcDbEntity
  8
0
  6
ByLayer
 62
  256
370
   -1
100
AcDbLine
 10
144.0111088344182
 20
-275.9276880701954
 11
146.1743832618648
 21
-277.1803327932435
  0
LINE
  5
2A3
100
AcDbEntity
  8
0
  6
ByLayer
 62
  256
370
   -1
100
AcDbLine
 10
139.0001776668248
 20
-284.5813941475041
 11
141.1634520942714
 21
-285.8340388705521
  0
ARC
  5
2A4
100
AcDbEntity
  8
0
  6
ByLayer
 62
  256
370
   -1
100
AcDbCircle
 10
143.6690943168716
 20
-281.5068807827491
 40
4.999549000000002
100
AcDbArc
 50
239.927
 51
59.92700000000005
  0
SPLINE
  5
2A5
100
AcDbEntity
  8
0
  6
ByLayer
 62
  256
370
   -1
100
AcDbSpline
210
0
220
0
230
0
 70
    8
 71
    2
 72
    6
 73
    3
 74
    0
 42
1e-007
 43
1e-007
 40
0
 40
0
 40
0
 40
1
 40
1
 40
1
 10
139.0001776668248
 20
-284.5813941475041
 30
0
 10
137.1254928911356
 20
-283.6709429105539
 30
0
 10
135.7822468237693
 20
-285.204315255913
 30
0
  0
SPLINE
  5
2A6
100
AcDbEntity
  8
0
  6
ByLayer
 62
  256
370
   -1
100
AcDbSpline
210
0
220
0
230
0
 70
    8
 71
    2
 72
    6
 73
    3
 74
    0
 42
1e-007
 43
1e-007
 40
0
 40
0
 40
0
 40
1
 40
1
 40
1
 10
144.0114621120251
 20
-275.9270779718979
 30
0
 10
142.2886284609339
 20
-274.7543850565393
 30
0
 10
142.9498606115305
 20
-272.8260923427573
 30
0
  0
CIRCLE
  5
2A7
100
AcDbEntity
  8
0
  6
ByLayer
 62
  256
370
   -1
100
AcDbCircle
 10
143.6690943168716
 20
-281.5068807827491
 40
2.599962000000005
  0
LINE
  5
2A8
100
AcDbEntity
  8
0
  6
ByLayer
 62
  256
370
   -1
100
AcDbLine
 10
151.9769435509419
 20
-257.1830737264662
 11
142.9498606115305
 21
-272.8260923427573
  0
LINE
  5
2A9
100
AcDbEntity
  8
0
  6
ByLayer
 62
  256
370
   -1
100
AcDbLine
 10
135.7822468237693
 20
-285.204315255913
 11
134.0503207371248
 21
-288.1472404048775
  0
LINE
  5
2AA
100
AcDbEntity
  8
0
  6
ByLayer
 62
  256
370
   -1
100
AcDbLine
 10
288.5679620590096
 20
-260.6153046013347
 11
295.5533620590095
 21
-248.4873046013347
  0
LINE
  5
2AB
100
AcDbEntity
  8
0
  6
ByLayer
 62
  256
370
   -1
100
AcDbLine
 10
295.5533620590095
 20
-248.4873046013347
 11
307.6814620590096
 21
-255.4933046013347
  0
LINE
  5
2AC
100
AcDbEntity
  8
0
  6
ByLayer
 62
  256
370
   -1
100
AcDbLine
 10
307.6814620590096
 20
-255.4933046013347
 11
300.6753620590097
 21
-267.6213046013347
  0
LINE
  5
2AD
100
AcDbEntity
  8
0
  6
ByLayer
 62
  256
370
   -1
100
AcDbLine
 10
300.6753620590097
 20
-267.6213046013347
 11
288.5679620590096
 21
-260.6153046013347
  0
LINE
  5
2AE
100
AcDbEntity
  8
0
  6
ByLayer
 62
  256
370
   -1
100
AcDbLine
 10
316.8139240590095
 20
-249.7634006013346
 11
328.9420240590096
 21
-256.7694006013346
  0
LINE
  5
2AF
100
AcDbEntity
  8
0
  6
ByLayer
 62
  256
370
   -1
100
AcDbLine
 10
321.9359240590095
 20
-268.8974006013347
 11
309.8285240590095
 21
-261.8914006013346
  0
LINE
  5
2B0
100
AcDbEntity
  8
0
  6
ByLayer
 62
  256
370
   -1
100
AcDbLine
 10
300.3035240590098
 20
-278.3892086013348
 11
307.2889240590097
 21
-266.2612086013347
  0
LINE
  5
2B1
100
AcDbEntity
  8
0
  6
ByLayer
 62
  256
370
   -1
100
AcDbLine
 10
307.2889240590097
 20
-266.2612086013347
 11
319.4170240590097
 21
-273.2672086013347
  0
LINE
  5
2B2
100
AcDbEntity
  8
0
  6
ByLayer
 62
  256
370
   -1
100
AcDbLine
 10
319.4170240590097
 20
-273.2672086013347
 11
312.4109240590097
 21
-285.3952086013347
  0
LINE
  5
2B3
100
AcDbEntity
  8
0
  6
ByLayer
 62
  256
370
   -1
100
AcDbLine
 10
312.4109240590097
 20
-285.3952086013347
 11
300.3035240590098
 21
-278.3892086013348
  0
LINE
  5
2B4
100
AcDbEntity
  8
0
  6
ByLayer
 62
  256
370
   -1
100
AcDbLine
 10
276.2428540590096
 20
-267.6032086013346
 11
312.4847207471925
 21
-288.5123855030522
  0
LINE
  5
2B5
100
AcDbEntity
  8
0
  6
ByLayer
 62
  256
370
   -1
100
AcDbLine
 10
322.74941667054
 20
-272.8260923427574
 11
338.1756689135
 21
-246.0939627460891
  0
SPLINE
  5
2B6
100
AcDbEntity
  8
0
  6
ByLayer
 62
  256
370
   -1
100
AcDbSpline
210
0
220
0
230
0
 70
    8
 71
    2
 72
    6
 73
    3
 74
    0
 42
1e-007
 43
1e-007
 40
0
 40
0
 40
0
 40
1
 40
1
 40
1
 10
338.1756689135
 20
-246.0939627460891
 30
0
 10
338.6865157780727
 20
-245.1632302858328
 30
0
 10
338.7394968408187
 20
-244.1266656692023
 30
0
  0
LINE
  5
2B7
100
AcDbEntity
  8
0
  6
ByLayer
 62
  256
370
   -1
100
AcDbLine
 10
309.8285240590095
 20
-261.8914006013346
 11
316.8139240590094
 21
-249.7634006013346
  0
LINE
  5
2B8
100
AcDbEntity
  8
0
  6
ByLayer
 62
  256
370
   -1
100
AcDbLine
 10
328.9420240590096
 20
-256.7694006013346
 11
321.9359240590095
 21
-268.8974006013347
  0
SPLINE
  5
2B9
100
AcDbEntity
  8
0
  6
ByLayer
 62
  256
370
   -1
100
AcDbSpline
210
0
220
0
230
0
 70
    8
 71
    2
 72
    6
 73
    3
 74
    0
 42
1e-007
 43
1e-007
 40
0
 40
0
 40
0
 40
1
 40
1
 40
1
 10
140.9955529069088
 20
-217.8287835943035
 30
0
 10
141.2777152590168
 20
-216.0611487546313
 30
0
 10
143.2441637799907
 20
-215.9525898332602
 30
0
  0
SPLINE
  5
2BA
100
AcDbEntity
  8
0
  6
ByLayer
 62
  256
370
   -1
100
AcDbSpline
210
0
220
0
230
0
 70
    8
 71
    2
 72
    6
 73
    3
 74
    0
 42
1e-007
 43
1e-007
 40
0
 40
0
 40
0
 40
1
 40
1
 40
1
 10
143.2461309958002
 20
-225.0461401305572
 30
0
 10
141.4566745807148
 20
-225.0907972451036
 30
0
 10
140.9916101100239
 20
-223.1770522612693
 30
0
  0
LINE
  5
2BB
100
AcDbEntity
  8
0
  6
ByLayer
 62
  256
370
   -1
100
AcDbLine
 10
140.9955529069088
 20
-217.8287835943035
 11
140.9916101100239
 21
-223.1770522612693
  0
LINE
  5
2BC
100
AcDbEntity
  8
0
  6
ByLayer
 62
  256
370
   -1
100
AcDbLine
 10
142.9498606115305
 20
-272.8260923427574
 11
158.3761128544904
 21
-246.0939627460891
  0
SPLINE
  5
2BD
100
AcDbEntity
  8
0
  6
ByLayer
 62
  256
370
   -1
100
AcDbSpline
210
0
220
0
230
0
 70
    8
 71
    2
 72
    6
 73
    3
 74
    0
 42
1e-007
 43
1e-007
 40
0
 40
0
 40
0
 40
1
 40
1
 40
1
 10
158.3761128544904
 20
-246.0939627460891
 30
0
 10
158.8869597190632
 20
-245.1632302858328
 30
0
 10
158.9399407818092
 20
-244.1266656692023
 30
0
  0
ARC
  5
2BE
100
AcDbEntity
  8
0
  6
ByLayer
 62
  256
370
   -1
100
AcDbCircle
 10
156.653956876305
 20
-213.6706944060988
 40
2.286
100
AcDbArc
 50
269.785
 51
359.785
  0
ARC
  5
2BF
100
AcDbEntity
  8
0
  6
ByLayer
 62
  256
370
   -1
100
AcDbCircle
 10
156.6559998373736
 20
-227.3342817529849
 40
2.286
100
AcDbArc
 50
359.2153
 51
89.21530000000004
  0
LINE
  5
2C0
100
AcDbEntity
  8
0
  6
ByLayer
 62
  256
370
   -1
100
AcDbLine
 10
143.2441637799907
 20
-215.9525898332602
 11
156.6453787776957
 21
-215.956678311603
  0
LINE
  5
2C1
100
AcDbEntity
  8
0
  6
ByLayer
 62
  256
370
   -1
100
AcDbLine
 10
143.2461309958002
 20
-225.0461401305572
 11
156.6873069971331
 21
-225.0484960363059
  0
LINE
  5
2C2
100
AcDbEntity
  8
0
  6
ByLayer
 62
  256
370
   -1
100
AcDbLine
 10
158.9417854488752
 20
-227.3655889127445
 11
158.9399407818092
 21
-244.1266656692023
  0
CIRCLE
  5
2C3
100
AcDbEntity
  8
0
  6
ByLayer
 62
  256
370
   -1
100
AcDbCircle
 10
185.7807978280902
 20
-279.0852339805901
 40
2.599962000000005
  0
CIRCLE
  5
2C4
100
AcDbEntity
  8
0
  6
ByLayer
 62
  256
370
   -1
100
AcDbCircle
 10
185.7807978280902
 20
-279.0852339805901
 40
4.999548999999996
  0
CIRCLE
  5
2C5
100
AcDbEntity
  8
0
  6
ByLayer
 62
  256
370
   -1
100
AcDbCircle
 10
196.7022658566175
 20
-279.0852339805901
 40
2.599962000000005
  0
CIRCLE
  5
2C6
100
AcDbEntity
  8
0
  6
ByLayer
 62
  256
370
   -1
100
AcDbCircle
 10
196.7022658566175
 20
-279.0852339805901
 40
4.999548999999996
  0
CIRCLE
  5
2C7
100
AcDbEntity
  8
0
  6
ByLayer
 62
  256
370
   -1
100
AcDbCircle
 10
207.7928353236871
 20
-279.0852339805901
 40
2.599962000000005
  0
CIRCLE
  5
2C8
100
AcDbEntity
  8
0
  6
ByLayer
 62
  256
370
   -1
100
AcDbCircle
 10
207.7928353236871
 20
-279.0852339805901
 40
4.999548999999996
  0
CIRCLE
  5
2C9
100
AcDbEntity
  8
0
  6
ByLayer
 62
  256
370
   -1
100
AcDbCircle
 10
218.7974313840351
 20
-279.0852339805901
 40
2.599962000000005
  0
CIRCLE
  5
2CA
100
AcDbEntity
  8
0
  6
ByLayer
 62
  256
370
   -1
100
AcDbCircle
 10
218.7974313840351
 20
-279.0852339805901
 40
4.999548999999996
  0
CIRCLE
  5
2CB
100
AcDbEntity
  8
0
  6
ByLayer
 62
  256
370
   -1
100
AcDbCircle
 10
229.9739742578262
 20
-279.0852339805901
 40
2.599962000000005
  0
CIRCLE
  5
2CC
100
AcDbEntity
  8
0
  6
ByLayer
 62
  256
370
   -1
100
AcDbCircle
 10
229.9739742578262
 20
-279.0852339805901
 40
4.999548999999996
  0
CIRCLE
  5
2CD
100
AcDbEntity
  8
0
  6
ByLayer
 62
  256
370
   -1
100
AcDbCircle
 10
241.3979731641227
 20
-279.0852339805901
 40
2.599962000000005
  0
CIRCLE
  5
2CE
100
AcDbEntity
  8
0
  6
ByLayer
 62
  256
370
   -1
100
AcDbCircle
 10
241.3979731641227
 20
-279.0852339805901
 40
4.999548999999996
  0
CIRCLE
  5
2CF
100
AcDbEntity
  8
0
  6
ByLayer
 62
  256
370
   -1
100
AcDbCircle
 10
253.0137986444611
 20
-279.0852339805901
 40
2.599962000000005
  0
CIRCLE
  5
2D0
100
AcDbEntity
  8
0
  6
ByLayer
 62
  256
370
   -1
100
AcDbCircle
 10
253.0137986444611
 20
-279.0852339805901
 40
4.999548999999996
  0
CIRCLE
  5
2D1
100
AcDbEntity
  8
0
  6
ByLayer
 62
  256
370
   -1
100
AcDbCircle
 10
264.6296241247994
 20
-279.0852339805901
 40
2.599962000000005
  0
CIRCLE
  5
2D2
100
AcDbEntity
  8
0
  6
ByLayer
 62
  256
370
   -1
100
AcDbCircle
 10
264.6296241247994
 20
-279.0852339805901
 40
4.999548999999996
  0
SPLINE
  5
2D3
100
AcDbEntity
  8
0
  6
ByLayer
 62
  256
370
   -1
100
AcDbSpline
210
0
220
0
230
0
 70
    8
 71
    2
 72
    6
 73
    3
 74
    0
 42
1e-007
 43
1e-007
 40
0
 40
0
 40
0
 40
1
 40
1
 40
1
 10
334.1290531231219
 20
-245.1867988336113
 30
0
 10
334.3640250389511
 20
-244.6934783318517
 30
0
 10
334.358200694526
 20
-244.14627998523
 30
0
  0
CIRCLE
  5
2D4
100
AcDbEntity
  8
0
  6
ByLayer
 62
  256
370
   -1
100
AcDbCircle
 10
366.9198504858575
 20
-249.5089151013346
 40
1.1999976
  0
CIRCLE
  5
2D5
100
AcDbEntity
  8
0
  6
ByLayer
 62
  256
370
   -1
100
AcDbCircle
 10
363.5861004858575
 20
-235.9397271013347
 40
7.999984
  0
ARC
  5
2D6
100
AcDbEntity
  8
0
  6
ByLayer
 62
  256
370
   -1
100
AcDbCircle
 10
356.4641750197217
 20
-172.0560536324594
 40
2.286
100
AcDbArc
 50
90.78470000000002
 51
180.7847
  0
LINE
  5
2D7
100
AcDbEntity
  8
0
  6
ByLayer
 62
  256
370
   -1
100
AcDbLine
 10
354.1783894085282
 20
-223.6632616713957
 11
354.1783894082199
 21
-172.0873607922189
  0
ARC
  5
2D8
100
AcDbEntity
  8
0
  6
ByLayer
 62
  256
370
   -1
100
AcDbCircle
 10
373.5650858743562
 20
-172.0560536326442
 40
2.286
100
AcDbArc
 50
359.2153
 51
89.21530000000004
  0
LINE
  5
2D9
100
AcDbEntity
  8
0
  6
ByLayer
 62
  256
370
   -1
100
AcDbLine
 10
373.5963930341157
 20
-169.7702680211426
 11
356.432867859962
 21
-169.7702680209578
  0
LINE
  5
2DA
100
AcDbEntity
  8
0
  6
ByLayer
 62
  256
370
   -1
100
AcDbLine
 10
354.1783894085282
 20
-223.6632616713957
 11
354.1783894085282
 21
-244.8143651198886
  0
SPLINE
  5
2DB
100
AcDbEntity
  8
0
  6
ByLayer
 62
  256
370
   -1
100
AcDbSpline
210
0
220
0
230
0
 70
    8
 71
    2
 72
    6
 73
    3
 74
    0
 42
1e-007
 43
1e-007
 40
0
 40
0
 40
0
 40
1
 40
1
 40
1
 10
354.1783894085282
 20
-244.8143651198886
 30
0
 10
354.1690672005814
 20
-245.4373180506262
 30
0
 10
355.0570894312168
 20
-246.0060430185957
 30
0
  0
SPLINE
  5
2DC
100
AcDbEntity
  8
0
  6
ByLayer
 62
  256
370
   -1
100
AcDbSpline
210
0
220
0
230
0
 70
    8
 71
    2
 72
    6
 73
    3
 74
    0
 42
1e-007
 43
1e-007
 40
0
 40
0
 40
0
 40
1
 40
1
 40
1
 10
368.59338028517
 20
-253.8255080397282
 30
0
 10
369.8989077551435
 20
-254.5221954827462
 30
0
 10
370.6869243092822
 20
-253.2496441519417
 30
0
  0
SPLINE
  5
2DD
100
AcDbEntity
  8
0
  6
ByLayer
 62
  256
370
   -1
100
AcDbSpline
210
0
220
0
230
0
 70
    8
 71
    2
 72
    6
 73
    3
 74
    0
 42
1e-007
 43
1e-007
 40
0
 40
0
 40
0
 40
1
 40
1
 40
1
 10
375.5520703799232
 20
-244.8277701357654
 30
0
 10
375.8442528230331
 20
-244.2622036900289
 30
0
 10
375.850871485858
 20
-243.6187528192693
 30
0
  0
LINE
  5
2DE
100
AcDbEntity
  8
0
  6
ByLayer
 62
  256
370
   -1
100
AcDbLine
 10
355.0570894312168
 20
-246.0060430185957
 11
368.59338028517
 21
-253.8255080397282
  0
LINE
  5
2DF
100
AcDbEntity
  8
0
  6
ByLayer
 62
  256
370
   -1
100
AcDbLine
 10
375.850871485858
 20
-243.6187528192693
 11
375.850871485858
 21
-172.0873607924038
  0
LINE
  5
2E0
100
AcDbEntity
  8
0
  6
ByLayer
 62
  256
370
   -1
100
AcDbLine
 10
375.5520703799232
 20
-244.8277701357654
 11
370.6869243092822
 21
-253.2496441519417
  0
CIRCLE
  5
2E1
100
AcDbEntity
  8
0
  6
ByLayer
 62
  256
370
   -1
100
AcDbCircle
 10
356.2198718858577
 20
-213.2390105013346
 40
1.1999976
  0
CIRCLE
  5
2E2
100
AcDbEntity
  8
0
  6
ByLayer
 62
  256
370
   -1
100
AcDbCircle
 10
372.4758464858576
 20
-213.2389343013346
 40
1.1999976
  0
CIRCLE
  5
2E3
100
AcDbEntity
  8
0
  6
ByLayer
 62
  256
370
   -1
100
AcDbCircle
 10
366.9198504858575
 20
-249.5089151013346
 40
1.1999976
  0
ARC
  5
2E4
100
AcDbEntity
  8
0
  6
ByLayer
 62
  256
370
   -1
100
AcDbCircle
 10
317.192204603445
 20
-227.3342817529849
 40
2.286
100
AcDbArc
 50
90.78469999999996
 51
180.7847
  0
ARC
  5
2E5
100
AcDbEntity
  8
0
  6
ByLayer
 62
  256
370
   -1
100
AcDbCircle
 10
332.0779904603213
 20
-227.3342817529849
 40
2.286
100
AcDbArc
 50
359.2153
 51
89.21530000000004
  0
LINE
  5
2E6
100
AcDbEntity
  8
0
  6
ByLayer
 62
  256
370
   -1
100
AcDbLine
 10
317.1608974436855
 20
-225.0484961414833
 11
332.1092976200808
 21
-225.0484961414833
  0
LINE
  5
2E7
100
AcDbEntity
  8
0
  6
ByLayer
 62
  256
370
   -1
100
AcDbLine
 10
334.3637760718229
 20
-227.3655889127445
 11
334.358200694526
 21
-244.14627998523
  0
SPLINE
  5
2E8
100
AcDbEntity
  8
0
  6
ByLayer
 62
  256
370
   -1
100
AcDbSpline
210
0
220
0
230
0
 70
    8
 71
    2
 72
    6
 73
    3
 74
    0
 42
1e-007
 43
1e-007
 40
0
 40
0
 40
0
 40
1
 40
1
 40
1
 10
334.0967855801211
 20
-171.8370102397591
 30
0
 10
334.3749178514337
 20
-171.8296558865306
 30
0
 10
334.3721900302113
 20
-172.1034746437691
 30
0
  0
SPLINE
  5
2E9
100
AcDbEntity
  8
0
  6
ByLayer
 62
  256
370
   -1
100
AcDbSpline
210
0
220
0
230
0
 70
    8
 71
    2
 72
    6
 73
    3
 74
    0
 42
1e-007
 43
1e-007
 40
0
 40
0
 40
0
 40
1
 40
1
 40
1
 10
315.1743539542175
 20
-171.8370111957125
 30
0
 10
314.9056244460419
 20
-171.8359447935485
 30
0
 10
314.9082636590094
 20
-172.0681470648125
 30
0
  0
LINE
  5
2EA
100
AcDbEntity
  8
0
  6
ByLayer
 62
  256
370
   -1
100
AcDbLine
 10
315.1743539542175
 20
-171.8370111957125
 11
334.0967855801211
 21
-171.8370102397591
  0
SPLINE
  5
2EB
100
AcDbEntity
  8
0
  6
ByLayer
 62
  256
370
   -1
100
AcDbSpline
210
0
220
0
230
0
 70
    8
 71
    2
 72
    6
 73
    3
 74
    0
 42
1e-007
 43
1e-007
 40
0
 40
0
 40
0
 40
1
 40
1
 40
1
 10
338.7395428135304
 20
-170.1923400240333
 30
0
 10
338.7655566362954
 20
-168.4652749044993
 30
0
 10
337.2347502522671
 20
-168.4886923532945
 30
0
  0
SPLINE
  5
2EC
100
AcDbEntity
  8
0
  6
ByLayer
 62
  256
370
   -1
100
AcDbSpline
210
0
220
0
230
0
 70
    8
 71
    2
 72
    6
 73
    3
 74
    0
 42
1e-007
 43
1e-007
 40
0
 40
0
 40
0
 40
1
 40
1
 40
1
 10
302.2425719061863
 20
-168.4886923531186
 30
0
 10
300.6183273560849
 20
-168.5144020761782
 30
0
 10
299.0544313915466
 20
-168.0739972101881
 30
0
  0
LINE
  5
2ED
100
AcDbEntity
  8
0
  6
ByLayer
 62
  256
370
   -1
100
AcDbLine
 10
307.0152676590095
 20
-168.4886923531186
 11
302.2425719061863
 21
-168.4886923531186
  0
LINE
  5
2EE
100
AcDbEntity
  8
0
  6
ByLayer
 62
  256
370
   -1
100
AcDbLine
 10
279.8804476590095
 20
-162.9102614209667
 11
299.0544313915466
 21
-168.0739972101881
  0
CIRCLE
  5
2EF
100
AcDbEntity
  8
0
  6
ByLayer
 62
  256
370
   -1
100
AcDbCircle
 10
343.7118818408187
 20
-179.443222433474
 40
2.599962000000005
  0
LINE
  5
2F0
100
AcDbEntity
  8
0
  6
ByLayer
 62
  256
370
   -1
100
AcDbLine
 10
341.2121068408187
 20
-174.443673433474
 11
343.7118818408187
 21
-174.443673433474
  0
LINE
  5
2F1
100
AcDbEntity
  8
0
  6
ByLayer
 62
  256
370
   -1
100
AcDbLine
 10
341.2121068408187
 20
-184.443476433474
 11
343.7118818408187
 21
-184.443476433474
  0
ARC
  5
2F2
100
AcDbEntity
  8
0
  6
ByLayer
 62
  256
370
   -1
100
AcDbCircle
 10
343.7118818408187
 20
-179.443222433474
 40
4.999549000000002
100
AcDbArc
 50
270
 51
90
  0
SPLINE
  5
2F3
100
AcDbEntity
  8
0
  6
ByLayer
 62
  256
370
   -1
100
AcDbSpline
210
0
220
0
230
0
 70
    8
 71
    2
 72
    6
 73
    3
 74
    0
 42
1e-007
 43
1e-007
 40
0
 40
0
 40
0
 40
1
 40
1
 40
1
 10
341.2121068408187
 20
-184.443476433474
 30
0
 10
339.1335479415857
 20
-184.5949933153191
 30
0
 10
338.7394968408187
 20
-186.595059433474
 30
0
  0
SPLINE
  5
2F4
100
AcDbEntity
  8
0
  6
ByLayer
 62
  256
370
   -1
100
AcDbSpline
210
0
220
0
230
0
 70
    8
 71
    2
 72
    6
 73
    3
 74
    0
 42
1e-007
 43
1e-007
 40
0
 40
0
 40
0
 40
1
 40
1
 40
1
 10
341.2121068408187
 20
-174.4429684334741
 30
0
 10
339.1335479415857
 20
-174.2914515516289
 30
0
 10
338.7394968408187
 20
-172.291385433474
 30
0
  0
LINE
  5
2F5
100
AcDbEntity
  8
0
  6
ByLayer
 62
  256
370
   -1
100
AcDbLine
 10
338.7394968408187
 20
-186.595059433474
 11
338.7394968408187
 21
-244.1266656692023
  0
LINE
  5
2F6
100
AcDbEntity
  8
0
  6
ByLayer
 62
  256
370
   -1
100
AcDbLine
 10
338.7394968408187
 20
-172.291385433474
 11
338.7395428135304
 21
-170.1923400240333
  0
SPLINE
  5
2F7
100
AcDbEntity
  8
0
  6
ByLayer
 62
  256
370
   -1
100
AcDbSpline
210
0
220
0
230
0
 70
    8
 71
    2
 72
    6
 73
    3
 74
    0
 42
1e-007
 43
1e-007
 40
0
 40
0
 40
0
 40
1
 40
1
 40
1
 10
158.9399867545209
 20
-170.1923400240333
 30
0
 10
158.966000577286
 20
-168.4652749044993
 30
0
 10
157.4351941932576
 20
-168.4886923532945
 30
0
  0
CIRCLE
  5
2F8
100
AcDbEntity
  8
0
  6
ByLayer
 62
  256
370
   -1
100
AcDbCircle
 10
163.9123257818092
 20
-179.443222433474
 40
2.599962000000005
  0
LINE
  5
2F9
100
AcDbEntity
  8
0
  6
ByLayer
 62
  256
370
   -1
100
AcDbLine
 10
161.4125507818092
 20
-174.443673433474
 11
163.9123257818092
 21
-174.443673433474
  0
LINE
  5
2FA
100
AcDbEntity
  8
0
  6
ByLayer
 62
  256
370
   -1
100
AcDbLine
 10
161.4125507818092
 20
-184.443476433474
 11
163.9123257818092
 21
-184.443476433474
  0
ARC
  5
2FB
100
AcDbEntity
  8
0
  6
ByLayer
 62
  256
370
   -1
100
AcDbCircle
 10
163.9123257818092
 20
-179.443222433474
 40
4.999549000000002
100
AcDbArc
 50
270
 51
90
  0
SPLINE
  5
2FC
100
AcDbEntity
  8
0
  6
ByLayer
 62
  256
370
   -1
100
AcDbSpline
210
0
220
0
230
0
 70
    8
 71
    2
 72
    6
 73
    3
 74
    0
 42
1e-007
 43
1e-007
 40
0
 40
0
 40
0
 40
1
 40
1
 40
1
 10
161.4125507818092
 20
-184.443476433474
 30
0
 10
159.3339918825762
 20
-184.5949933153191
 30
0
 10
158.9399407818092
 20
-186.595059433474
 30
0
  0
SPLINE
  5
2FD
100
AcDbEntity
  8
0
  6
ByLayer
 62
  256
370
   -1
100
AcDbSpline
210
0
220
0
230
0
 70
    8
 71
    2
 72
    6
 73
    3
 74
    0
 42
1e-007
 43
1e-007
 40
0
 40
0
 40
0
 40
1
 40
1
 40
1
 10
161.4125507818092
 20
-174.4429684334741
 30
0
 10
159.3339918825762
 20
-174.2914515516289
 30
0
 10
158.9399407818092
 20
-172.291385433474
 30
0
  0
LINE
  5
2FE
100
AcDbEntity
  8
0
  6
ByLayer
 62
  256
370
   -1
100
AcDbLine
 10
158.9399407818092
 20
-172.291385433474
 11
158.9399867545209
 21
-170.1923400240333
  0
ARC
  5
2FF
100
AcDbEntity
  8
0
  6
ByLayer
 62
  256
370
   -1
100
AcDbCircle
 10
134.9582606199732
 20
-169.6164222335311
 40
1.127729880367895
100
AcDbArc
 50
90
 51
180
  0
LINE
  5
300
100
AcDbEntity
  8
0
  6
ByLayer
 62
  256
370
   -1
100
AcDbLine
 10
133.8305307396053
 20
-169.6164222335311
 11
133.8305307396056
 21
-177.2602614209678
  0
LINE
  5
301
100
AcDbEntity
  8
0
  6
ByLayer
 62
  256
370
   -1
100
AcDbLine
 10
134.9582606199732
 20
-168.4886923531632
 11
157.4351941932576
 21
-168.4886923532945
  0
LINE
  5
302
100
AcDbEntity
  8
0
  6
ByLayer
 62
  256
370
   -1
100
AcDbLine
 10
158.9399407818092
 20
-186.595059433474
 11
158.9399407818092
 21
-213.6621163075581
  0
SPLINE
  5
303
100
AcDbEntity
  8
0
  6
ByLayer
 62
  256
370
   -1
100
AcDbSpline
210
0
220
0
230
0
 70
    8
 71
    2
 72
    6
 73
    3
 74
    0
 42
1e-007
 43
1e-007
 40
0
 40
0
 40
0
 40
1
 40
1
 40
1
 10
314.9082636590094
 20
-244.8406175418704
 30
0
 10
314.9243259441236
 20
-245.1111857369202
 30
0
 10
315.1420515128611
 20
-245.2682068724905
 30
0
  0
LINE
  5
304
100
AcDbEntity
  8
0
  6
ByLayer
 62
  256
370
   -1
100
AcDbLine
 10
253.7190540590095
 20
-242.6392086013346
 11
253.7190540590095
 21
-256.6302086013346
  0
LINE
  5
305
100
AcDbEntity
  8
0
  6
ByLayer
 62
  256
370
   -1
100
AcDbLine
 10
253.7190540590095
 20
-256.6302086013346
 11
239.7070540590095
 21
-256.6302086013346
  0
LINE
  5
306
100
AcDbEntity
  8
0
  6
ByLayer
 62
  256
370
   -1
100
AcDbLine
 10
307.0152676590095
 20
-168.4886923531186
 11
337.2347502522671
 21
-168.4886923532945
  0
LINE
  5
307
100
AcDbEntity
  8
0
  6
ByLayer
 62
  256
370
   -1
100
AcDbLine
 10
314.9064189919434
 20
-227.3655889127445
 11
314.9082636590094
 21
-244.8406175418704
  0
SPLINE
  5
308
100
AcDbEntity
  8
0
  6
ByLayer
 62
  256
370
   -1
100
AcDbSpline
210
0
220
0
230
0
 70
    8
 71
    2
 72
    6
 73
    3
 74
    0
 42
1e-007
 43
1e-007
 40
0
 40
0
 40
0
 40
1
 40
1
 40
1
 10
318.0305233950751
 20
-246.9367810107967
 30
0
 10
318.6574111045551
 20
-247.3094790965731
 30
0
 10
319.3780941736837
 20
-247.3501847920478
 30
0
  0
SPLINE
  5
309
100
AcDbEntity
  8
0
  6
ByLayer
 62
  256
370
   -1
100
AcDbSpline
210
0
220
0
230
0
 70
    8
 71
    2
 72
    6
 73
    3
 74
    0
 42
1e-007
 43
1e-007
 40
0
 40
0
 40
0
 40
1
 40
1
 40
1
 10
333.0927639271404
 20
-246.9806806464408
 30
0
 10
332.9042166844521
 20
-247.346439865674
 30
0
 10
332.496184823679
 20
-247.3501847920478
 30
0
  0
LINE
  5
30A
100
AcDbEntity
  8
0
  6
ByLayer
 62
  256
370
   -1
100
AcDbLine
 10
319.3780941736837
 20
-247.3501847920478
 11
332.496184823679
 21
-247.3501847920478
  0
LINE
  5
30B
100
AcDbEntity
  8
0
  6
ByLayer
 62
  256
370
   -1
100
AcDbLine
 10
315.1420515128611
 20
-245.2682068724905
 11
318.0305233950751
 21
-246.9367810107967
  0
LINE
  5
30C
100
AcDbEntity
  8
0
  6
ByLayer
 62
  256
370
   -1
100
AcDbLine
 10
334.1290531231219
 20
-245.1867988336113
 11
333.0927639271403
 21
-246.9806806464409
  0
SPLINE
  5
30D
100
AcDbEntity
  8
0
  6
ByLayer
 62
  256
370
   -1
100
AcDbSpline
210
0
220
0
230
0
 70
    8
 71
    2
 72
    6
 73
    3
 74
    0
 42
1e-007
 43
1e-007
 40
0
 40
0
 40
0
 40
1
 40
1
 40
1
 10
330.7647427988531
 20
-214.6680516074298
 30
0
 10
330.7593717311975
 20
-215.8632173782116
 30
0
 10
329.5590429108481
 20
-215.956678311603
 30
0
  0
SPLINE
  5
30E
100
AcDbEntity
  8
0
  6
ByLayer
 62
  256
370
   -1
100
AcDbSpline
210
0
220
0
230
0
 70
    8
 71
    2
 72
    6
 73
    3
 74
    0
 42
1e-007
 43
1e-007
 40
0
 40
0
 40
0
 40
1
 40
1
 40
1
 10
333.889327403902
 20
-209.6620555355995
 30
0
 10
334.3467469012895
 20
-209.1054329921202
 30
0
 10
334.3632419534991
 20
-208.3679264732652
 30
0
  0
LINE
  5
30F
100
AcDbEntity
  8
0
  6
ByLayer
 62
  256
370
   -1
100
AcDbLine
 10
331.3338270974981
 20
-211.8411060182382
 11
333.8893274039021
 21
-209.6620555355994
  0
LINE
  5
310
100
AcDbEntity
  8
0
  6
ByLayer
 62
  256
370
   -1
100
AcDbLine
 10
330.7647427988531
 20
-213.2838553967679
 11
330.7647427988531
 21
-214.6680516074298
  0
SPLINE
  5
311
100
AcDbEntity
  8
0
  6
ByLayer
 62
  256
370
   -1
100
AcDbSpline
210
0
220
0
230
0
 70
    8
 71
    2
 72
    6
 73
    3
 74
    0
 42
1e-007
 43
1e-007
 40
0
 40
0
 40
0
 40
1
 40
1
 40
1
 10
318.5078339252213
 20
-214.6683751963663
 30
0
 10
318.5132680988982
 20
-215.863540681884
 30
0
 10
319.7136018524112
 20
-215.956938236502
 30
0
  0
LINE
  5
312
100
AcDbEntity
  8
0
  6
ByLayer
 62
  256
370
   -1
100
AcDbLine
 10
317.9386003616248
 20
-211.8414596593737
 11
315.3829850025916
 21
-209.6625441129167
  0
LINE
  5
313
100
AcDbEntity
  8
0
  6
ByLayer
 62
  256
370
   -1
100
AcDbLine
 10
318.5077608381839
 20
-213.2841789876339
 11
318.5078339252213
 21
-214.6683751963663
  0
LINE
  5
314
100
AcDbEntity
  8
0
  6
ByLayer
 62
  256
370
   -1
100
AcDbLine
 10
334.3721900302113
 20
-172.1034746437691
 11
334.3632419534991
 21
-208.3679264732652
  0
SPLINE
  5
315
100
AcDbEntity
  8
0
  6
ByLayer
 62
  256
370
   -1
100
AcDbSpline
210
0
220
0
230
0
 70
    8
 71
    2
 72
    6
 73
    3
 74
    0
 42
1e-007
 43
1e-007
 40
0
 40
0
 40
0
 40
1
 40
1
 40
1
 10
315.3829850025917
 20
-209.6625441129167
 30
0
 10
314.9248699122246
 20
-209.1047947030293
 30
0
 10
314.9082636590094
 20
-208.3658461595162
 30
0
  0
LINE
  5
316
100
AcDbEntity
  8
0
  6
ByLayer
 62
  256
370
   -1
100
AcDbLine
 10
314.9082636590094
 20
-172.0681470648125
 11
314.9082636590094
 21
-208.3658461595162
  0
LINE
  5
317
100
AcDbEntity
  8
0
  6
ByLayer
 62
  256
370
   -1
100
AcDbLine
 10
319.7102905824419
 20
-215.956678311603
 11
329.5590429108481
 21
-215.956678311603
  0
SPLINE
  5
318
100
AcDbEntity
  8
0
  6
ByLayer
 62
  256
370
   -1
100
AcDbSpline
210
0
220
0
230
0
 70
    8
 71
    2
 72
    6
 73
    3
 74
    0
 42
1e-007
 43
1e-007
 40
0
 40
0
 40
0
 40
1
 40
1
 40
1
 10
331.333827097563
 20
-211.8411060181718
 30
0
 10
330.7252428308933
 20
-212.4320875899436
 30
0
 10
330.7647427988531
 20
-213.2838553967679
 30
0
  0
SPLINE
  5
319
100
AcDbEntity
  8
0
  6
ByLayer
 62
  256
370
   -1
100
AcDbSpline
210
0
220
0
230
0
 70
    8
 71
    2
 72
    6
 73
    3
 74
    0
 42
1e-007
 43
1e-007
 40
0
 40
0
 40
0
 40
1
 40
1
 40
1
 10
317.935506395727
 20
-211.8411060181718
 30
0
 10
318.5440906623969
 20
-212.4320875899436
 30
0
 10
318.5045906944368
 20
-213.2838553967679
 30
0
  0
CIRCLE
  5
31A
100
AcDbEntity
  8
0
  6
ByLayer
 62
  256
370
   -1
100
AcDbCircle
 10
316.5082636590093
 20
-213.2390105013346
 40
1.1999976
  0
CIRCLE
  5
31B
100
AcDbEntity
  8
0
  6
ByLayer
 62
  256
370
   -1
100
AcDbCircle
 10
332.7642382590093
 20
-213.2389343013346
 40
1.1999976
  0
CIRCLE
  5
31C
100
AcDbEntity
  8
0
  6
ByLayer
 62
  256
370
   -1
100
AcDbCircle
 10
327.2082422590092
 20
-249.5089151013346
 40
1.1999976
  0
ENDSEC
  0
SECTION
  2
OBJECTS
  0
DICTIONARY
  5
C
330
0
100
AcDbDictionary
281
    1
  3
ACAD_GROUP
350
D
  0
DICTIONARY
  5
D
330
C
100
AcDbDictionary
281
    1
  0
PLOTSETTINGS
  5
31D
100
AcDbPlotSettings
  6
1x1
 40
0
 41
0
 42
0
 43
0
  0
ENDSEC
  0
EOF
